<?xml version="1.0" standalone="no"?>
<!DOCTYPE svg PUBLIC "-//W3C//DTD SVG 1.1//EN" "http://www.w3.org/Graphics/SVG/1.1/DTD/svg11.dtd" >
<svg xmlns="http://www.w3.org/2000/svg">
<metadata></metadata>
<defs>
<font id="skolar_pesemibold" horiz-adv-x="1126" >
<font-face units-per-em="2048" ascent="1536" descent="-512" />
<missing-glyph horiz-adv-x="423" />
<glyph unicode="&#xfb01;" horiz-adv-x="1355" d="M53 117q89 9 164 35q8 60 8 112v553q-78 19 -149 27q-15 47 -8 114q75 23 157 29v12q0 257 132 413.5t362 156.5q121 0 250.5 -26t222.5 -70q-3 -178 -68 -306q-84 -21 -184 0q-30 81 -33 205q-95 25 -211 25q-59 0 -101.5 -11t-53.5 -26q-29 -37 -49.5 -126t-20.5 -222 v-29h225q155 0 441 25l22 -21q-8 -271 -8 -581v-101q0 -77 6 -151q92 -10 154 -37q0 -82 -13 -119q-110 4 -266 4q-65 0 -157.5 -2t-126.5 -2q-15 38 -15 119q69 7 164 35q8 49 8 104v561h-434v-510q0 -77 6 -153q90 -7 154 -37q0 -78 -13 -119q-168 4 -266 4q-64 0 -155 -2 t-129 -2q-15 38 -15 119z" />
<glyph unicode="&#xfb02;" horiz-adv-x="1343" d="M53 117q80 8 164 37q8 60 8 112v551q-59 17 -149 27q-18 54 -8 114q92 24 157 29v14q0 259 125 413.5t324 154.5q116 0 241 -33q124 28 218 33l22 -21q-8 -273 -8 -590v-651q0 -79 6 -153q92 -10 154 -37q0 -82 -13 -119q-110 4 -268 4q-63 0 -156 -2t-127 -2 q-14 35 -14 119q89 9 164 35q8 60 8 114v1077q-120 54 -225 54q-53 0 -91 -10.5t-48 -24.5q-26 -38 -46 -130t-20 -216v-35l248 -2q0 -91 -8 -162h-240v-510q0 -79 6 -153q88 -7 154 -37q0 -82 -13 -119q-140 4 -278 4q-62 0 -150.5 -2t-121.5 -2q-15 38 -15 119z" />
<glyph horiz-adv-x="0" />
<glyph horiz-adv-x="0" />
<glyph horiz-adv-x="682" />
<glyph unicode="&#xd;" horiz-adv-x="0" />
<glyph unicode=" "  horiz-adv-x="423" />
<glyph unicode="&#x09;" horiz-adv-x="423" />
<glyph unicode="&#xa0;" horiz-adv-x="423" />
<glyph unicode="!" horiz-adv-x="620" d="M160 117q0 56 43.5 94.5t107.5 38.5q62 0 105 -39t43 -94q0 -58 -43.5 -102t-104.5 -44q-63 0 -107 44t-44 102zM160 1169q0 117 12 193q79 14 139 14q58 0 144 -14q8 -63 8 -186q0 -281 -70 -797q-48 -10 -84 -10q-38 0 -71 10q-78 502 -78 790z" />
<glyph unicode="&#x22;" horiz-adv-x="800" d="M76 1573q89 29 221 26l20 -20q-11 -302 -45 -510q-67 -28 -137 -16q-53 295 -59 520zM463 1573q89 29 221 26l21 -20q-11 -294 -46 -510q-67 -28 -137 -16q-53 295 -59 520z" />
<glyph unicode="#" horiz-adv-x="1212" d="M76 197q-17 87 0 163h217l43 248h-189q-11 32 -11 79t11 85h218l38 213q41 3 88.5 -6.5t79.5 -26.5l-32 -180h239l39 213q41 3 88.5 -6.5t79.5 -26.5l-33 -180h183q9 -35 9 -83.5t-9 -80.5h-211l-45 -248h186q19 -72 0 -163h-215l-37 -215q-41 -3 -88.5 5t-79.5 23 l33 187h-242l-37 -217q-39 -3 -88 6t-80 24l33 187h-188zM465 360h242l43 248h-240z" />
<glyph unicode="$" horiz-adv-x="987" d="M84 72q5 151 41 278q58 17 137 -6q7 -97 19 -166q66 -23 137 -28v305l-47 16q-50 17 -93 39.5t-84.5 55t-65.5 77t-24 96.5q0 67 28 120.5t76 86.5t104.5 53t121.5 27v141q62 23 133 0v-139q164 -7 295 -55q-2 -136 -26 -250q-84 -18 -138 8q-7 75 -20 135 q-77 13 -111 15v-263l86 -28q248 -87 248 -254q0 -129 -95 -222.5t-255 -111.5v-139q-75 -18 -133 0v137q-225 10 -334 72zM340 778q0 -60 94 -106v205q-36 -2 -53 -11q-41 -32 -41 -88zM551 158q45 8 63 20q45 34 45 107q0 61 -108 118v-245z" />
<glyph unicode="%" horiz-adv-x="1499" d="M37 1014q0 94 39.5 180.5t118 144.5t176.5 58q75 0 135 -29.5t96.5 -79.5t56 -113.5t19.5 -134.5q0 -93 -39.5 -179t-118 -144t-176.5 -58q-147 0 -227 102.5t-80 252.5zM248 1055q0 -106 31 -176t86 -70q41 0 57 16q47 63 47 176q0 106 -31.5 176t-87.5 70 q-39 0 -57 -18q-45 -61 -45 -174zM254 45l870 1378q72 -18 125 -84l-872 -1374q-83 26 -123 80zM821 332q0 70 23 137.5t64.5 122.5t105.5 89t139 34q146 0 226.5 -104t80.5 -253q0 -69 -23.5 -136.5t-65.5 -122t-106 -88.5t-139 -34q-146 0 -225.5 103t-79.5 252zM1030 373 q0 -106 31.5 -176t87.5 -70q39 0 55 16q47 63 47 176q0 106 -31 176t-87 70q-18 0 -34.5 -6t-21.5 -12q-47 -63 -47 -174z" />
<glyph unicode="&#x26;" horiz-adv-x="1538" d="M41 324q0 260 291 415q-92 161 -92 271q0 97 36 175.5t95.5 126t132 72.5t149.5 25q128 0 212.5 -75t84.5 -201q0 -116 -75 -222.5t-240 -187.5q127 -174 340 -371q153 181 180 357q-68 24 -156 34q0 75 17 121q38 0 128 -3t142 -3q76 0 211 6q12 -35 12 -112 q-58 -31 -153 -45q-68 -236 -271 -451q135 -109 218 -109q80 0 172 33q44 -31 51 -98q-64 -43 -152.5 -72.5t-163.5 -29.5q-128 0 -305 124q-184 -141 -428 -141q-120 0 -218.5 43t-158 126.5t-59.5 191.5zM295 401q0 -106 84 -177.5t207 -71.5q109 0 200 45 q-222 195 -378 424q-113 -99 -113 -220zM477 1069q0 -98 84 -240q81 59 118.5 119.5t37.5 106.5q0 68 -34.5 116t-86.5 48q-27 0 -54 -8t-36 -19q-11 -15 -20 -49.5t-9 -73.5z" />
<glyph unicode="'" horiz-adv-x="413" d="M76 1573q89 29 221 26l20 -20q-11 -302 -45 -510q-67 -28 -137 -16q-53 295 -59 520z" />
<glyph unicode="(" horiz-adv-x="755" d="M154 662q0 277 96 549.5t311 564.5q93 -18 131 -84q-151 -280 -213.5 -531t-62.5 -514q0 -515 276 -1022q-51 -67 -135 -82q-212 292 -307.5 567t-95.5 552z" />
<glyph unicode=")" horiz-adv-x="755" d="M63 -371q150 279 213.5 533t63.5 512q0 516 -277 1024q50 62 136 78q212 -290 307.5 -564.5t95.5 -552.5q0 -276 -96.5 -550.5t-310.5 -565.5q-93 18 -132 86z" />
<glyph unicode="*" horiz-adv-x="804" d="M39 1212q-3 96 55 185q60 -21 136.5 -64.5t127.5 -79.5q-105 165 -139 273q82 53 184 47q13 -63 15 -161t-4 -142q1 2 22.5 40t33 57t33.5 53.5t42 61t39 46.5q79 -42 131 -137q-85 -78 -256 -162q210 6 307 -17q5 -90 -53 -182q-111 36 -269 144q37 -55 80 -133.5 t62 -141.5q-82 -53 -185 -47q-26 122 -10 303q-2 -3 -23 -40t-33 -56.5t-33 -53.5t-40.5 -60t-38.5 -46q-83 42 -133 137q89 78 256 160q-213 -6 -307 16z" />
<glyph unicode="+" d="M143 451q-31 79 0 174h332v336q87 26 174 0v-336h338q26 -88 0 -174h-338v-334q-81 -31 -174 0v334h-332z" />
<glyph unicode="," horiz-adv-x="593" d="M78 -227q56 58 96.5 131t40.5 133q0 87 -88 119q7 68 56.5 110.5t115.5 42.5q81 0 129.5 -48t48.5 -126q0 -118 -104.5 -247t-233.5 -185q-25 8 -42.5 27t-18.5 43z" />
<glyph unicode="-" horiz-adv-x="780" d="M131 418q-18 88 4 178l510 10q22 -94 2 -180z" />
<glyph unicode="." horiz-adv-x="593" d="M123 143q0 70 50 117t124 47t124 -47t50 -117q0 -72 -50.5 -122t-123.5 -50t-123.5 50t-50.5 122z" />
<glyph unicode="/" horiz-adv-x="892" d="M41 -141l602 1583q104 -14 188 -74l-598 -1579q-113 15 -192 70z" />
<glyph unicode="0" horiz-adv-x="1202" d="M84 532q0 74 19 147t59.5 142t98 121.5t142.5 84.5t185 32q99 0 186 -33t149 -88.5t106.5 -128t66.5 -152t22 -159.5q0 -74 -19 -147t-59.5 -142t-98 -121.5t-142.5 -84.5t-185 -32q-99 0 -186 33t-149 88.5t-106.5 128t-66.5 152t-22 159.5zM336 489q0 -89 28.5 -168.5 t69.5 -127.5q18 -21 59.5 -34.5t81.5 -13.5q78 0 136.5 33.5t91 91.5t48 126t15.5 147q0 89 -27.5 169.5t-68.5 125.5q-18 21 -59.5 34t-83.5 13q-77 0 -135.5 -33.5t-91 -90.5t-48.5 -125.5t-16 -146.5z" />
<glyph unicode="1" horiz-adv-x="806" d="M61 950q207 80 486 103l22 -21q-8 -273 -8 -586v-133q0 -81 6 -157q119 -10 203 -37q0 -84 -16 -121q-136 4 -316 4q-75 0 -186 -2t-152 -2q-18 36 -18 121q119 9 225 39q8 52 8 114v566h-235q-19 53 -19 112z" />
<glyph unicode="2" horiz-adv-x="1013" d="M78 938q82 51 186 86t201 35q172 0 275.5 -81t103.5 -214q0 -264 -406 -528l-108 -70v-6h389q34 80 63 209q70 11 150 -9q5 -137 -17 -342l-22 -20q-125 4 -487 4h-271q-45 60 -49 180q74 45 142.5 92.5t136 104t117 110.5t80 111.5t30.5 106.5q0 78 -55 128t-146 50 q-49 0 -100 -15q-15 -79 -15 -196q-79 -28 -147 -15q-51 145 -51 279z" />
<glyph unicode="3" horiz-adv-x="937" d="M31 938q82 52 191 86.5t218 34.5q168 0 270.5 -82.5t102.5 -216.5q0 -93 -63 -174t-168 -129q135 -26 208.5 -100.5t73.5 -182.5q0 -224 -199.5 -369t-596.5 -176q-36 49 -25 117q154 30 278.5 79.5t207.5 125t83 160.5q0 93 -66 148.5t-163 55.5q-48 0 -94 -4l-23 19 q-14 80 23 162q113 2 193.5 66.5t80.5 156.5q0 73 -55 121.5t-146 48.5q-56 0 -118 -15q-15 -79 -15 -192q-78 -28 -147 -14q-51 142 -51 274z" />
<glyph unicode="4" horiz-adv-x="1056" d="M35 236l524 768q116 38 238 38l22 -20v-776l225 -17q0 -86 -14 -157h-211v-394q-91 -33 -211 -36l-22 20v410h-508q-43 59 -43 164zM244 244h342v577h-4l-56 -172z" />
<glyph unicode="5" horiz-adv-x="899" d="M43 -254q149 33 270.5 87t202 136t80.5 174q0 116 -68 187t-182 71q-116 0 -215 -26l-20 22v611l20 20h191q144 0 460 4l21 -20q-3 -80 -21 -154h-434v-293q65 6 123 6q158 0 267.5 -100t109.5 -260q0 -114 -47 -211t-141 -174.5t-244.5 -128.5t-347.5 -68 q-33 51 -25 117z" />
<glyph unicode="6" horiz-adv-x="1103" d="M90 524q0 67 10 133t35.5 139t64.5 139t101 131t141 117.5t188.5 95t239.5 67.5q40 -34 43 -109q-133 -48 -230 -100.5t-172.5 -120t-117.5 -153t-51 -189.5h6q138 166 309 166q167 0 275 -106.5t108 -272.5q0 -92 -28.5 -172t-77.5 -137.5t-113 -99t-135.5 -61.5 t-144.5 -20q-97 0 -176.5 38.5t-129 97.5t-83.5 135t-48 146.5t-14 135.5zM346 506q21 -154 89 -257.5t161 -103.5q38 0 74.5 11.5t52.5 23.5q32 25 52 84.5t20 132.5q0 116 -60.5 190.5t-140.5 74.5q-129 0 -248 -156z" />
<glyph unicode="7" horiz-adv-x="974" d="M43 1012l20 20q222 -4 441 -4h383q45 -50 55 -151q-292 -588 -534 -1256q-159 3 -228 96l-4 31l561 1110h-495q-23 -131 -29 -264q-32 -10 -75 -10t-72 10q-28 196 -23 418z" />
<glyph unicode="8" horiz-adv-x="1105" d="M86 301q0 215 272 348v6q-116 65 -175.5 133.5t-59.5 151.5t41.5 159.5t105.5 128.5t142 83.5t151 31.5q187 0 294.5 -81.5t107.5 -198.5q0 -97 -63 -175.5t-173 -133.5v-9q142 -71 218.5 -151t76.5 -180q0 -83 -38.5 -163t-106 -143t-166.5 -102t-211 -39 q-198 0 -307 84t-109 250zM317 346q0 -57 21 -99t56.5 -64t74.5 -32t82 -10q53 0 105.5 15.5t68.5 29.5q53 50 53 148q0 37 -20 70.5t-60.5 65t-82.5 56t-105 56.5q-91 -43 -142 -104.5t-51 -131.5zM371 1024q0 -59 54.5 -107.5t164.5 -105.5q143 91 143 186q0 68 -57.5 120 t-140.5 52q-35 0 -72.5 -10.5t-48.5 -19.5q-43 -40 -43 -115z" />
<glyph unicode="9" horiz-adv-x="1103" d="M66 569q0 92 28.5 172t77 137.5t112 99t135 61.5t144.5 20q82 0 151.5 -27.5t117 -75t84 -105.5t57.5 -124t31 -125.5t10 -114.5q0 -70 -10 -138.5t-35.5 -144.5t-64.5 -145t-101.5 -136.5t-141.5 -122t-188.5 -99t-239.5 -70.5q-40 37 -43 111q136 51 235 108t174.5 131 t116 168t46.5 209h-4q-140 -168 -312 -168q-167 0 -273.5 106.5t-106.5 272.5zM309 635q0 -117 60.5 -190.5t140.5 -73.5q127 0 244 151q-21 156 -87 259.5t-157 103.5q-40 0 -77 -10.5t-52 -22.5q-32 -27 -52 -86t-20 -131z" />
<glyph unicode=":" horiz-adv-x="593" d="M127 135q0 64 50 109t120 45q71 0 120.5 -45t49.5 -109q0 -68 -50 -116t-120 -48q-69 0 -119.5 48.5t-50.5 115.5zM127 825q0 64 50 109t120 45q71 0 120.5 -45t49.5 -109q0 -68 -50 -115.5t-120 -47.5q-69 0 -119.5 48t-50.5 115z" />
<glyph unicode=";" horiz-adv-x="593" d="M72 -227q56 58 96.5 131t40.5 133q0 87 -88 119q7 67 55.5 110t110.5 43q85 0 134.5 -47.5t49.5 -126.5q0 -117 -105 -245.5t-235 -186.5q-56 20 -59 70zM127 825q0 64 50 109t120 45q71 0 120.5 -45t49.5 -109q0 -68 -50 -115.5t-120 -47.5q-69 0 -119.5 48t-50.5 115z " />
<glyph unicode="&#x3c;" d="M98 477q-23 77 0 164l869 410q62 -62 73 -156l-723 -336l723 -334q-9 -88 -75 -157z" />
<glyph unicode="=" d="M143 270q-31 81 0 174h844q26 -87 0 -174h-844zM143 629q-30 80 0 176h844q26 -89 0 -176h-844z" />
<glyph unicode="&#x3e;" d="M82 221l723 336l-721 334q6 82 74 160l866 -410q23 -80 0 -164l-868 -409q-62 59 -74 153z" />
<glyph unicode="?" horiz-adv-x="854" d="M61 1296q72 46 168.5 76.5t196.5 30.5q195 0 296 -98t101 -256q0 -76 -27.5 -143t-70.5 -115t-86.5 -87t-86.5 -77.5t-60 -67.5t-17 -156q-34 -22 -94 -29t-111 3q-32 118 -32 205q0 32 24 66t60.5 62t79 61.5t79 64t60.5 69.5t24 78q0 95 -59 165.5t-148 70.5 q-33 0 -73 -7q-30 -116 -37 -211q-82 -23 -150 -10q-37 154 -37 305zM229 117q0 56 43.5 94.5t106.5 38.5q61 0 104 -38.5t43 -94.5q0 -58 -43 -102t-104 -44q-62 0 -106 44t-44 102z" />
<glyph unicode="@" horiz-adv-x="1914" d="M76 393q0 198 73 372.5t202.5 302t318.5 201.5t411 74q170 0 316 -63t244 -168t153 -243t55 -287q0 -272 -163 -441.5t-418 -169.5q-40 0 -75 45.5t-56 116.5q-144 -162 -279 -162q-109 0 -186.5 68t-113.5 178.5t-36 251.5q0 225 127 381t295 156q221 0 420 -113v-590 q0 -81 6 -149q65 0 130 34t87 72q60 103 60 252q0 187 -80.5 336.5t-228.5 235t-337 85.5q-127 0 -270.5 -50t-193.5 -95q-236 -227 -236 -553q0 -195 80.5 -352t222 -245.5t316.5 -88.5q103 0 173.5 11.5t170.5 43.5q48 -42 45 -114q-200 -119 -455 -119q-161 0 -304.5 59 t-247.5 161.5t-165 249.5t-61 316zM766 526q0 -149 46 -257.5t122 -108.5q66 0 184 125v497q-81 49 -155 49q-45 0 -77 -9.5t-42 -22.5q-33 -41 -55.5 -117t-22.5 -156z" />
<glyph unicode="A" horiz-adv-x="1435" d="M10 123q67 7 164 39l420 1188q101 32 237 32l441 -1220q74 -8 151 -39q1 -11 1 -22q0 -55 -13 -103q-70 4 -287 4q-59 0 -159.5 -2t-143.5 -2q-16 55 -16 125l194 37l-92 256q-182 10 -313 10h-141l-91 -266l181 -37v-20q0 -53 -13 -105q-74 4 -262 4q-46 0 -126 -2 t-115 -2q-17 58 -17 125zM504 580h346l-137 387l-8 186h-5z" />
<glyph unicode="B" horiz-adv-x="1253" d="M45 123q75 8 178 39q10 49 10 160v606q0 155 -10 282q-103 31 -178 39q0 70 16 125q41 0 139 -2t158 -2q84 0 215 5t177 5q152 0 253 -91t101 -226q0 -89 -47 -168t-154 -131q147 -36 226 -122.5t79 -195.5q0 -82 -36.5 -162.5t-102 -145.5t-167.5 -105.5t-222 -40.5 q-48 0 -151 5t-171 5q-60 0 -158 -2t-139 -2q-16 55 -16 125zM487 170h136q69 0 125 6.5t82 14t34 14.5q80 66 80 198q0 106 -83.5 168t-225.5 62h-148v-463zM487 801h101q128 0 189 57.5t61 140.5q0 87 -54 147t-133 60q-5 0 -164 -6v-399z" />
<glyph unicode="C" horiz-adv-x="1232" d="M70 662q0 107 27.5 212t85.5 200.5t138.5 169t194.5 116.5t246 43q221 0 389 -60q0 -220 -47 -385q-25 -4 -50 -4q-51 0 -98 17q-5 95 -26 225q-73 12 -207 12q-69 0 -140.5 -16.5t-97.5 -38.5q-29 -25 -60 -74t-60 -141t-29 -193q0 -123 25.5 -226t76.5 -183.5 t137.5 -126t200.5 -45.5q103 0 180 18q20 127 29 250q49 16 100 16q26 0 52 -4q30 -158 30 -399q-214 -76 -440 -76q-161 0 -288 54t-207 149t-121 219.5t-41 270.5z" />
<glyph unicode="D" horiz-adv-x="1398" d="M45 123q75 8 178 39q10 49 10 125v641q0 155 -10 282q-103 31 -178 39q0 70 16 125q41 0 139 -2t158 -2q72 0 208 5t196 5q135 0 243 -50.5t178.5 -141t108 -214t37.5 -269.5q0 -134 -46 -261.5t-127 -228t-203.5 -162t-264.5 -61.5q-42 0 -151 5t-179 5q-60 0 -158 -2 t-139 -2q-16 55 -16 125zM487 170h179q71 0 147 16t102 37q148 117 148 400q0 88 -14.5 171t-46 158t-76.5 131.5t-110 89.5t-142 33q-69 0 -187 -4v-1032z" />
<glyph unicode="E" horiz-adv-x="1202" d="M45 123q75 8 178 39q10 49 10 125v641q0 152 -10 282q-103 31 -178 39q0 70 16 125q41 0 139 -2t158 -2h236q354 0 481 4l23 -22q1 -36 1 -70q0 -177 -26 -307q-42 -9 -79.5 -9t-71.5 9q-9 119 -33 225h-402v-416l387 11l23 -21q-4 -101 -23 -160l-387 11v-453h428 q45 127 74 252q23 4 46 4q50 0 104 -16q0 -174 -23 -392l-20 -22q-127 4 -482 4h-252q-61 0 -160.5 -2t-140.5 -2q-16 55 -16 125z" />
<glyph unicode="F" horiz-adv-x="1114" d="M45 123q75 8 178 39q10 49 10 160v606q0 155 -10 282q-103 31 -178 39q0 70 16 125q41 0 140 -2t159 -2h236q354 0 481 4l21 -22q1 -39 1 -76q0 -180 -24 -326q-42 -9 -80.5 -9t-72.5 9q-6 125 -31 250h-404v-444l392 10l20 -21q-4 -100 -20 -159l-392 10v-264 q0 -90 9 -170q109 -8 223 -39v-20q0 -57 -14 -105q-86 4 -343 4q-61 0 -160 -2t-141 -2q-16 55 -16 125z" />
<glyph unicode="G" horiz-adv-x="1386" d="M70 662q0 107 27.5 212t86 201t140.5 168.5t199.5 116t254.5 43.5q227 0 398 -60v-23q0 -190 -48 -349q-28 -4 -54 -4q-52 0 -97 16q-7 127 -27 217q-82 12 -207 12q-80 0 -153.5 -16.5t-100.5 -38.5q-21 -19 -45 -52.5t-49.5 -84t-42 -123.5t-16.5 -152q0 -125 26 -230 t78 -187t138.5 -128t199.5 -46q78 0 166 12v37q0 155 -10 282q-109 31 -201 39q0 69 19 125q39 0 134.5 -2t162.5 -2q225 0 282 4q13 -48 13 -103q0 -11 -1 -22q-73 -31 -147 -39q-8 -91 -8 -307v-96q-281 -113 -512 -113q-146 0 -263 54t-191 149t-113 220t-39 270z" />
<glyph unicode="H" horiz-adv-x="1572" d="M45 123q75 8 178 39q10 49 10 153v613q0 155 -10 282q-103 31 -178 39q0 70 16 125q41 0 139 -2t158 -2q219 0 291 4q13 -52 13 -105v-20q-84 -31 -166 -39q-9 -123 -9 -311v-100h603v129q0 143 -11 282q-103 31 -178 39q0 67 17 125q41 0 138.5 -2t157.5 -2q219 0 291 4 q13 -52 13 -105v-20q-84 -31 -166 -39q-9 -123 -9 -311v-567q0 -90 9 -170q82 -8 166 -39v-20q0 -53 -13 -105q-72 4 -291 4q-60 0 -157.5 -2t-138.5 -2q-17 58 -17 125q75 8 178 39q11 67 11 153v303q-253 15 -402 15h-201v-301q0 -90 9 -170q82 -8 166 -39v-20 q0 -53 -13 -105q-72 4 -291 4q-60 0 -158 -2t-139 -2q-16 55 -16 125z" />
<glyph unicode="I" horiz-adv-x="718" d="M45 123q75 8 178 39q10 49 10 125v641q0 155 -10 282q-103 31 -178 39q0 70 16 125q41 0 139 -2t158 -2q219 0 291 4q13 -52 13 -105v-20q-84 -31 -166 -39q-9 -114 -9 -282v-596q0 -90 9 -170q82 -8 166 -39v-20q0 -53 -13 -105q-72 4 -291 4q-60 0 -158 -2t-139 -2 q-16 55 -16 125z" />
<glyph unicode="J" horiz-adv-x="671" d="M-111 -313q163 63 242.5 160t79.5 257v824q0 155 -10 282q-103 31 -178 39q0 70 16 125q41 0 139.5 -2t159.5 -2q217 0 289 4q13 -48 13 -103q0 -11 -1 -22q-84 -31 -166 -39q-8 -101 -8 -282v-852q0 -242 -141.5 -369t-395.5 -147q-40 45 -40 109q0 9 1 18z" />
<glyph unicode="K" horiz-adv-x="1415" d="M45 123q75 8 178 39q10 49 10 153v613q0 155 -10 282q-103 31 -178 39q0 70 16 125q41 0 139 -2t158 -2q219 0 291 4q13 -52 13 -105v-20q-84 -31 -166 -39q-9 -123 -9 -311v-186l476 499l-172 35q0 72 16 127q44 0 134.5 -2t139.5 -2q197 0 265 4q12 -48 12 -103v-22 q-81 -31 -154 -39l-393 -401l426 -647q93 -13 162 -39v-21q0 -56 -13 -106q-80 4 -253 4h-111l-395 618l-140 -141v-145q0 -90 9 -170q82 -8 166 -39v-20q0 -53 -13 -105q-72 4 -291 4q-60 0 -158 -2t-139 -2q-16 55 -16 125z" />
<glyph unicode="L" horiz-adv-x="1161" d="M45 123q75 8 178 39q10 49 10 125v641q0 155 -10 282q-103 31 -178 39q0 70 16 125q43 0 144.5 -2t163.5 -2q254 0 336 4q14 -48 14 -105v-20q-115 -31 -223 -39q-9 -114 -9 -282v-756h428q45 149 74 291q23 4 48 4q48 0 106 -16q0 -198 -23 -431l-22 -22q-127 4 -482 4 h-258q-60 0 -158 -2t-139 -2q-16 55 -16 125z" />
<glyph unicode="M" horiz-adv-x="1892" d="M25 123q80 8 180 41l100 1046q-111 32 -182 39q0 70 16 125q40 0 129 -2t140 -2q164 0 272 -6l242 -850l6 -215h6l289 1065q111 6 247 6q217 0 287 4q13 -48 13 -103q0 -11 -1 -22q-85 -31 -167 -39l96 -1048q86 -8 170 -39v-20q0 -53 -13 -105q-70 4 -286 4 q-59 0 -155 -2t-136 -2q-16 55 -16 125l180 39l-78 827l8 209h-6l-332 -1175q-104 -33 -237 -33l-281 999l-20 209h-7l-98 -1034l168 -41q1 -11 1 -22q0 -55 -13 -103q-72 4 -268 4q-37 0 -117 -2t-121 -2q-16 55 -16 125z" />
<glyph unicode="N" horiz-adv-x="1525" d="M45 123q75 8 178 39q10 49 10 125v641q0 155 -10 282q-103 31 -178 39q0 70 16 125q43 0 136 -2t141 -2q146 0 207 -8l528 -905l51 -209h6v680q0 155 -10 282q-103 31 -178 39q0 70 16 125q44 0 135 -2t134 -2q184 0 256 4q13 -48 13 -103q0 -11 -1 -22q-84 -31 -166 -39 q-8 -101 -8 -282v-905q-139 -33 -281 -33l-559 956l-51 209h-6v-823q0 -99 8 -170q82 -8 166 -39v-22q0 -55 -12 -103q-72 4 -260 4q-42 0 -131 -2t-134 -2q-16 55 -16 125z" />
<glyph unicode="O" horiz-adv-x="1417" d="M70 662q0 107 29 213.5t86 202.5t135 170t184 117.5t225 43.5q194 0 336 -93t212.5 -249.5t70.5 -355.5q0 -107 -29 -214.5t-86.5 -203t-135 -169.5t-183.5 -117.5t-224 -43.5q-149 0 -268 54t-195 149t-116.5 221.5t-40.5 274.5zM336 745q0 -120 24 -223.5t71.5 -186 t129 -130t187.5 -47.5q53 0 115 20.5t83 42.5q56 62 95.5 166t39.5 240q0 121 -23.5 224t-70.5 185.5t-128 130t-187 47.5q-54 0 -116 -20t-85 -43q-56 -62 -95.5 -166t-39.5 -240z" />
<glyph unicode="P" horiz-adv-x="1200" d="M45 123q75 8 178 39q10 49 10 125v641q0 155 -10 282q-103 31 -178 39q0 70 16 125q41 0 139 -2t158 -2q74 0 209.5 5t184.5 5q102 0 182 -31.5t129 -85.5t74.5 -122.5t25.5 -147.5q0 -90 -42.5 -180.5t-113 -160.5t-168.5 -114t-202 -44q-90 0 -150 8v-170q0 -90 9 -170 q109 -8 223 -39v-20q0 -57 -14 -105q-86 4 -343 4q-61 0 -160 -2t-141 -2q-16 55 -16 125zM487 678q39 -4 127 -4q45 0 94 10.5t77 21.5t34 17q78 68 78 221q0 65 -21.5 122t-73 98.5t-124.5 41.5q-69 0 -191 -4v-524z" />
<glyph unicode="Q" horiz-adv-x="1417" d="M70 662q0 107 29 213.5t86 202.5t135 170t184 117.5t225 43.5q194 0 336 -93t212.5 -249.5t70.5 -355.5q0 -156 -58.5 -304.5t-173.5 -263.5t-264 -157q144 -170 334 -170q62 0 114 8q29 -42 29 -94q0 -21 -4 -43q-137 -58 -352 -58q-82 0 -179.5 87.5t-224.5 256.5 q-160 27 -274 125t-169.5 242.5t-55.5 321.5zM336 745q0 -120 24 -223.5t71.5 -186t129 -130t187.5 -47.5q53 0 115 20.5t83 42.5q56 62 95.5 166t39.5 240q0 121 -23.5 224t-70.5 185.5t-128 130t-187 47.5q-54 0 -116 -20t-85 -43q-56 -62 -95.5 -166t-39.5 -240z" />
<glyph unicode="R" horiz-adv-x="1327" d="M45 123q75 8 178 39q10 49 10 160v606q0 155 -10 282q-103 31 -178 39q0 70 16 125q41 0 139 -2t158 -2q73 0 208 5t186 5q102 0 182.5 -28.5t129 -77.5t74 -109.5t25.5 -128.5q0 -116 -71.5 -225t-188.5 -174l236 -475q98 -12 170 -39v-21q0 -56 -13 -106q-82 4 -256 4 h-116l-269 565h-10q-70 0 -158 10v-243q0 -90 9 -170q82 -8 166 -39v-20q0 -53 -13 -105q-72 4 -291 4q-60 0 -158 -2t-139 -2q-16 55 -16 125zM487 748q49 -5 125 -5q45 0 92.5 9t75 18t33.5 14q82 63 82 193q0 97 -57.5 163t-159.5 66q-69 0 -191 -4v-454z" />
<glyph unicode="S" horiz-adv-x="1110" d="M66 66q6 201 49 376q28 8 58 8q45 0 93 -18q6 -113 27 -244q91 -36 242 -36q56 0 108.5 16.5t65.5 26.5q59 56 59 172q0 123 -209 206l-156 62q-63 25 -110.5 52t-97 70t-76.5 104t-27 136q0 85 29 155t76.5 115.5t111.5 77t131 45t138 13.5q99 0 213.5 -21t201.5 -57 q-3 -192 -37 -334q-38 -9 -70 -9q-46 0 -79 19q-6 100 -27 195q-88 27 -217 27q-49 0 -97.5 -9.5t-59.5 -17.5q-52 -45 -52 -129q0 -37 18.5 -69.5t52 -57.5t64.5 -42t72 -34l172 -71q301 -121 301 -355q0 -97 -34.5 -182.5t-96.5 -149.5t-155 -100.5t-205 -36.5 q-139 0 -267.5 26.5t-209.5 70.5z" />
<glyph unicode="T" horiz-adv-x="1294" d="M27 1354l20 20q127 -4 481 -4h236q354 0 481 4l23 -20q1 -33 1 -64q0 -191 -26 -354q-44 -9 -81.5 -9t-69.5 9q-5 119 -33 264h-285v-868q0 -99 8 -170q108 -8 222 -39v-19q0 -56 -15 -106q-86 4 -344 4q-71 0 -186.5 -2t-163.5 -2q-21 54 -21 125q94 7 236 39 q10 49 10 125v913h-287q-25 -148 -30 -264q-37 -10 -75.5 -10t-78.5 10q-24 162 -24 329q0 44 2 89z" />
<glyph unicode="U" horiz-adv-x="1443" d="M12 1249q0 67 17 125q41 0 138.5 -2t158.5 -2q216 0 288 4q13 -52 13 -105v-20q-84 -31 -166 -39q-6 -76 -6 -282v-365q0 -217 73.5 -317.5t239.5 -100.5q68 0 130 22.5t85 47.5q16 19 30.5 47t30 93.5t15.5 144.5v428q0 155 -10 282q-102 31 -179 39q0 67 17 125 q43 0 134 -2t140 -2q182 0 254 4q13 -48 13 -103q0 -11 -1 -22q-85 -31 -165 -39q-9 -114 -9 -282v-385q0 -127 -31.5 -230t-97 -182.5t-175.5 -123.5t-257 -44q-245 0 -368 122.5t-123 393.5v449q0 143 -11 282q-103 31 -178 39z" />
<glyph unicode="V" horiz-adv-x="1435" d="M8 1249q0 67 17 125q41 0 138.5 -2t158.5 -2q218 0 290 4q13 -52 13 -105v-20l-181 -37l283 -796l10 -197h6l338 993l-194 37q0 68 14 125q39 0 126 -2t134 -2q185 0 248 4q11 -50 11 -101q0 -12 -1 -24q-77 -31 -151 -39l-420 -1187q-104 -33 -238 -33l-438 1220 q-97 32 -164 39z" />
<glyph unicode="W" horiz-adv-x="2015" d="M8 1249q0 67 17 125q41 0 138.5 -2t155.5 -2q219 0 291 4q13 -52 13 -105v-20l-183 -37l199 -786l8 -205h4l281 1131q102 30 248 30l237 -954l6 -205h7l235 994l-192 34q0 61 12 123q39 0 125 -2t133 -2q183 0 246 4q11 -50 11 -101q0 -12 -1 -24q-77 -31 -152 -39 l-305 -1187q-104 -33 -266 -33l-223 854l-13 219h-6l-262 -1040q-46 -15 -125.5 -24t-148.5 -9l-326 1220q-97 32 -164 39z" />
<glyph unicode="X" horiz-adv-x="1390" d="M6 123q72 7 176 39l359 530l-359 518q-97 32 -164 39q0 67 17 125q41 0 142 -2t165 -2q231 0 307 4q13 -51 13 -125l-166 -37l247 -358l238 358l-164 35q0 70 14 127q38 0 121.5 -2t128.5 -2q185 0 248 4q11 -50 11 -101q0 -12 -1 -24q-77 -31 -151 -39l-344 -501 l381 -547q72 -8 153 -39v-22q0 -55 -12 -103q-74 4 -309 4q-66 0 -169.5 -2t-144.5 -2q-16 55 -16 125l184 37l-268 385l-254 -385l160 -37q1 -11 1 -22q0 -55 -13 -103q-72 4 -261 4q-46 0 -129.5 -2t-123.5 -2q-17 58 -17 125z" />
<glyph unicode="Y" horiz-adv-x="1359" d="M8 1247q0 66 17 127q42 0 145 -2t168 -2q225 0 299 4q13 -48 13 -103q0 -11 -1 -22l-176 -37l264 -487l256 487l-186 37q0 68 14 125q38 0 125 -2t137 -2q189 0 250 4q13 -52 13 -105v-20q-77 -31 -152 -39l-383 -704v-174q0 -99 8 -170q107 -8 221 -39v-20 q0 -57 -14 -105q-84 4 -344 4q-71 0 -186.5 -2t-163.5 -2q-19 56 -19 125q92 7 234 39q10 49 10 125v211l-385 710q-97 32 -164 39z" />
<glyph unicode="Z" horiz-adv-x="1220" d="M51 162l723 1038h-469q-26 -136 -33 -225q-40 -10 -78 -9.5t-73 9.5q-26 132 -26 309q0 34 1 70l23 20q127 -4 481 -4h442q56 -71 70 -160l-729 -1038h539q42 119 73 252q22 4 46 4q50 0 106 -16q0 -175 -23 -394l-22 -20q-127 4 -481 4h-543q-28 70 -28 136q0 12 1 24z " />
<glyph unicode="[" horiz-adv-x="786" d="M225 -408v2130l21 21q298 -6 493 -6q15 -79 0 -158q-112 -16 -288 -20v-1803q176 -4 288 -20q12 -79 0 -158q-185 0 -493 -6z" />
<glyph unicode="\" horiz-adv-x="892" d="M61 1368q84 59 189 74l602 -1583q-79 -55 -190 -70z" />
<glyph unicode="]" horiz-adv-x="786" d="M47 -264q112 16 289 20v1803q-177 4 -289 20q-15 79 0 158q196 0 494 6l20 -21v-2130l-20 -20q-307 6 -494 6q-12 79 0 158z" />
<glyph unicode="^" horiz-adv-x="1040" d="M117 858l334 508q61 12 131 12l342 -520q-48 -72 -129 -96l-281 358l-283 -358q-81 28 -114 96z" />
<glyph unicode="_" horiz-adv-x="1024" d="M0 -102h1024v-156h-1024v156z" />
<glyph unicode="`" horiz-adv-x="849" d="M117 1452l14 45q97 54 225 51l217 -381q-29 -68 -108 -80z" />
<glyph unicode="a" horiz-adv-x="1056" d="M63 223q0 80 52 149t139 117t178 80.5t191 53.5q-3 111 -35 169t-109 58q-85 0 -139 -12q-16 -56 -16 -158q-56 -27 -108 -27q-25 0 -48 6q-59 97 -59 236q190 111 415 111q44 0 85 -6.5t90 -28t85 -56t60 -96.5t24 -143v-369q0 -81 9 -149q45 6 131 26q36 -32 36 -82 q-56 -56 -130.5 -93.5t-143.5 -37.5q-35 0 -68 38.5t-55 101.5q-78 -64 -161.5 -102t-153.5 -38q-127 0 -198 65.5t-71 186.5zM317 287q0 -54 36 -90.5t102 -36.5q73 0 168 71v230q-91 -12 -169 -31t-96 -33t-29.5 -47t-11.5 -63z" />
<glyph unicode="b" horiz-adv-x="1148" d="M-2 1495q181 64 403 74l21 -21q-8 -273 -8 -590v-55q137 98 293 98q167 0 269.5 -134.5t102.5 -360.5q0 -128 -55.5 -250.5t-158.5 -203.5t-226 -81q-159 0 -309 103q-97 -89 -158 -115q-60 15 -78 68q74 112 74 239v1090q-97 26 -162 33q-11 37 -11 72q0 17 3 34z M414 240q47 -42 106.5 -68.5t116.5 -26.5q31 0 62.5 12t41.5 25q38 49 62 120.5t24 148.5q0 97 -24 179.5t-75 136.5t-120 54q-79 0 -194 -61v-520z" />
<glyph unicode="c" horiz-adv-x="952" d="M70 473q0 75 21 150.5t62.5 143.5t98 120t133 83t162.5 31q195 0 344 -69q-6 -191 -53 -299q-42 -11 -78 -11q-46 0 -80 19q-4 117 -12 176q-48 10 -129 10q-40 0 -80 -8t-56 -24q-37 -42 -60.5 -114.5t-23.5 -150.5q0 -64 13 -124.5t41.5 -118t81.5 -92.5t125 -35 q114 0 284 69q39 -36 45 -106q-76 -61 -188 -106.5t-211 -45.5q-113 0 -198.5 38.5t-137.5 107.5t-78 158.5t-26 197.5z" />
<glyph unicode="d" horiz-adv-x="1167" d="M70 469q0 110 37.5 209.5t98.5 169.5t141.5 111.5t164.5 41.5q99 0 211 -49v404q-108 26 -178 33q-12 35 -12 68q0 19 4 38q187 64 419 74l21 -21q-8 -273 -8 -590v-651q0 -81 6 -149q51 7 131 26q37 -29 37 -82q-56 -56 -131 -93.5t-142 -37.5q-41 0 -76 48.5t-55 121.5 q-159 -170 -305 -170q-118 0 -202 68t-123 178.5t-39 251.5zM319 526q0 -149 51 -257.5t136 -108.5q75 0 217 135v498q-97 34 -193 34q-97 0 -124 -30q-36 -41 -61.5 -117.5t-25.5 -153.5z" />
<glyph unicode="e" horiz-adv-x="999" d="M70 467q0 132 59 255.5t168.5 204.5t241.5 81q87 0 155 -24.5t110 -63.5t69.5 -92t38 -105t10.5 -107q0 -74 -15 -118l-22 -21q-238 4 -428 4h-140q5 -60 21.5 -114t46 -102t80.5 -76.5t117 -28.5q119 0 297 71q39 -33 45 -104q-81 -63 -195.5 -109.5t-214.5 -46.5 q-113 0 -200 38.5t-139.5 106.5t-78.5 156.5t-26 194.5zM322 614h106q157 0 246 7q0 48 -7 84.5t-24.5 69t-52.5 50t-86 17.5q-25 0 -57.5 -10.5t-45.5 -24.5q-63 -80 -79 -193z" />
<glyph unicode="f" horiz-adv-x="776" d="M53 117q89 9 164 35q8 60 8 114v551q-59 17 -149 27q-12 35 -12 72q0 21 4 42q92 24 157 29v14q0 254 125.5 411t319.5 157q150 0 297 -68q-3 -178 -54 -303q-39 -9 -72 -9q-46 0 -81 17q0 94 -12 180q-53 11 -95 11q-40 0 -72.5 -11.5t-43.5 -23.5q-27 -38 -46.5 -134 t-19.5 -222v-25l248 -2q0 -91 -8 -162h-240v-510q0 -79 6 -153q137 -7 242 -37q0 -85 -12 -119q-226 4 -355 4q-64 0 -155 -2t-129 -2q-15 38 -15 119z" />
<glyph unicode="g" horiz-adv-x="1069" d="M37 -266q0 162 203 278q-25 29 -25 82q0 86 111 207q-111 29 -173.5 107.5t-62.5 203.5q0 71 28 139t81 124.5t138.5 91t190.5 34.5q125 0 213 -43q86 96 238 172q78 -51 94 -163q-70 -35 -229 -84q74 -86 74 -211q0 -72 -28 -139.5t-81 -123.5t-142 -90t-200 -34h-14 q-21 -37 -21 -74t8 -45q12 -14 207 -14q165 0 264 -74.5t99 -200.5q0 -207 -150.5 -316.5t-423.5 -109.5q-86 0 -156 18t-114 46.5t-74 66.5t-42.5 76t-12.5 76zM264 -205q0 -70 56.5 -120t179.5 -50q164 0 241 49q17 11 32 56.5t15 89.5q0 129 -247 129q-130 0 -205 16 q-72 -78 -72 -170zM322 666q0 -93 51 -156.5t131 -63.5q33 0 67.5 8.5t46.5 16.5q25 16 46.5 67t21.5 101q0 77 -54 139t-140 62q-30 0 -63.5 -6.5t-45.5 -14.5q-25 -21 -43 -64.5t-18 -88.5z" />
<glyph unicode="h" horiz-adv-x="1245" d="M27 117q87 9 163 35q9 67 9 114v1090q-97 26 -162 33q-12 35 -12 68q0 19 4 38q181 64 401 74l23 -21q-9 -308 -9 -594v-28q157 82 310 82q132 0 218.5 -81.5t86.5 -240.5v-379q0 -79 6 -153q93 -10 154 -37q0 -85 -15 -119q-106 4 -262 4q-56 0 -138.5 -2t-113.5 -2 q-12 30 -12 119q79 15 127 35q8 60 8 114v316q0 60 -6 100t-23.5 75.5t-53 52.5t-89.5 17q-102 0 -197 -39v-481q0 -67 7 -153q84 -10 143 -37q0 -85 -12 -119q-106 4 -256 4q-65 0 -158 -2t-127 -2q-14 35 -14 119z" />
<glyph unicode="i" horiz-adv-x="684" d="M61 117q80 8 164 37q8 55 8 112v529q-91 24 -161 32q-12 40 -12 75q0 16 3 32q181 64 402 74l22 -21q-8 -273 -8 -590v-90q0 -79 6 -153q92 -10 154 -37q0 -85 -12 -119q-110 4 -267 4q-65 0 -157.5 -2t-126.5 -2q-15 38 -15 119zM180 1276q0 68 52 130t118 62 q58 0 104 -38.5t46 -96.5q0 -70 -51 -130t-121 -60q-54 0 -101 39t-47 94z" />
<glyph unicode="j" horiz-adv-x="618" d="M-12 -449q105 78 161 199t56 305v740q-90 24 -162 32q-11 38 -11 73q0 17 3 34q181 64 403 74l21 -21q-8 -320 -8 -606v-354q0 -129 -35 -230t-96 -166t-129.5 -105t-151.5 -63q-51 26 -51 88zM152 1276q0 68 52 130t120 62q57 0 102 -38.5t45 -96.5q0 -70 -51 -130 t-121 -60q-54 0 -100.5 39t-46.5 94z" />
<glyph unicode="k" horiz-adv-x="1232" d="M27 117q87 9 163 35q9 67 9 114v1090q-97 26 -162 33q-12 35 -12 68q0 19 4 38q181 64 401 74l23 -21q-9 -308 -9 -590v-380l162 53l176 196l-141 35q0 73 16 119q29 0 131.5 -2t174.5 -2q70 0 188 4q12 -37 12 -117q-96 -34 -159 -41l-236 -256q123 -233 223 -348 q41 -46 72.5 -64t81.5 -18q33 0 63 6q25 -40 25 -81q0 -12 -2 -23q-36 -21 -126 -41.5t-169 -20.5q-173 0 -356 496l-136 -33v-133q0 -67 7 -153q90 -10 153 -37q0 -85 -12 -119q-110 4 -266 4q-65 0 -158 -2t-127 -2q-14 35 -14 119z" />
<glyph unicode="l" horiz-adv-x="641" d="M27 117q87 9 163 35q9 67 9 114v1090q-97 26 -162 33q-12 35 -12 68q0 19 4 38q181 64 401 74l23 -21q-9 -308 -9 -590v-651q0 -67 7 -153q90 -10 153 -37q0 -85 -12 -119q-110 4 -270 4q-62 0 -154.5 -2t-126.5 -2q-14 35 -14 119z" />
<glyph unicode="m" horiz-adv-x="1820" d="M61 117q89 9 164 35q8 60 8 114v525q-73 22 -161 32q-13 38 -13 72q0 19 4 37q159 59 343 74l26 -17q15 -44 29 -100q143 119 297 119q184 0 258 -140q158 140 321 140q135 0 217 -81t82 -241v-379q0 -79 6 -153q93 -10 154 -37q0 -87 -14 -119q-106 4 -264 4 q-55 0 -137.5 -2t-114.5 -2q-11 37 -11 119q74 14 127 35q9 67 9 114v316q0 59 -5.5 99t-20.5 75.5t-45.5 53t-78.5 17.5q-98 0 -190 -61q6 -38 6 -80v-379q0 -55 4 -153q68 -13 115 -37q0 -82 -13 -119q-94 4 -225 4q-56 0 -136.5 -2t-105.5 -2q-14 35 -14 119 q75 17 121 35q8 60 8 114v316q0 47 -3 80t-12 66.5t-25 53.5t-43.5 32.5t-65.5 12.5q-93 0 -183 -55v-465q0 -79 6 -153q72 -10 121 -37q0 -81 -10 -119q-98 4 -236 4q-65 0 -157.5 -2t-126.5 -2q-15 38 -15 119z" />
<glyph unicode="n" horiz-adv-x="1280" d="M61 117q89 9 164 35q8 60 8 114v525q-73 22 -161 32q-13 39 -13 73q0 19 4 36q159 59 343 74l26 -17q17 -50 31 -106q159 125 325 125q133 0 219.5 -81.5t86.5 -240.5v-379q0 -79 6 -153q91 -10 153 -37q0 -87 -14 -119q-106 4 -262 4q-56 0 -138.5 -2t-113.5 -2 q-12 40 -12 119q79 15 127 35q8 60 8 114v316q0 59 -6 99t-23.5 75.5t-53 53t-89.5 17.5q-89 0 -197 -67v-453q0 -79 6 -153q85 -10 144 -37q0 -82 -13 -119q-106 4 -256 4q-65 0 -157.5 -2t-126.5 -2q-15 38 -15 119z" />
<glyph unicode="o" horiz-adv-x="1087" d="M70 473q0 96 33.5 190t93.5 171.5t154.5 125.5t205.5 48q153 0 258.5 -66.5t154 -177.5t48.5 -258q0 -96 -33.5 -190t-94 -171.5t-155 -125.5t-205.5 -48q-224 0 -342 137.5t-118 364.5zM319 526q0 -64 13.5 -127.5t41 -122t77 -95t114.5 -36.5q33 0 69 9t48 26 q38 45 62 117.5t24 155.5q0 64 -13.5 127.5t-41 122t-77 95t-114.5 36.5q-33 0 -68.5 -8.5t-47.5 -24.5q-38 -45 -62.5 -118.5t-24.5 -156.5z" />
<glyph unicode="p" horiz-adv-x="1183" d="M33 -395q89 9 164 35q8 60 8 114v1037q-72 22 -162 32q-12 38 -12 72q0 19 4 37q160 59 342 74l26 -17l27 -94q141 113 311 113q167 0 270 -135t103 -361q0 -128 -55.5 -250.5t-158.5 -203.5t-226 -81q-112 0 -223 68v-250q0 -79 6 -153q130 -7 241 -37q0 -81 -12 -119 q-226 4 -354 4q-64 0 -155.5 -2t-129.5 -2q-14 40 -14 119zM451 246q46 -42 105.5 -68t117.5 -26q31 0 61.5 11.5t40.5 24.5q40 49 64 120.5t24 148.5q0 97 -24 179.5t-75 136.5t-120 54q-79 0 -194 -61v-520z" />
<glyph unicode="q" horiz-adv-x="1138" d="M70 473q0 112 37.5 212.5t99 170.5t141.5 111t164 41q75 0 155.5 -28t141.5 -71q95 88 160 111q56 -14 73 -66q-73 -112 -73 -266v-893q0 -79 6 -153q90 -10 153 -37q0 -81 -12 -119q-140 4 -264 4q-61 0 -177.5 -2t-166.5 -2q-14 40 -14 119q126 10 221 35q8 60 8 114 v297q-159 -74 -289 -74q-118 0 -202 68t-123 178t-39 250zM319 530q0 -97 22 -178t68.5 -133.5t110.5 -52.5q82 0 203 31v602q-100 35 -188 35q-100 0 -129 -33q-36 -42 -61.5 -117.5t-25.5 -153.5z" />
<glyph unicode="r" horiz-adv-x="964" d="M61 117q89 9 164 35q8 60 8 114v525q-73 22 -161 32q-13 39 -13 73q0 19 4 36q159 59 345 74l24 -17q27 -68 45 -170q129 182 289 182q104 0 180 -28q0 -233 -39 -375q-40 -14 -78.5 -14t-74.5 14q-14 143 -29 211q-14 2 -43 2q-111 0 -203 -156v-348q0 -79 6 -153 q154 -11 242 -37q0 -87 -14 -119q-148 4 -351 4q-65 0 -158.5 -2t-127.5 -2q-15 38 -15 119z" />
<glyph unicode="s" horiz-adv-x="899" d="M70 35q0 160 39 307q34 12 70.5 12t74.5 -12q2 -70 18 -186q55 -25 160 -25q90 0 122 26t32 91q0 47 -32.5 77t-98.5 58q-21 9 -61 24.5t-63 25t-58 26.5t-56 31.5t-45.5 37t-38 46.5t-22.5 56.5t-9 69.5q0 65 23 117.5t60.5 86t87.5 56t102.5 32t107.5 9.5 q208 0 332 -38q0 -152 -39 -277q-36 -9 -69 -9q-40 0 -76 13q-10 86 -33 156q-43 16 -104 16q-54 0 -87.5 -7.5t-47.5 -24t-17.5 -30t-3.5 -36.5q0 -37 27 -66t70.5 -49.5t96 -40.5t105.5 -46t96.5 -58t70.5 -83t27 -116q0 -158 -114 -243t-297 -85q-212 0 -350 58z" />
<glyph unicode="t" horiz-adv-x="784" d="M31 958q79 24 159 29l97 281q16 1 33 1q57 0 114 -16v-272l324 -2q1 -19 1 -37q0 -67 -9 -125h-316v-448q0 -215 96 -215q90 0 199 41q41 -41 41 -108v-9q-66 -45 -159 -76t-191 -31q-232 0 -232 295v551q-62 17 -149 27q-12 35 -12 72q0 21 4 42z" />
<glyph unicode="u" horiz-adv-x="1241" d="M27 862q0 72 14 119q34 0 125.5 -2t159.5 -2h90l20 -21q-4 -190 -4 -544q0 -250 137 -250q86 0 219 127v530q-67 27 -153 43q0 72 14 119q35 0 124.5 -2t156.5 -2h88l22 -21q-6 -174 -6 -542v-107q0 -89 8 -149q47 6 132 26q36 -32 36 -82q-56 -56 -131 -93.5t-143 -37.5 q-40 0 -74.5 46.5t-54.5 117.5q-153 -164 -322 -164q-141 0 -220 85.5t-79 250.5v512q-65 26 -159 43z" />
<glyph unicode="v" horiz-adv-x="1159" d="M25 862q0 68 14 119q24 0 96 -2t119 -2q25 0 121.5 2t171.5 2q12 -36 12 -81q0 -18 -2 -38l-137 -37l166 -471l2 -170h6l219 643l-143 35q0 73 16 119q34 0 121.5 -2t144.5 -2q50 0 172 4q13 -45 13 -89q0 -15 -2 -30q-51 -25 -125 -35l-297 -804q-125 -33 -252 -33 l-309 837q-47 23 -127 35z" />
<glyph unicode="w" horiz-adv-x="1708" d="M25 862q0 68 14 119q24 0 95 -2t114 -2q35 0 129.5 2t157.5 2q12 -36 12 -81q0 -18 -2 -38l-142 -37l136 -471l4 -170h6l190 777q104 28 289 28l150 -635l4 -170h6l182 643l-143 35q0 73 16 119q34 0 119.5 -2t142.5 -2q54 0 168 4q14 -44 14 -90q0 -14 -1 -29 q-51 -25 -125 -35l-256 -804q-122 -33 -275 -33l-141 606l-6 176h-6l-187 -749q-122 -33 -270 -33l-273 837q-58 25 -122 35z" />
<glyph unicode="x" horiz-adv-x="1185" d="M20 117q84 11 148 35l272 362l-250 313q-50 21 -145 35q0 68 14 119q25 0 105 -2t125 -2q29 0 64 0.5t96 1.5t116 2q12 -36 12 -81q0 -18 -2 -38l-98 -31l170 -213l150 209l-109 35q0 70 17 119q28 0 108.5 -2t140.5 -2t162 4q14 -42 14 -88q0 -15 -2 -31 q-53 -25 -131 -35l-252 -331l275 -344q85 -10 141 -35q1 -16 1 -31q0 -46 -13 -88q-126 4 -201 4q-82 0 -185 -2t-130 -2q-17 49 -17 119l113 35l-188 235l-170 -235l127 -35q1 -13 1 -24q0 -55 -12 -95q-208 4 -231 4q-42 0 -118.5 -2t-102.5 -2q-15 54 -15 119z" />
<glyph unicode="y" horiz-adv-x="1159" d="M25 862q0 68 14 119q24 0 96 -2t119 -2q25 0 121.5 2t171.5 2q12 -36 12 -81q0 -18 -2 -38l-137 -37l166 -471l2 -170h6l219 643l-143 35q0 73 16 119q34 0 121.5 -2t144.5 -2q50 0 172 4q13 -45 13 -89q0 -15 -2 -30q-51 -25 -125 -35l-295 -809q-44 -124 -87.5 -217.5 t-94.5 -170t-109.5 -116.5t-122.5 -40q-146 0 -231 47q-1 9 -1 17q0 67 42 114h28q265 0 367 270l31 78h-80l-305 827q-47 23 -127 35z" />
<glyph unicode="z" horiz-adv-x="1032" d="M72 170l553 661h-332q-26 -109 -33 -190q-40 -8 -75.5 -8t-67.5 8q-17 138 -17 278v42l19 20q125 -4 469 -4h291q47 -73 47 -152l-570 -675h379q44 106 68 223q27 4 54 4q46 0 93 -12q1 -28 1 -58q0 -126 -17 -289l-21 -20q-125 4 -479 4h-325q-37 72 -37 168z" />
<glyph unicode="{" horiz-adv-x="921" d="M135 715q145 78 227 149q11 14 11 90q0 64 -8.5 218.5t-8.5 193.5q0 83 36.5 152.5t102 119.5t148 84.5t182.5 55.5q53 -42 56 -127q-189 -87 -244 -156q-13 -16 -26 -93t-13 -124v-412q0 -55 -56 -101t-161 -95q96 -36 156.5 -86.5t60.5 -106.5v-438q0 -48 13 -122 t26 -91q53 -69 242 -154q15 -86 -56 -135q-100 22 -182.5 58t-147.5 87t-101 122t-36 155q0 41 8.5 187t8.5 204q0 68 -11 82q-91 97 -206 152q-21 64 -21 131z" />
<glyph unicode="|" horiz-adv-x="641" d="M219 -426v2167h203v-2167h-203z" />
<glyph unicode="}" horiz-adv-x="921" d="M41 -336q189 87 244 156q13 16 26 93t13 124v412q0 55 55.5 100.5t159.5 95.5q-95 36 -155 86.5t-60 106.5v438q0 48 -13 122t-26 91q-52 68 -242 153q-15 88 55 136q100 -22 182.5 -58t147.5 -87t101 -122t36 -155q0 -41 -8 -187t-8 -204q0 -69 10 -82q90 -97 207 -152 q20 -61 20 -131q-145 -78 -227 -149q-10 -13 -10 -91q0 -64 8 -218t8 -193q0 -83 -36.5 -152.5t-102 -119.5t-148 -84.5t-182.5 -55.5q-52 41 -55 127z" />
<glyph unicode="~" horiz-adv-x="1024" d="M57 489q64 70 148.5 125.5t142.5 55.5q46 0 98 -17.5t90.5 -38t87.5 -38t89 -17.5q38 0 95.5 25t104.5 59q63 -43 66 -113q-63 -70 -148 -125t-143 -55t-123.5 28t-128 55.5t-112.5 27.5q-38 0 -96.5 -25t-104.5 -59q-63 43 -66 112z" />
<glyph unicode="&#xa1;" horiz-adv-x="620" d="M158 -195q0 286 69 795q48 10 86 10q37 0 70 -10q78 -483 78 -788q0 -134 -12 -193q-72 -16 -138 -16q-80 0 -145 16q-8 60 -8 186zM164 864q0 58 42 101t103 43q64 0 108 -43t44 -101q0 -57 -44 -96t-108 -39q-61 0 -103 39t-42 96z" />
<glyph unicode="&#xa2;" horiz-adv-x="976" d="M84 498q0 114 46 222.5t138 191t211 106.5v164q59 22 133 0v-158q165 -5 301 -68q-6 -191 -53 -299q-91 -25 -147 9q-4 107 -13 176q-25 4 -88 8v-666q98 2 267 70q39 -36 45 -107q-59 -47 -143.5 -86.5t-168.5 -56.5v-166q-75 -18 -133 0v160q-101 7 -178 48.5 t-123.5 109.5t-70 154t-23.5 188zM328 555q0 -108 36 -205t115 -139v633q-46 -10 -61 -25q-39 -42 -64.5 -114t-25.5 -150z" />
<glyph unicode="&#xa3;" horiz-adv-x="993" d="M51 168q93 11 132.5 83t45.5 208h-110q-25 75 0 147h112q14 192 124 319.5t274 127.5q124 0 270 -47q0 -185 -39 -310q-68 -9 -141 11q-6 87 -23 167q-38 9 -94 9q-32 0 -61.5 -9.5t-38.5 -23.5q-34 -50 -41 -244h203q25 -66 0 -147h-209q-20 -172 -158 -269h391 q39 95 64 195q75 9 151 -12q8 -166 -18 -355l-21 -20q-121 4 -461 4h-331q-26 87 -21 166z" />
<glyph unicode="&#xa5;" horiz-adv-x="1021" d="M49 913q0 57 12 119q33 0 103 -2t110 -2q152 0 213 4q11 -51 11 -119l-115 -24l166 -246l168 244l-109 26q0 67 8 119q27 0 88.5 -2t92.5 -2q25 0 84 2t82 2q8 -35 8 -119q-51 -18 -113 -28l-174 -256h174q19 -51 0 -121h-231v-96h231q19 -50 0 -121h-231v-19 q0 -69 6 -125q110 -9 192 -30q3 -61 -12 -119q-78 4 -301 4q-62 0 -163.5 -2t-143.5 -2q-17 55 -17 119q77 4 205 30q8 36 8 95v49h-231q-15 60 0 121h231v96h-231q-14 59 0 121h164l-182 256q-54 20 -103 28z" />
<glyph unicode="&#xa7;" horiz-adv-x="987" d="M53 526q0 99 53.5 178t151.5 152q-119 94 -119 223q0 83 36.5 148t95 102t123.5 55.5t130 18.5q186 0 346 -57q-3 -166 -39 -295q-80 -19 -141 8q-3 96 -14 170q-67 24 -168 24q-34 0 -66 -7.5t-39 -14.5q-43 -40 -43 -109q0 -45 31.5 -83t82.5 -67t112 -56.5t122 -59 t112 -68t82.5 -89.5t31.5 -117q0 -100 -54 -179.5t-153 -152.5q119 -93 119 -221q0 -83 -36.5 -148t-95 -102t-123 -55.5t-128.5 -18.5q-189 0 -346 57q3 176 39 295q79 19 139 -8q3 -78 16 -170q67 -24 168 -24q33 0 65.5 7.5t39.5 14.5q41 38 41 109q0 45 -31.5 83t-82 67 t-111.5 56.5t-122 59t-111.5 68t-82 89.5t-31.5 117zM276 582q0 -35 18.5 -64.5t57.5 -56.5t74 -46t96 -48.5t94 -47.5q95 109 95 207q0 29 -15 55.5t-37 46.5t-60 42.5t-69.5 37.5t-80.5 38.5t-80 39.5q-93 -104 -93 -204z" />
<glyph unicode="&#xa8;" horiz-adv-x="849" d="M80 1249q0 64 43.5 117t107.5 53q48 0 88.5 -35t40.5 -84q0 -64 -44.5 -115t-106.5 -52q-51 0 -90 34t-39 82zM487 1249q0 62 45.5 116t106.5 54q52 0 90.5 -34.5t38.5 -84.5q0 -65 -43.5 -115.5t-108.5 -51.5q-47 0 -88 34.5t-41 81.5z" />
<glyph unicode="&#xa9;" horiz-adv-x="1533" d="M63 662q0 192 93.5 354t255.5 256t354 94t354 -94t256 -256t94 -354t-94 -354.5t-256 -256.5t-354 -94q-144 0 -274.5 55.5t-224 150t-149 225t-55.5 274.5zM225 662q0 -151 71 -278.5t195.5 -202.5t274.5 -75q151 0 276 74.5t196 202t71 279.5q0 151 -71 278t-196 202 t-276 75t-275.5 -74.5t-195 -201.5t-70.5 -279zM383 655q0 56 16 112.5t50.5 108.5t82.5 92.5t116.5 64.5t148.5 24q141 0 229 -37q0 -153 -27 -246q-58 -11 -122 10q-2 36 -15 113q-31 8 -102 8q-74 0 -98 -16q-20 -12 -45 -64.5t-25 -126.5q0 -123 52.5 -194.5 t150.5 -71.5q53 0 86 10l14 127q68 21 127 11q18 -99 18 -252q-113 -47 -266 -47q-190 0 -290.5 105t-100.5 269z" />
<glyph unicode="&#xaa;" horiz-adv-x="751" d="M68 805q0 47 35 88.5t93 72.5t117.5 52.5t124.5 36.5q-7 112 -78 112q-48 0 -88 -6q-12 -35 -12 -74q-60 -31 -121 -22q-42 58 -45 143q136 76 314 76q31 0 60.5 -4t64.5 -17.5t60.5 -34.5t42.5 -59t17 -88v-290q54 7 90 14q29 -19 29 -60q-42 -42 -97 -69t-112 -27 q-54 0 -96 72q-114 -74 -223 -74q-176 0 -176 158zM281 850q0 -26 19 -45t50 -19q38 0 90 27v119q-125 -14 -137 -23q-22 -18 -22 -59z" />
<glyph unicode="&#xab;" horiz-adv-x="1234" d="M98 453q-6 57 15 122l415 404q63 -20 103 -82l-271 -381l281 -373q-36 -68 -117 -100zM596 453q-6 59 14 122l416 404q62 -19 102 -82l-270 -381l281 -373q-36 -68 -117 -100z" />
<glyph unicode="&#xac;" d="M102 451q-27 85 0 174h904v-625q-96 -23 -175 0v451h-729z" />
<glyph unicode="&#xad;" horiz-adv-x="780" d="M131 418q-18 88 4 178l510 10q22 -94 2 -180z" />
<glyph unicode="&#xae;" horiz-adv-x="1079" d="M20 1090q0 138 70.5 254.5t190.5 183.5t260 67q139 0 258 -67t189.5 -183.5t70.5 -254.5q0 -139 -70.5 -255.5t-189.5 -183.5t-258 -67q-141 0 -260.5 67t-190 183.5t-70.5 255.5zM162 1090q0 -158 110.5 -267.5t268.5 -109.5q156 0 266.5 109.5t110.5 267.5 q0 156 -110.5 266t-266.5 110q-158 0 -268.5 -109.5t-110.5 -266.5zM317 950l64 15v288l-64 17q-3 50 9 80l260 2q74 0 112.5 -41t38.5 -99q0 -82 -90 -135q18 -36 30 -57t34.5 -41.5t46.5 -20.5q5 0 35 5q18 -25 22 -68q-55 -33 -133 -33q-38 0 -80 59t-63 126l-39 4v-84 l45 -17q7 -45 -4 -76h-213q-14 29 -11 76zM500 1139h28q43 0 58.5 15t15.5 44q0 23 -15 38t-42 15h-45v-112z" />
<glyph unicode="&#xb0;" horiz-adv-x="745" d="M68 1065q0 126 89.5 215.5t215.5 89.5t215.5 -89.5t89.5 -215.5t-89.5 -215.5t-215.5 -89.5t-215.5 89.5t-89.5 215.5zM209 1065q0 -71 47.5 -119.5t116.5 -48.5t116.5 48.5t47.5 119.5t-47.5 119.5t-116.5 48.5t-116.5 -48.5t-47.5 -119.5z" />
<glyph unicode="&#xb1;" d="M160 0q-27 82 0 174h809q26 -87 0 -174h-809zM160 575q-27 83 0 175h315v301q87 26 174 0v-301h320q26 -88 0 -175h-320v-294q-81 -31 -174 0v294h-315z" />
<glyph unicode="&#xb4;" horiz-adv-x="849" d="M291 1155l207 342q113 27 256 27l20 -56l-387 -389q-68 9 -96 76z" />
<glyph unicode="&#xb5;" horiz-adv-x="1255" d="M117 969q56 20 129 20t129 -20v-422q0 -146 48 -241t120 -95q91 0 151 121.5t60 298.5v338q56 20 133 20q76 0 135 -20q-27 -206 -27 -369q0 -211 43 -377q83 6 158 29q56 -56 59 -150q-46 -56 -113.5 -93.5t-123.5 -37.5q-41 0 -70.5 44t-42.5 114t-10 152h-6 q-49 -147 -130 -225.5t-181 -78.5q-173 0 -236 244l-6 -2l53 -719q-56 -20 -135 -20q-75 0 -131 20q8 303 8 815q0 449 -14 654z" />
<glyph unicode="&#xb6;" horiz-adv-x="1177" d="M31 854q0 109 48.5 207t129 166.5t187 108.5t220.5 40q42 0 133 -3t144 -3q183 0 242 4q15 -59 12 -125q-84 -31 -166 -39q-8 -101 -8 -276v-756q0 -139 -46.5 -258.5t-124 -199t-177 -124.5t-205.5 -45q-80 0 -156 17t-123 51q0 136 90 229l29 11q41 -43 101 -69 t118 -26q122 0 174 39q26 20 46 102.5t20 217.5v272q-81 -22 -205 -22q-64 0 -130.5 19t-130 59t-113 95.5t-79.5 135.5t-30 172zM442 920q0 -150 65.5 -252.5t158.5 -102.5h53v652q-18 2 -60 2q-96 0 -149 -41q-25 -17 -46.5 -88t-21.5 -170z" />
<glyph unicode="&#xb7;" horiz-adv-x="614" d="M143 457q0 68 52 130t120 62q57 0 102.5 -38.5t45.5 -96.5q0 -70 -51 -130t-121 -60q-54 0 -101 39t-47 94z" />
<glyph unicode="&#xb8;" horiz-adv-x="849" d="M240 -461q194 80 194 176q0 38 -34.5 64t-96.5 22l-20 21l102 219h104l-51 -125q100 -3 156.5 -46.5t56.5 -113.5q0 -108 -111 -197t-266 -118q-40 40 -34 98z" />
<glyph unicode="&#xba;" horiz-adv-x="747" d="M63 956q0 79 40 153t121 124.5t184 50.5q161 0 243 -85t82 -224q0 -58 -23.5 -115.5t-66 -104.5t-109 -76.5t-145.5 -29.5q-159 0 -242.5 83.5t-83.5 223.5zM283 985q0 -48 11.5 -92t41 -78.5t72.5 -34.5q49 0 65 19q43 53 43 147q0 47 -12 91.5t-42 79t-73 34.5 q-48 0 -61 -16q-45 -58 -45 -150z" />
<glyph unicode="&#xbb;" horiz-adv-x="1236" d="M94 879q39 71 119 98l424 -410q6 -61 -14 -123l-416 -403q-67 24 -101 84l269 381zM594 879q39 71 119 98l424 -410q6 -59 -15 -123l-415 -403q-67 24 -101 84l268 381z" />
<glyph unicode="&#xbf;" horiz-adv-x="854" d="M31 -68q0 64 19.5 120t48.5 95t67.5 76t73 62.5t67.5 55t49 52.5q23 38 23 182q36 23 95 30t110 -3q32 -101 32 -205q0 -35 -33.5 -73t-81.5 -73t-96.5 -72t-82 -84.5t-33.5 -96.5q0 -96 59 -167t148 -71q33 0 73 7q30 115 37 213q78 22 150 8q35 -146 35 -322 q-56 -36 -159 -63t-204 -27q-195 0 -296 98t-101 258zM328 864q0 58 43 101t104 43q62 0 106 -43t44 -101q0 -57 -43.5 -96t-106.5 -39q-62 0 -104.5 39t-42.5 96z" />
<glyph unicode="&#xf7;" d="M143 451q-31 79 0 174h844q26 -88 0 -174h-844zM434 213q0 49 38.5 83t92.5 34q53 0 90 -34t37 -83q0 -53 -37 -90t-90 -37q-54 0 -92.5 37.5t-38.5 89.5zM434 864q0 47 38.5 82t92.5 35q52 0 89.5 -34.5t37.5 -82.5q0 -54 -37 -91.5t-90 -37.5q-54 0 -92.5 37.5 t-38.5 91.5z" />
<glyph unicode="&#x192;" horiz-adv-x="956" d="M-2 -371q31 31 58.5 71.5t48.5 78.5t40.5 95.5t32.5 97.5t27.5 112t22 111.5t18.5 122.5t15.5 118.5t15 127t14.5 122.5v8h-166q-22 78 0 144h184l13 104q13 106 55.5 186.5t101 125t119.5 66t123 21.5q146 0 278 -61q-3 -151 -51 -301q-83 -22 -141 8q-5 123 -10 174 q-36 8 -78 8q-40 0 -68 -13.5t-46 -36t-31 -67t-20 -91.5t-15 -123h194q21 -70 0 -144h-209q-59 -531 -147 -809q-39 -116 -127 -208.5t-191 -133.5q-51 19 -61 86z" />
<glyph unicode="&#x2c6;" horiz-adv-x="849" d="M109 1147l225 352q79 20 164 17l245 -363q-30 -55 -94 -80l-233 223l-217 -223q-65 19 -90 74z" />
<glyph unicode="&#x2da;" horiz-adv-x="849" d="M184 1315q0 85 77.5 157t174.5 72q108 0 168 -55.5t60 -167.5q0 -83 -78 -156t-174 -73q-107 0 -167.5 56t-60.5 167zM336 1325q0 -36 27 -66t63 -30q41 0 63 18q9 5 16 23.5t7 42.5q0 37 -27 65.5t-63 28.5q-44 0 -64 -16q-22 -18 -22 -66z" />
<glyph unicode="&#x2dc;" horiz-adv-x="849" d="M43 1227q49 92 123 149.5t141 57.5q44 0 93.5 -30t95 -59.5t79.5 -29.5q24 0 64 27t78 69q58 -15 90 -74q-53 -94 -128 -153.5t-142 -59.5q-43 0 -93.5 30t-95.5 59.5t-76 29.5q-25 0 -64 -26.5t-77 -69.5q-67 21 -88 80z" />
<glyph unicode="&#x3a9;" horiz-adv-x="1591" d="M25 399q78 25 149 13q29 -119 74 -240h225v6q-127 112 -209 260t-82 299q0 88 31 182.5t90.5 181t137.5 156t181 111t212 41.5q113 0 209 -37t162 -98t113 -141t69 -164.5t22 -169.5q0 -168 -83 -331.5t-212 -289.5v-6h227q40 101 74 240q74 12 152 -13q0 -166 -23 -381 l-22 -20q-139 4 -496 4h-68q-62 50 -77 125q262 310 262 600q0 208 -106.5 347.5t-256.5 139.5q-53 0 -111.5 -18.5t-74.5 -36.5q-67 -75 -106 -182.5t-39 -224.5q0 -176 71 -325.5t207 -293.5q-12 -84 -68 -131h-88q-364 0 -503 -4l-21 20q-22 206 -22 381z" />
<glyph unicode="&#x3c0;" horiz-adv-x="1318" d="M23 825q136 154 397 154h442q231 0 346 4q64 -98 64 -227l-23 -23h-245v-510q67 5 167 29q60 -57 60 -150q-55 -60 -124 -95.5t-134 -35.5q-68 0 -105 63.5t-37 168.5v530h-299v-395q0 -94 -26 -190.5t-74 -159.5q-86 0 -150 30t-92 91q172 188 172 505v117 q-164 -6 -262 -47q-71 54 -77 141z" />
<glyph unicode="&#x400;" horiz-adv-x="1202" d="M45 123q75 8 178 39q10 49 10 125v641q0 152 -10 282q-103 31 -178 39q0 70 16 125q41 0 139 -2t158 -2h236q354 0 481 4l23 -22q6 -222 -25 -377q-83 -18 -151 0q-9 119 -33 225h-402v-416l387 11l23 -21q-4 -101 -23 -160l-387 11v-453h428q45 127 74 252 q70 11 150 -12q0 -174 -23 -392l-20 -22q-127 4 -482 4h-252q-61 0 -160.5 -2t-140.5 -2q-16 55 -16 125zM266 1729q34 100 144 155l383 -287q-3 -72 -62 -110l-452 194z" />
<glyph unicode="&#x401;" horiz-adv-x="1202" d="M45 123q75 8 178 39q10 49 10 125v641q0 152 -10 282q-103 31 -178 39q0 70 16 125q41 0 139 -2t158 -2h236q354 0 481 4l23 -22q6 -222 -25 -377q-83 -18 -151 0q-9 119 -33 225h-402v-416l387 11l23 -21q-4 -101 -23 -160l-387 11v-453h428q45 127 74 252 q70 11 150 -12q0 -174 -23 -392l-20 -22q-127 4 -482 4h-252q-61 0 -160.5 -2t-140.5 -2q-16 55 -16 125zM281 1626q0 62 43 115t106 53q46 0 83.5 -34t37.5 -83q0 -61 -41.5 -109.5t-101.5 -51.5q-49 0 -88 32.5t-39 77.5zM692 1626q0 61 43.5 114.5t102.5 53.5 q51 0 89 -33.5t38 -83.5q0 -62 -43 -110t-107 -51q-45 0 -84 33t-39 77z" />
<glyph unicode="&#x402;" horiz-adv-x="1558" d="M27 1354l20 20q127 -4 481 -4h326q354 0 481 4l21 -20q8 -183 -23 -344q-88 -17 -153 0q-6 95 -31 190h-375v-438q166 90 326 90q182 0 297.5 -138.5t115.5 -353.5q0 -279 -156.5 -491t-443.5 -309q-52 52 -55 123q389 211 389 624q0 167 -68 262t-194 95 q-100 0 -211 -43v-289q0 -99 8 -170q82 -8 166 -39q3 -67 -12 -125q-72 4 -291 4q-71 0 -186.5 -2t-163.5 -2q-21 54 -21 125q94 7 236 39q10 49 10 125v913h-287q-25 -148 -30 -264q-74 -19 -154 0q-30 205 -22 418z" />
<glyph unicode="&#x403;" horiz-adv-x="1089" d="M45 123q75 8 178 39q10 49 10 160v606q0 155 -10 282q-103 31 -178 39q0 70 16 125q41 0 140 -2t159 -2h211q355 0 482 4l20 -22q6 -230 -22 -402q-84 -18 -154 0q-6 125 -31 250h-379v-868q0 -90 9 -170q109 -8 223 -39q3 -69 -14 -125q-86 4 -343 4q-61 0 -160 -2 t-141 -2q-16 55 -16 125zM414 1593l397 277q98 -53 133 -164l-10 -47l-461 -178q-44 41 -59 112z" />
<glyph unicode="&#x404;" horiz-adv-x="1232" d="M70 662q0 107 27.5 212t85.5 200.5t138.5 169t194.5 116.5t246 43q221 0 389 -60q0 -208 -47 -366q-80 -12 -148 12q-5 82 -26 207q-73 12 -207 12q-69 0 -140.5 -16.5t-97.5 -38.5q-47 -40 -94.5 -139.5t-54.5 -231.5l452 17l23 -21q0 -98 -23 -168l-446 15 q11 -101 42 -183t83 -145t131 -98t178 -35q103 0 180 18q20 119 29 232q73 24 152 12q30 -153 30 -381q-214 -76 -440 -76q-161 0 -288 54t-207 149t-121 219.5t-41 270.5z" />
<glyph unicode="&#x405;" horiz-adv-x="1110" d="M66 66q6 201 49 376q72 19 151 -10q6 -113 27 -244q91 -36 242 -36q56 0 108.5 16.5t65.5 26.5q59 56 59 172q0 123 -209 206l-156 62q-63 25 -110.5 52t-97 70t-76.5 104t-27 136q0 85 29 155t76.5 115.5t111.5 77t131 45t138 13.5q99 0 213.5 -21t201.5 -57 q-3 -192 -37 -334q-93 -23 -149 10q-6 100 -27 195q-88 27 -217 27q-49 0 -97.5 -9.5t-59.5 -17.5q-52 -45 -52 -129q0 -37 18.5 -69.5t52 -57.5t64.5 -42t72 -34l172 -71q301 -121 301 -355q0 -97 -34.5 -182.5t-96.5 -149.5t-155 -100.5t-205 -36.5q-139 0 -267.5 26.5 t-209.5 70.5z" />
<glyph unicode="&#x406;" horiz-adv-x="718" d="M45 123q75 8 178 39q10 49 10 125v641q0 155 -10 282q-103 31 -178 39q0 70 16 125q41 0 139 -2t158 -2q219 0 291 4q16 -62 13 -125q-84 -31 -166 -39q-9 -114 -9 -282v-596q0 -90 9 -170q82 -8 166 -39q3 -63 -13 -125q-72 4 -291 4q-60 0 -158 -2t-139 -2 q-16 55 -16 125z" />
<glyph unicode="&#x407;" horiz-adv-x="718" d="M18 1626q0 62 43.5 115t106.5 53q46 0 83.5 -34t37.5 -83q0 -61 -42 -109.5t-102 -51.5q-49 0 -88 32.5t-39 77.5zM45 123q75 8 178 39q10 49 10 125v641q0 155 -10 282q-103 31 -178 39q0 70 16 125q41 0 139 -2t158 -2q219 0 291 4q16 -62 13 -125q-84 -31 -166 -39 q-9 -114 -9 -282v-596q0 -90 9 -170q82 -8 166 -39q3 -63 -13 -125q-72 4 -291 4q-60 0 -158 -2t-139 -2q-16 55 -16 125zM430 1626q0 61 43 114.5t102 53.5q51 0 89 -33.5t38 -83.5q0 -62 -42.5 -110t-106.5 -51q-45 0 -84 33t-39 77z" />
<glyph unicode="&#x408;" horiz-adv-x="671" d="M-111 -313q163 63 242.5 160t79.5 257v824q0 155 -10 282q-103 31 -178 39q0 70 16 125q41 0 139.5 -2t159.5 -2q217 0 289 4q15 -58 12 -125q-84 -31 -166 -39q-8 -101 -8 -282v-852q0 -242 -141.5 -369t-395.5 -147q-45 51 -39 127z" />
<glyph unicode="&#x409;" horiz-adv-x="1849" d="M8 150q6 41 34 80.5t67 64.5l188 -74q99 147 145 377t72 610q-62 21 -180 41q0 70 16 125q41 0 138.5 -2t158.5 -2h400q260 0 346 4q15 -58 12 -125q-107 -31 -221 -39q-8 -101 -8 -282v-119q109 16 208 16q192 0 316.5 -107.5t124.5 -260.5q0 -67 -22.5 -134t-66 -126 t-102.5 -105t-138 -73t-167 -27q-42 0 -132.5 5t-149.5 5q-67 0 -177 -2t-155 -2q-19 56 -19 125q82 7 215 39q11 54 11 125v913h-213q-12 -229 -38.5 -413t-73 -348.5t-121 -285t-175.5 -190.5q-110 29 -178 75t-115 112zM1176 170h112q86 0 140 12t67 25q66 73 66 205 q0 109 -73 174t-200 65q-38 0 -112 -4v-477z" />
<glyph unicode="&#x40a;" horiz-adv-x="1988" d="M45 123q75 8 178 39q10 49 10 153v613q0 155 -10 282q-103 31 -178 39q0 70 16 125q41 0 139 -2t158 -2q219 0 291 4q16 -62 13 -125q-84 -31 -166 -39q-9 -123 -9 -311v-100h574v129q0 155 -10 282q-102 31 -179 39q0 67 17 125q41 0 139 -2t158 -2q260 0 346 4 q15 -58 12 -125q-108 -31 -221 -39q-8 -101 -8 -282v-119q109 16 209 16q194 0 317 -107.5t123 -260.5q0 -67 -22.5 -134t-66 -126t-102.5 -105t-138 -73t-167 -27q-42 0 -132.5 5t-149.5 5q-60 0 -158 -2t-139 -2q-17 58 -17 125q77 8 179 39q10 61 10 160v296 q-253 15 -402 15h-172v-301q0 -90 9 -170q82 -8 166 -39q3 -63 -13 -125q-72 4 -291 4q-60 0 -158 -2t-139 -2q-16 55 -16 125zM1315 170h112q86 0 141 12t66 25q68 71 68 205q0 109 -74 174t-201 65q-38 0 -112 -4v-477z" />
<glyph unicode="&#x40b;" horiz-adv-x="1665" d="M27 1354l20 20q127 -4 481 -4h326q354 0 481 4l21 -20q8 -183 -23 -344q-88 -17 -153 0q-6 95 -31 190h-375v-446q174 94 342 94q172 0 259 -90t87 -279v-317q82 -8 166 -39q3 -67 -12 -125q-61 4 -281 4q-59 0 -143.5 -2t-118.5 -2q-16 55 -16 125q61 7 151 39v262 q0 123 -43 181.5t-141 58.5q-126 0 -250 -46v-286q0 -99 8 -170q71 -8 144 -39q3 -63 -13 -125q-66 4 -274 4q-70 0 -183 -2t-161 -2q-21 54 -21 125q94 7 236 39q10 49 10 125v913h-287q-25 -148 -30 -264q-74 -19 -154 0q-30 205 -22 418z" />
<glyph unicode="&#x40c;" horiz-adv-x="1390" d="M45 123q75 8 178 39q10 49 10 153v613q0 155 -10 282q-103 31 -178 39q0 70 16 125q41 0 139 -2t158 -2q219 0 291 4q16 -62 13 -125q-84 -31 -166 -39q-9 -123 -9 -311v-106h228l200 415q70 140 123 191q181 -25 291 -103q9 -44 -4.5 -93t-42.5 -83l-203 19l-194 -408 l332 -569q92 -12 161 -39q3 -71 -12 -127q-80 4 -254 4h-108l-353 627h-164v-295q0 -90 9 -170q82 -8 166 -39q3 -63 -13 -125q-72 4 -291 4q-60 0 -158 -2t-139 -2q-16 55 -16 125zM524 1593l398 277q98 -53 133 -164l-11 -47l-460 -178q-45 42 -60 112z" />
<glyph unicode="&#x40d;" horiz-adv-x="1572" d="M45 123q75 8 178 39q10 49 10 153v613q0 155 -10 282q-103 31 -178 39q0 70 16 125q41 0 139 -2t158 -2q219 0 291 4q16 -62 13 -125q-84 -31 -166 -39q-9 -123 -9 -311v-373l598 570l-6 114q-103 31 -178 39q0 67 17 125q41 0 138.5 -2t157.5 -2q219 0 291 4 q16 -62 13 -125q-84 -31 -166 -39q-9 -123 -9 -311v-567q0 -90 9 -170q82 -8 166 -39q3 -63 -13 -125q-72 4 -291 4q-60 0 -157.5 -2t-138.5 -2q-17 58 -17 125q75 8 178 39q11 67 11 153v555l-603 -573q0 -71 9 -135q82 -8 166 -39q3 -63 -13 -125q-72 4 -291 4 q-60 0 -158 -2t-139 -2q-16 55 -16 125zM426 1729q34 100 143 155l383 -287q-3 -73 -61 -110l-453 194z" />
<glyph unicode="&#x40e;" horiz-adv-x="1368" d="M8 1249q0 67 17 125q44 0 147.5 -2t167.5 -2q215 0 299 4q15 -58 12 -125l-180 -37l299 -579l244 579l-180 37q0 68 14 125q40 0 125 -2t123 -2q182 0 245 4q16 -62 13 -125q-77 -31 -152 -39l-409 -936q-90 -203 -211 -311q-104 25 -186 79t-132 122q6 41 32.5 79.5 t65.5 63.5l211 -84q25 42 68 139l-469 848q-97 32 -164 39zM371 1751q29 30 105.5 43t131.5 -2v-23q0 -59 33.5 -100t89.5 -41q65 0 92 31q23 23 23 121v12q57 15 138.5 2t111.5 -43q0 -102 -112.5 -177t-272.5 -75q-155 0 -247.5 68.5t-92.5 183.5z" />
<glyph unicode="&#x40f;" horiz-adv-x="1490" d="M45 123q75 8 178 39q10 49 10 153v613q0 155 -10 282q-103 31 -178 39q0 70 16 125q41 0 139 -2t158 -2q219 0 291 4q16 -62 13 -125q-84 -31 -166 -39q-9 -123 -9 -311v-727h519v756q0 143 -11 282q-103 31 -178 39q0 67 17 125q41 0 138.5 -2t157.5 -2q219 0 291 4 q16 -62 13 -125q-84 -31 -166 -39q-8 -101 -8 -282v-596q0 -99 8 -170q82 -8 166 -39q3 -63 -13 -125q-72 4 -219 4h-342q-25 -220 -29 -338q-37 -9 -84.5 -9t-84.5 9q-5 140 -31 338h-273q-60 0 -158 -2t-139 -2q-16 55 -16 125z" />
<glyph unicode="&#x410;" horiz-adv-x="1435" d="M10 123q67 7 164 39l420 1188q101 32 237 32l441 -1220q74 -8 151 -39q3 -67 -12 -125q-70 4 -287 4q-59 0 -159.5 -2t-143.5 -2q-16 55 -16 125l194 37l-92 256q-182 10 -313 10h-141l-91 -266l181 -37q3 -63 -13 -125q-74 4 -262 4q-46 0 -126 -2t-115 -2 q-17 58 -17 125zM504 580h346l-137 387l-8 186h-5z" />
<glyph unicode="&#x411;" horiz-adv-x="1253" d="M45 123q75 8 178 39q10 49 10 125v641q0 152 -10 282q-103 31 -178 39q0 70 16 125q41 0 139 -2t158 -2h244q354 0 481 4l21 -20q6 -197 -23 -350q-84 -18 -153 0q-6 101 -31 196h-410v-405q117 20 254 20q211 0 339 -105.5t128 -258.5q0 -83 -36.5 -164t-102 -147 t-167.5 -107t-222 -41q-48 0 -149.5 5t-168.5 5q-61 0 -160.5 -2t-140.5 -2q-16 55 -16 125zM487 170h136q101 0 164.5 12t76.5 25q80 66 80 199q0 108 -83.5 171.5t-225.5 63.5q-75 0 -148 -6v-465z" />
<glyph unicode="&#x412;" horiz-adv-x="1253" d="M45 123q75 8 178 39q10 49 10 160v606q0 155 -10 282q-103 31 -178 39q0 70 16 125q41 0 139 -2t158 -2q89 0 226 5t186 5q159 0 265 -91t106 -226q0 -89 -47 -168t-152 -131q131 -45 198.5 -128t67.5 -190q0 -82 -36.5 -162.5t-102 -145.5t-167.5 -105.5t-222 -40.5 q-48 0 -151 5t-171 5q-60 0 -158 -2t-139 -2q-16 55 -16 125zM487 170h136q69 0 125 6.5t82 14t34 14.5q80 66 80 198q0 106 -83.5 168t-225.5 62h-148v-463zM487 801h117q140 0 206.5 59t66.5 148q0 84 -58.5 141t-148.5 57q-6 0 -183 -6v-399z" />
<glyph unicode="&#x413;" horiz-adv-x="1089" d="M45 123q75 8 178 39q10 49 10 160v606q0 155 -10 282q-103 31 -178 39q0 70 16 125q41 0 140 -2t159 -2h211q355 0 482 4l20 -22q6 -230 -22 -402q-84 -18 -154 0q-6 125 -31 250h-379v-868q0 -90 9 -170q109 -8 223 -39q3 -69 -14 -125q-86 4 -343 4q-61 0 -160 -2 t-141 -2q-16 55 -16 125z" />
<glyph unicode="&#x414;" horiz-adv-x="1456" d="M10 156l21 20l188 -4q120 209 180 464.5t78 573.5q-75 26 -178 39q0 70 16 125q41 0 139 -2t158 -2h430q219 0 291 4q16 -62 13 -125q-84 -31 -166 -39q-9 -114 -9 -282v-756q116 0 252 4l23 -20q5 -247 -25 -490q-90 -18 -159 0q-5 153 -33 336h-1002q-31 -147 -41 -336 q-69 -18 -153 0q-31 243 -23 490zM432 172h80h406v1028h-248q-12 -299 -74.5 -561t-163.5 -467z" />
<glyph unicode="&#x415;" horiz-adv-x="1202" d="M45 123q75 8 178 39q10 49 10 125v641q0 152 -10 282q-103 31 -178 39q0 70 16 125q41 0 139 -2t158 -2h236q354 0 481 4l23 -22q6 -222 -25 -377q-83 -18 -151 0q-9 119 -33 225h-402v-416l387 11l23 -21q-4 -101 -23 -160l-387 11v-453h428q45 127 74 252 q70 11 150 -12q0 -174 -23 -392l-20 -22q-127 4 -482 4h-252q-61 0 -160.5 -2t-140.5 -2q-16 55 -16 125z" />
<glyph unicode="&#x416;" horiz-adv-x="1927" d="M12 123q75 10 162 39l328 563l-199 414l-203 -19q-29 34 -43 83t-6 93q114 78 293 103q56 -53 121 -191l203 -415h168v135q0 143 -11 282q-92 31 -163 39q0 70 16 125q40 0 132.5 -2t145.5 -2q205 0 275 4q15 -58 12 -125q-82 -32 -153 -39q-9 -123 -9 -311v-106h170 l201 415q70 140 123 191q181 -25 291 -103q9 -44 -4.5 -93t-42.5 -83l-203 19l-195 -408l332 -569q93 -13 162 -39q3 -71 -12 -127q-80 4 -254 4h-109l-352 627h-107v-295q0 -90 9 -170q71 -7 153 -39q3 -67 -12 -125q-70 4 -275 4q-53 0 -145.5 -2t-132.5 -2 q-16 55 -16 125q71 8 163 39q11 54 11 153v312h-109l-348 -627h-100q-174 0 -254 -4q-16 59 -13 127z" />
<glyph unicode="&#x417;" horiz-adv-x="1114" d="M66 35q3 225 30 377q65 20 150 10q19 -152 49 -240q60 -18 186 -18q69 0 136.5 16.5t89.5 32.5q84 68 84 193q0 81 -61.5 141.5t-162.5 75.5l-200 -19l-21 23q-9 102 35 198l194 -6q76 28 118 87.5t42 123.5q0 73 -72.5 125.5t-181.5 52.5q-92 0 -170 -16 q-29 -95 -35 -209q-81 -20 -149 -2q-40 143 -43 311q201 111 471 111q122 0 224 -41.5t161 -115t59 -161.5q0 -97 -54.5 -176t-158.5 -135q136 -39 205.5 -127t69.5 -207q0 -117 -82.5 -226t-222.5 -177t-297 -68q-210 0 -393 66z" />
<glyph unicode="&#x418;" horiz-adv-x="1572" d="M45 123q75 8 178 39q10 49 10 153v613q0 155 -10 282q-103 31 -178 39q0 70 16 125q41 0 139 -2t158 -2q219 0 291 4q16 -62 13 -125q-84 -31 -166 -39q-9 -123 -9 -311v-373l598 570l-6 114q-103 31 -178 39q0 67 17 125q41 0 138.5 -2t157.5 -2q219 0 291 4 q16 -62 13 -125q-84 -31 -166 -39q-9 -123 -9 -311v-567q0 -90 9 -170q82 -8 166 -39q3 -63 -13 -125q-72 4 -291 4q-60 0 -157.5 -2t-138.5 -2q-17 58 -17 125q75 8 178 39q11 67 11 153v555l-603 -573q0 -71 9 -135q82 -8 166 -39q3 -63 -13 -125q-72 4 -291 4 q-60 0 -158 -2t-139 -2q-16 55 -16 125z" />
<glyph unicode="&#x419;" horiz-adv-x="1572" d="M45 123q75 8 178 39q10 49 10 153v613q0 155 -10 282q-103 31 -178 39q0 70 16 125q41 0 139 -2t158 -2q219 0 291 4q16 -62 13 -125q-84 -31 -166 -39q-9 -123 -9 -311v-373l598 570l-6 114q-103 31 -178 39q0 67 17 125q41 0 138.5 -2t157.5 -2q219 0 291 4 q16 -62 13 -125q-84 -31 -166 -39q-9 -123 -9 -311v-567q0 -90 9 -170q82 -8 166 -39q3 -63 -13 -125q-72 4 -291 4q-60 0 -157.5 -2t-138.5 -2q-17 58 -17 125q75 8 178 39q11 67 11 153v555l-603 -573q0 -71 9 -135q82 -8 166 -39q3 -63 -13 -125q-72 4 -291 4 q-60 0 -158 -2t-139 -2q-16 55 -16 125zM426 1751q29 30 106 43t132 -2v-23q0 -60 33 -100.5t89 -40.5q66 0 93 31q22 22 22 121v12q57 15 138.5 2t111.5 -43q0 -102 -112.5 -177t-272.5 -75q-155 0 -247.5 68.5t-92.5 183.5z" />
<glyph unicode="&#x41a;" horiz-adv-x="1390" d="M45 123q75 8 178 39q10 49 10 153v613q0 155 -10 282q-103 31 -178 39q0 70 16 125q41 0 139 -2t158 -2q219 0 291 4q16 -62 13 -125q-84 -31 -166 -39q-9 -123 -9 -311v-106h228l200 415q70 140 123 191q181 -25 291 -103q9 -44 -4.5 -93t-42.5 -83l-203 19l-194 -408 l332 -569q92 -12 161 -39q3 -71 -12 -127q-80 4 -254 4h-108l-353 627h-164v-295q0 -90 9 -170q82 -8 166 -39q3 -63 -13 -125q-72 4 -291 4q-60 0 -158 -2t-139 -2q-16 55 -16 125z" />
<glyph unicode="&#x41b;" horiz-adv-x="1425" d="M8 150q6 41 34 80.5t67 64.5l188 -74q99 147 145 377t72 610q-62 21 -180 41q0 70 16 125q41 0 138.5 -2t158.5 -2h420q219 0 291 4q15 -58 12 -125q-84 -31 -166 -39q-8 -101 -8 -282v-596q0 -99 8 -170q82 -8 166 -39q3 -67 -12 -125q-72 4 -291 4q-67 0 -177 -2 t-155 -2q-18 53 -18 125q88 7 215 39q10 49 10 125v913h-233q-12 -230 -38 -413.5t-72.5 -348t-121 -285t-176.5 -190.5q-197 52 -293 187z" />
<glyph unicode="&#x41c;" horiz-adv-x="1892" d="M25 123q80 8 180 41l100 1046q-111 32 -182 39q0 70 16 125q40 0 129 -2t140 -2q164 0 272 -6l242 -850l6 -215h6l289 1065q111 6 247 6q217 0 287 4q15 -58 12 -125q-85 -31 -167 -39l96 -1048q86 -8 170 -39q3 -63 -13 -125q-70 4 -286 4q-59 0 -155 -2t-136 -2 q-16 55 -16 125l180 39l-78 827l8 209h-6l-332 -1175q-104 -33 -237 -33l-281 999l-20 209h-7l-98 -1034l168 -41q3 -67 -12 -125q-72 4 -268 4q-37 0 -117 -2t-121 -2q-16 55 -16 125z" />
<glyph unicode="&#x41d;" horiz-adv-x="1572" d="M45 123q75 8 178 39q10 49 10 153v613q0 155 -10 282q-103 31 -178 39q0 70 16 125q41 0 139 -2t158 -2q219 0 291 4q16 -62 13 -125q-84 -31 -166 -39q-9 -123 -9 -311v-100h603v129q0 143 -11 282q-103 31 -178 39q0 67 17 125q41 0 138.5 -2t157.5 -2q219 0 291 4 q16 -62 13 -125q-84 -31 -166 -39q-9 -123 -9 -311v-567q0 -90 9 -170q82 -8 166 -39q3 -63 -13 -125q-72 4 -291 4q-60 0 -157.5 -2t-138.5 -2q-17 58 -17 125q75 8 178 39q11 67 11 153v303q-253 15 -402 15h-201v-301q0 -90 9 -170q82 -8 166 -39q3 -63 -13 -125 q-72 4 -291 4q-60 0 -158 -2t-139 -2q-16 55 -16 125z" />
<glyph unicode="&#x41e;" horiz-adv-x="1417" d="M70 662q0 107 29 213.5t86 202.5t135 170t184 117.5t225 43.5q194 0 336 -93t212.5 -249.5t70.5 -355.5q0 -107 -29 -214.5t-86.5 -203t-135 -169.5t-183.5 -117.5t-224 -43.5q-149 0 -268 54t-195 149t-116.5 221.5t-40.5 274.5zM336 745q0 -120 24 -223.5t71.5 -186 t129 -130t187.5 -47.5q53 0 115 20.5t83 42.5q56 62 95.5 166t39.5 240q0 121 -23.5 224t-70.5 185.5t-128 130t-187 47.5q-54 0 -116 -20t-85 -43q-56 -62 -95.5 -166t-39.5 -240z" />
<glyph unicode="&#x41f;" horiz-adv-x="1538" d="M45 123q75 8 178 39q10 49 10 153v613q0 155 -10 282q-103 31 -178 39q0 70 16 125q41 0 139 -2t158 -2h820q218 0 290 4q16 -62 13 -125q-84 -31 -166 -39q-8 -109 -8 -311v-567q0 -99 8 -170q82 -8 166 -39q3 -63 -13 -125q-72 4 -290 4q-60 0 -158 -2t-139 -2 q-17 58 -17 125q75 8 178 39q11 54 11 153v885h-566v-868q0 -90 9 -170q82 -8 166 -39q3 -63 -13 -125q-72 4 -291 4q-60 0 -158 -2t-139 -2q-16 55 -16 125z" />
<glyph unicode="&#x420;" horiz-adv-x="1200" d="M45 123q75 8 178 39q10 49 10 125v641q0 155 -10 282q-103 31 -178 39q0 70 16 125q41 0 139 -2t158 -2q74 0 209.5 5t184.5 5q102 0 182 -31.5t129 -85.5t74.5 -122.5t25.5 -147.5q0 -90 -42.5 -180.5t-113 -160.5t-168.5 -114t-202 -44q-90 0 -150 8v-170q0 -90 9 -170 q109 -8 223 -39q3 -69 -14 -125q-86 4 -343 4q-61 0 -160 -2t-141 -2q-16 55 -16 125zM487 678q39 -4 127 -4q45 0 94 10.5t77 21.5t34 17q78 68 78 221q0 65 -21.5 122t-73 98.5t-124.5 41.5q-69 0 -191 -4v-524z" />
<glyph unicode="&#x421;" horiz-adv-x="1232" d="M70 662q0 107 27.5 212t85.5 200.5t138.5 169t194.5 116.5t246 43q221 0 389 -60q0 -220 -47 -385q-78 -12 -148 13q-5 95 -26 225q-73 12 -207 12q-69 0 -140.5 -16.5t-97.5 -38.5q-29 -25 -60 -74t-60 -141t-29 -193q0 -123 25.5 -226t76.5 -183.5t137.5 -126 t200.5 -45.5q103 0 180 18q20 127 29 250q73 24 152 12q30 -158 30 -399q-214 -76 -440 -76q-161 0 -288 54t-207 149t-121 219.5t-41 270.5z" />
<glyph unicode="&#x422;" horiz-adv-x="1294" d="M27 1354l20 20q127 -4 481 -4h236q354 0 481 4l23 -20q5 -228 -25 -418q-87 -18 -151 0q-5 119 -33 264h-285v-868q0 -99 8 -170q108 -8 222 -39q3 -67 -15 -125q-86 4 -344 4q-71 0 -186.5 -2t-163.5 -2q-21 54 -21 125q94 7 236 39q10 49 10 125v913h-287 q-25 -148 -30 -264q-74 -19 -154 0q-30 205 -22 418z" />
<glyph unicode="&#x423;" horiz-adv-x="1368" d="M8 1249q0 67 17 125q44 0 147.5 -2t167.5 -2q215 0 299 4q15 -58 12 -125l-180 -37l299 -579l244 579l-180 37q0 68 14 125q40 0 125 -2t123 -2q182 0 245 4q16 -62 13 -125q-77 -31 -152 -39l-409 -936q-90 -203 -211 -311q-104 25 -186 79t-132 122q6 41 32.5 79.5 t65.5 63.5l211 -84q25 42 68 139l-469 848q-97 32 -164 39z" />
<glyph unicode="&#x424;" horiz-adv-x="1572" d="M55 649q0 119 48 219t130.5 167t193.5 105.5t237 43.5v82q-124 25 -246 34q0 74 20 125q49 0 163 -2t183 -2q254 0 340 4q18 -61 15 -129q-110 -27 -230 -32v-80q609 -16 609 -459q0 -120 -48 -220t-131 -167.5t-193.5 -106t-236.5 -43.5v-82q124 -8 230 -34 q3 -67 -15 -125q-86 4 -340 4q-68 0 -182.5 -2t-163.5 -2q-20 51 -20 125q114 9 246 32v84q-609 16 -609 461zM311 713q0 -178 91.5 -277t261.5 -102v704q-86 -3 -156.5 -18.5t-91.5 -32.5q-46 -37 -75.5 -113.5t-29.5 -160.5zM909 334q87 3 156 18t90 33q46 39 76.5 116 t30.5 161q0 177 -92 274t-261 102v-704z" />
<glyph unicode="&#x425;" horiz-adv-x="1390" d="M6 123q72 7 176 39l359 530l-359 518q-97 32 -164 39q0 67 17 125q41 0 142 -2t165 -2q231 0 307 4q13 -51 13 -125l-166 -37l247 -358l238 358l-164 35q0 70 14 127q38 0 121.5 -2t128.5 -2q185 0 248 4q13 -62 10 -125q-77 -31 -151 -39l-344 -501l381 -547 q72 -8 153 -39q3 -67 -12 -125q-74 4 -309 4q-66 0 -169.5 -2t-144.5 -2q-16 55 -16 125l184 37l-268 385l-254 -385l160 -37q3 -67 -12 -125q-72 4 -261 4q-46 0 -129.5 -2t-123.5 -2q-17 58 -17 125z" />
<glyph unicode="&#x426;" horiz-adv-x="1544" d="M45 123q75 8 178 39q10 49 10 153v613q0 155 -10 282q-103 31 -178 39q0 70 16 125q41 0 139 -2t158 -2q219 0 291 4q16 -62 13 -125q-84 -31 -166 -39q-9 -123 -9 -311v-727h519v756q0 143 -11 282q-103 31 -178 39q0 67 17 125q41 0 138.5 -2t157.5 -2q219 0 291 4 q16 -62 13 -125q-84 -31 -166 -39q-8 -109 -8 -311v-727q113 0 253 4l23 -20q5 -259 -25 -490q-91 -17 -159 0q-5 153 -33 336h-961q-60 0 -158 -2t-139 -2q-16 55 -16 125z" />
<glyph unicode="&#x427;" horiz-adv-x="1429" d="M8 1249q0 67 17 125q41 0 138.5 -2t158.5 -2q207 0 270 4q15 -58 12 -125q-74 -31 -153 -39v-237q0 -139 55.5 -217t157.5 -78q142 0 282 59v191q0 155 -10 282q-103 31 -178 39q0 70 16 125q41 0 138.5 -2t158.5 -2q219 0 291 4q15 -58 12 -125q-84 -31 -166 -39 q-8 -101 -8 -282v-596q0 -99 8 -170q82 -8 166 -39q3 -67 -12 -125q-72 4 -291 4q-71 0 -186.5 -2t-163.5 -2q-19 56 -19 125q92 7 234 39q10 49 10 125v297q-176 -90 -371 -90q-178 0 -278 105.5t-100 328.5v280q-118 34 -189 41z" />
<glyph unicode="&#x428;" horiz-adv-x="2076" d="M45 123q75 8 178 39q10 49 10 153v613q0 155 -10 282q-103 31 -178 39q0 70 16 125q41 0 139 -2t158 -2q211 0 279 4q15 -58 12 -125q-78 -31 -153 -39q-9 -123 -9 -311v-727h426v756q0 155 -10 282q-96 31 -166 39q0 67 17 125q40 0 133.5 -2t150.5 -2q209 0 277 4 q15 -58 12 -125q-77 -31 -151 -39q-9 -92 -9 -311v-727h424v756q0 155 -10 282q-90 31 -164 39q0 63 15 125q40 0 133.5 -2t150.5 -2q219 0 291 4q15 -58 12 -125q-84 -31 -166 -39q-8 -101 -8 -282v-596q0 -99 8 -170q82 -8 166 -39q3 -67 -12 -125q-72 4 -291 4h-1358 q-60 0 -158 -2t-139 -2q-16 55 -16 125z" />
<glyph unicode="&#x429;" horiz-adv-x="2129" d="M45 123q75 8 178 39q10 49 10 153v613q0 155 -10 282q-103 31 -178 39q0 70 16 125q41 0 139 -2t158 -2q211 0 279 4q15 -58 12 -125q-78 -31 -153 -39q-9 -123 -9 -311v-727h426v756q0 155 -10 282q-96 31 -166 39q0 67 17 125q40 0 133.5 -2t150.5 -2q209 0 277 4 q15 -58 12 -125q-77 -31 -151 -39q-9 -92 -9 -311v-727h424v756q0 155 -10 282q-90 31 -164 39q0 67 17 125q39 0 131.5 -2t150.5 -2q219 0 291 4q15 -58 12 -125q-84 -31 -166 -39q-8 -109 -8 -311v-727q114 0 254 4l21 -20q8 -258 -23 -490q-92 -17 -160 0 q-10 190 -32 336h-1547q-60 0 -158 -2t-139 -2q-16 55 -16 125z" />
<glyph unicode="&#x42a;" horiz-adv-x="1456" d="M27 1354l20 20q127 -4 481 -4h56q260 0 346 4q15 -58 12 -125q-108 -31 -221 -39q-8 -101 -8 -282v-123q117 20 254 20q210 0 337.5 -106.5t127.5 -261.5q0 -85 -36.5 -167t-102 -149t-167 -108t-221.5 -41q-48 0 -150.5 5t-170.5 5q-60 0 -158 -2t-139 -2 q-17 58 -17 125q77 8 179 39q10 61 10 160v878h-226q-25 -148 -30 -264q-74 -19 -154 0q-30 205 -22 418zM713 170h135q101 0 164 12t78 25q79 66 79 205q0 109 -83.5 174t-225.5 65q-74 0 -147 -6v-475z" />
<glyph unicode="&#x42b;" horiz-adv-x="1857" d="M45 123q75 8 178 39q10 49 10 160v606q0 155 -10 282q-103 31 -178 39q0 70 16 125q41 0 139 -2t158 -2q263 0 349 4q15 -58 12 -125q-108 -31 -223 -39q-9 -114 -9 -282v-119q109 16 209 16q194 0 318.5 -107.5t124.5 -260.5q0 -67 -22.5 -134t-66.5 -126t-103 -105 t-138 -73t-166 -27q-43 0 -134 5t-151 5t-158 -2t-139 -2q-16 55 -16 125zM487 170h115q86 0 140 12t65 25q67 70 67 205q0 109 -73.5 174t-198.5 65q-41 0 -115 -4v-477zM1184 123q75 8 178 39q10 49 10 125v641q0 155 -10 282q-103 31 -178 39q0 70 16 125q41 0 139 -2 t158 -2q219 0 291 4q15 -58 12 -125q-84 -31 -166 -39q-8 -101 -8 -282v-596q0 -99 8 -170q82 -8 166 -39q3 -67 -12 -125q-72 4 -291 4q-60 0 -158 -2t-139 -2q-16 55 -16 125z" />
<glyph unicode="&#x42c;" horiz-adv-x="1232" d="M45 123q75 8 178 39q10 49 10 160v606q0 155 -10 282q-103 31 -178 39q0 70 16 125q41 0 139 -2t158 -2q263 0 349 4q15 -58 12 -125q-108 -31 -223 -39q-9 -114 -9 -282v-123q117 20 254 20q211 0 339 -107t128 -261q0 -85 -36.5 -167t-102 -149t-167.5 -108t-222 -41 q-48 0 -151 5t-171 5q-60 0 -158 -2t-139 -2q-16 55 -16 125zM487 170h136q101 0 164.5 12t76.5 25q80 66 80 205q0 109 -83.5 174t-225.5 65q-75 0 -148 -6v-475z" />
<glyph unicode="&#x42d;" horiz-adv-x="1226" d="M72 35q0 218 30 377q68 20 150 10q12 -129 47 -240q74 -18 186 -18q70 0 144.5 17t103.5 38q21 19 45.5 52.5t50.5 84t43.5 122t18.5 147.5l-453 -17l-22 23q0 103 22 170l443 -17q-28 194 -128.5 309t-275.5 115q-87 0 -162 -16q-25 -79 -32 -209q-76 -22 -150 -2 q-42 134 -45 311q210 111 434 111q125 0 229.5 -35t178.5 -97.5t125.5 -149t76.5 -189.5t25 -219q0 -111 -30 -219t-90 -202.5t-143 -166.5t-197 -114t-244 -42q-199 0 -381 66z" />
<glyph unicode="&#x42e;" horiz-adv-x="2027" d="M45 123q75 8 178 39q10 49 10 125v641q0 155 -10 282q-103 31 -178 39q0 70 16 125q41 0 139 -2t158 -2q219 0 291 4q16 -62 13 -125q-84 -31 -166 -39q-9 -114 -9 -282v-146h281q18 121 68 232t126 200t184 142t230 53q110 0 204 -35t163 -98t118 -149.5t73 -192 t24 -223.5q0 -107 -27 -214.5t-81 -203t-127 -169.5t-172 -117.5t-210 -43.5q-135 0 -244 51t-181 141t-111.5 210t-44.5 262h-273v-295q0 -90 9 -170q82 -8 166 -39q3 -63 -13 -125q-72 4 -291 4q-60 0 -158 -2t-139 -2q-16 55 -16 125zM1026 745q0 -121 21 -224 t63.5 -185.5t115 -130t167.5 -47.5q48 0 103.5 20t74.5 43q50 63 85.5 166.5t35.5 239.5q0 121 -21 224t-63.5 185.5t-115 130t-167.5 47.5q-48 0 -103.5 -20t-74.5 -43q-50 -63 -85.5 -166.5t-35.5 -239.5z" />
<glyph unicode="&#x42f;" horiz-adv-x="1302" d="M16 123q76 27 172 39l234 432q-129 41 -203 128.5t-74 211.5q0 81 37.5 162t99 143.5t147 101.5t175.5 39q46 0 168 -5t174 -5q217 0 289 4q15 -58 12 -125q-84 -31 -166 -39q-8 -101 -8 -282v-596q0 -99 8 -170q82 -8 166 -39q3 -67 -12 -125q-72 4 -291 4 q-60 0 -158 -2t-139 -2q-16 55 -16 125q75 8 178 39q10 49 10 125v288q-98 -10 -188 -10h-13l-233 -565h-98q-176 0 -256 -4q-15 56 -15 127zM412 987q0 -108 83.5 -176t211.5 -68q66 0 112 5v452q-95 6 -190 6q-44 0 -90.5 -10.5t-59.5 -21.5q-67 -58 -67 -187z" />
<glyph unicode="&#x430;" horiz-adv-x="1056" d="M63 223q0 80 52 149t139 117t178 80.5t191 53.5q-3 111 -35 169t-109 58q-85 0 -139 -12q-16 -56 -16 -158q-82 -40 -156 -21q-59 97 -59 236q190 111 415 111q44 0 85 -6.5t90 -28t85 -56t60 -96.5t24 -143v-369q0 -81 9 -149q45 6 131 26q36 -32 36 -82 q-56 -56 -130.5 -93.5t-143.5 -37.5q-35 0 -68 38.5t-55 101.5q-78 -64 -161.5 -102t-153.5 -38q-127 0 -198 65.5t-71 186.5zM317 287q0 -54 36 -90.5t102 -36.5q73 0 168 71v230q-91 -12 -169 -31t-96 -33t-29.5 -47t-11.5 -63z" />
<glyph unicode="&#x431;" horiz-adv-x="1099" d="M84 651q0 685 451 750q121 19 181 59t54 105q31 31 107 28q65 -102 65 -219q0 -52 -39.5 -86t-107 -50t-138.5 -26t-154 -25t-134 -36q-39 -15 -70 -112.5t-39 -227.5q147 160 350 160q195 0 308.5 -133t113.5 -344q0 -92 -33.5 -184t-93.5 -168t-153.5 -123.5 t-202.5 -47.5q-241 0 -353 171.5t-112 508.5zM334 520q0 -92 28 -176t86 -141.5t132 -57.5q31 0 66.5 8.5t49.5 24.5q38 41 62 110t24 148q0 60 -13 120t-38.5 116t-73 90.5t-108.5 34.5q-118 0 -166.5 -69t-48.5 -208z" />
<glyph unicode="&#x432;" horiz-adv-x="1132" d="M61 117q80 9 162 37q10 39 10 112v447q0 63 -8 112q-88 29 -164 37q0 66 15 119q35 0 125.5 -2t148.5 -2q73 0 186.5 4t151.5 4q133 0 219 -65t86 -164q0 -67 -39 -120t-133 -93q110 -21 172 -84.5t62 -143.5q0 -136 -119 -228.5t-311 -92.5q-39 0 -125 4t-140 4 q-61 0 -155 -2t-129 -2q-15 49 -15 119zM473 145h78q173 0 201 23q53 33 53 131q0 143 -215 143h-117v-297zM473 580h70q103 0 152.5 37.5t49.5 93.5q0 54 -40 88.5t-109 34.5q-21 0 -62.5 -1.5t-60.5 -1.5v-251z" />
<glyph unicode="&#x433;" horiz-adv-x="974" d="M61 117q80 9 162 37q10 39 10 112v447q0 63 -8 112q-88 29 -164 37q0 66 15 119q36 0 124.5 -2t141.5 -2h186q186 0 404 4l18 -20q6 -170 -22 -320q-82 -18 -144 0q-7 110 -26 190h-285l6 -522q0 -81 6 -155q117 -10 193 -37q0 -87 -14 -119q-122 4 -310 4q-56 0 -149 -2 t-129 -2q-15 49 -15 119z" />
<glyph unicode="&#x434;" horiz-adv-x="1228" d="M25 133l20 21l162 -4q82 146 123 308t57 365q-98 30 -160 39q0 66 15 119q37 0 127.5 -2t146.5 -2h344q133 0 281 4q10 -44 10 -119q-66 -28 -154 -37q-6 -71 -6 -153v-522l189 4l22 -21q3 -237 -18 -430q-72 -17 -148 0q-6 101 -32 299h-781q-28 -187 -33 -299 q-77 -16 -149 0q-19 203 -16 430zM389 150h72h284v677h-186q-34 -404 -170 -677z" />
<glyph unicode="&#x435;" horiz-adv-x="999" d="M70 467q0 132 59 255.5t168.5 204.5t241.5 81q87 0 155 -24.5t110 -63.5t69.5 -92t38 -105t10.5 -107q0 -74 -15 -118l-22 -21q-238 4 -428 4h-140q5 -60 21.5 -114t46 -102t80.5 -76.5t117 -28.5q119 0 297 71q39 -33 45 -104q-81 -63 -195.5 -109.5t-214.5 -46.5 q-113 0 -200 38.5t-139.5 106.5t-78.5 156.5t-26 194.5zM322 614h106q157 0 246 7q0 48 -7 84.5t-24.5 69t-52.5 50t-86 17.5q-25 0 -57.5 -10.5t-45.5 -24.5q-63 -80 -79 -193z" />
<glyph unicode="&#x436;" horiz-adv-x="1751" d="M2 39q-8 48 23 104q30 -6 55 -6q48 0 82.5 16t70.5 58q104 129 203 313l-135 260q-78 6 -166 -6q-25 29 -37 71t-6 79q100 73 213 73q49 0 86.5 -28t62.5 -75.5t44.5 -97t43.5 -107.5t48 -93q22 -31 162 -31h6v144q0 63 -8 112q-73 28 -144 37q0 66 12 119q34 0 116.5 -2 t133.5 -2q122 0 254 4q11 -48 11 -119q-58 -28 -134 -37q-4 -94 -4 -153v-103h4q140 0 162 31q24 35 48 93t43.5 107.5t44.5 97t62.5 75.5t86.5 28q111 0 215 -73q5 -37 -7.5 -79t-37.5 -71q-88 12 -166 6l-133 -260q103 -192 201 -313q36 -42 70.5 -58t82.5 -16q28 0 58 6 q28 -52 20 -104q-39 -22 -124.5 -42t-166.5 -20t-164.5 121.5t-158.5 321.5h-140v-111q0 -57 4 -155q79 -10 131 -37q0 -81 -10 -119q-102 4 -246 4q-52 0 -137 -2t-119 -2q-12 47 -12 119q71 9 144 37q8 41 8 112v154h-142q-49 -129 -100 -225t-109.5 -157t-111.5 -61 q-82 0 -168 20t-125 42z" />
<glyph unicode="&#x437;" horiz-adv-x="978" d="M57 39q3 131 80 205l27 10q71 -44 151 -71t146 -27q119 0 153 24q41 30 41 107q0 45 -26 84.5t-72 62.5l-184 -20l-21 20q-20 89 23 154l184 -10q78 44 78 133q0 58 -50 96.5t-138 38.5q-92 0 -158 -12q-15 -68 -15 -152q-82 -40 -155 -20q-59 93 -62 229 q189 110 449 110q169 0 264.5 -67t95.5 -189q0 -124 -112 -206q141 -79 141 -209q0 -104 -63.5 -185t-171.5 -124.5t-240 -43.5q-232 0 -365 62z" />
<glyph unicode="&#x438;" horiz-adv-x="1382" d="M61 117q80 9 162 37q8 41 8 112v447q0 63 -8 112q-84 28 -162 37q0 66 15 119q36 0 124.5 -2t143.5 -2q124 0 260 4q10 -44 10 -119q-61 -28 -135 -37q-6 -71 -6 -153v-211l-18 -180h4l418 694q43 2 143 2q136 0 280 4q13 -46 13 -119q-71 -28 -154 -37q-6 -70 -6 -153 v-363q0 -81 6 -155q91 -10 150 -37q0 -82 -13 -119q-106 4 -266 4q-50 0 -137 -2t-123 -2q-12 47 -12 119q70 9 143 37q10 39 10 112v328l23 178h-6l-461 -768q-37 -2 -113 -2q-55 0 -148.5 -2t-129.5 -2q-15 49 -15 119z" />
<glyph unicode="&#x439;" horiz-adv-x="1382" d="M61 117q80 9 162 37q8 41 8 112v447q0 63 -8 112q-84 28 -162 37q0 66 15 119q36 0 124.5 -2t143.5 -2q124 0 260 4q10 -44 10 -119q-61 -28 -135 -37q-6 -71 -6 -153v-211l-18 -180h4l418 694q43 2 143 2q136 0 280 4q13 -46 13 -119q-71 -28 -154 -37q-6 -70 -6 -153 v-363q0 -81 6 -155q91 -10 150 -37q0 -82 -13 -119q-106 4 -266 4q-50 0 -137 -2t-123 -2q-12 47 -12 119q70 9 143 37q10 39 10 112v328l23 178h-6l-461 -768q-37 -2 -113 -2q-55 0 -148.5 -2t-129.5 -2q-15 49 -15 119zM381 1399q29 34 88 46t115 -5v-25q0 -68 34.5 -116 t94.5 -48q68 0 94 33q11 14 20 58t9 83v15q52 18 113 5.5t93 -48.5q-3 -122 -98 -194.5t-252 -72.5q-146 0 -227 70.5t-84 198.5z" />
<glyph unicode="&#x43a;" horiz-adv-x="1261" d="M61 117q80 9 162 37q10 39 10 112v447q0 63 -8 112q-88 29 -164 37q0 66 15 119q36 0 126 -2t146 -2q135 0 279 4q12 -42 12 -119q-71 -28 -154 -37q-6 -71 -6 -153v-103h31q140 0 162 31q24 35 48.5 93t43.5 107.5t44 97t62 75.5t86 28q111 0 215 -73q5 -38 -7 -80 t-38 -70q-88 12 -165 6l-134 -262q105 -196 201 -311q38 -42 72 -58t82 -16q27 0 57 6q29 -53 21 -104q-37 -21 -123.5 -41.5t-167.5 -20.5q-82 0 -168.5 122t-161.5 321h-160v-111q0 -81 6 -155q90 -10 152 -37q0 -85 -12 -119q-110 4 -271 4q-56 0 -149 -2t-129 -2 q-15 49 -15 119z" />
<glyph unicode="&#x43b;" horiz-adv-x="1212" d="M4 158q7 35 33 69t61 56q75 -47 144 -70q120 217 147 608q-88 30 -164 41q0 66 15 119q37 0 127 -2t145 -2h338q132 0 280 4q11 -48 11 -119q-66 -28 -154 -37q-6 -71 -6 -153v-363q0 -81 6 -155q90 -10 152 -37q0 -82 -13 -119q-110 4 -270 4q-58 0 -153.5 -2t-133.5 -2 q-14 45 -14 119q84 9 170 37q10 39 10 112v561h-174q-10 -159 -46.5 -318.5t-83 -275.5t-98.5 -189t-95 -73q-59 0 -124.5 56.5t-109.5 130.5z" />
<glyph unicode="&#x43c;" horiz-adv-x="1615" d="M37 117q75 8 162 37l86 671q-86 28 -164 37q0 74 14 119q34 0 117 -2t135 -2q166 0 225 -2l164 -514l23 -170h4l207 684q63 2 215 2q124 0 268 4q10 -46 10 -119q-73 -28 -155 -37l82 -671q84 -9 149 -37q0 -75 -12 -119q-126 4 -254 4q-47 0 -129.5 -2t-118.5 -2 q-12 49 -12 119l137 37l-64 501l-2 168h-8l-237 -805q-95 -26 -187 -26l-198 663l-31 168h-6l-80 -669l129 -37q3 -57 -10 -119q-126 4 -234 4q-33 0 -104.5 -2t-106.5 -2q-14 57 -14 119z" />
<glyph unicode="&#x43d;" horiz-adv-x="1378" d="M61 117q80 9 162 37q10 39 10 112v447q0 63 -8 112q-88 29 -164 37q0 66 15 119q36 0 126 -2t146 -2q133 0 273 4q12 -42 12 -119q-67 -28 -148 -37q-6 -71 -6 -153v-90h422v131q0 63 -8 112q-80 28 -158 37q0 66 15 119q36 0 124 -2t142 -2q136 0 280 4q11 -48 11 -119 q-66 -28 -154 -37q-6 -70 -6 -153v-363q0 -81 6 -155q93 -10 152 -37q0 -82 -13 -119q-110 4 -270 4q-54 0 -145 -2t-127 -2q-15 58 -15 119q80 9 158 37q8 41 8 112v158q-139 8 -305 8h-117v-123q0 -81 6 -155q88 -10 146 -37q0 -82 -13 -119q-110 4 -264 4q-56 0 -149 -2 t-129 -2q-15 49 -15 119z" />
<glyph unicode="&#x43e;" horiz-adv-x="1087" d="M70 473q0 96 33.5 190t93.5 171.5t154.5 125.5t205.5 48q153 0 258.5 -66.5t154 -177.5t48.5 -258q0 -96 -33.5 -190t-94 -171.5t-155 -125.5t-205.5 -48q-224 0 -342 137.5t-118 364.5zM319 526q0 -64 13.5 -127.5t41 -122t77 -95t114.5 -36.5q33 0 69 9t48 26 q38 45 62 117.5t24 155.5q0 64 -13.5 127.5t-41 122t-77 95t-114.5 36.5q-33 0 -68.5 -8.5t-47.5 -24.5q-38 -45 -62.5 -118.5t-24.5 -156.5z" />
<glyph unicode="&#x43f;" horiz-adv-x="1323" d="M61 117q80 9 162 37q10 39 10 112v447q0 63 -8 112q-88 29 -164 37q0 66 15 119q36 0 126 -2t146 -2h613q136 0 280 4q10 -44 10 -119q-68 -28 -153 -37q-6 -70 -6 -153v-363q0 -81 6 -155q92 -10 151 -37q0 -85 -12 -119q-106 4 -260 4q-52 0 -138 -2t-120 -2 q-12 47 -12 119q54 7 133 37q8 41 8 112v565h-369v-522q0 -81 6 -155q75 -10 127 -37q0 -85 -12 -119q-98 4 -246 4q-56 0 -149 -2t-129 -2q-15 49 -15 119z" />
<glyph unicode="&#x440;" horiz-adv-x="1183" d="M33 -395q89 9 164 35q8 60 8 114v1037q-72 22 -162 32q-19 60 -8 109q160 59 342 74l26 -17l27 -94q141 113 311 113q167 0 270 -135t103 -361q0 -128 -55.5 -250.5t-158.5 -203.5t-226 -81q-112 0 -223 68v-250q0 -79 6 -153q130 -7 241 -37q0 -81 -12 -119 q-226 4 -354 4q-64 0 -155.5 -2t-129.5 -2q-14 40 -14 119zM451 246q46 -42 105.5 -68t117.5 -26q31 0 61.5 11.5t40.5 24.5q40 49 64 120.5t24 148.5q0 97 -24 179.5t-75 136.5t-120 54q-79 0 -194 -61v-520z" />
<glyph unicode="&#x441;" horiz-adv-x="952" d="M70 473q0 75 21 150.5t62.5 143.5t98 120t133 83t162.5 31q195 0 344 -69q-6 -191 -53 -299q-98 -26 -158 8q-4 117 -12 176q-48 10 -129 10q-40 0 -80 -8t-56 -24q-37 -42 -60.5 -114.5t-23.5 -150.5q0 -64 13 -124.5t41.5 -118t81.5 -92.5t125 -35q114 0 284 69 q39 -36 45 -106q-76 -61 -188 -106.5t-211 -45.5q-113 0 -198.5 38.5t-137.5 107.5t-78 158.5t-26 197.5z" />
<glyph unicode="&#x442;" horiz-adv-x="1079" d="M25 961l20 20q222 -4 383 -4h223q161 0 383 4l21 -20q3 -173 -17 -340q-69 -16 -143 0q-9 100 -33 210h-198v-522q0 -81 6 -155q116 -10 192 -37q0 -87 -14 -119q-122 4 -309 4q-66 0 -172.5 -2t-147.5 -2q-16 45 -16 119q98 9 205 37q10 39 10 112v565h-201 q-24 -110 -33 -210q-72 -17 -143 0q-19 159 -16 340z" />
<glyph unicode="&#x443;" horiz-adv-x="1159" d="M25 862q0 68 14 119q24 0 96 -2t119 -2q25 0 121.5 2t171.5 2q17 -51 10 -119l-137 -37l166 -471l2 -170h6l219 643l-143 35q0 73 16 119q34 0 121.5 -2t144.5 -2q50 0 172 4q17 -61 11 -119q-51 -25 -125 -35l-295 -809q-44 -124 -87.5 -217.5t-94.5 -170t-109.5 -116.5 t-122.5 -40q-146 0 -231 47q-6 78 41 131h28q265 0 367 270l31 78h-80l-305 827q-47 23 -127 35z" />
<glyph unicode="&#x444;" horiz-adv-x="1421" d="M70 473q0 72 17 140.5t56.5 134.5t98.5 116.5t149.5 85t202.5 41.5v365q-108 26 -180 33q-16 56 -8 106q187 64 409 74l21 -21q-13 -422 -13 -555q194 -6 295 -57q234 -117 234 -428q0 -74 -17 -143t-57.5 -136t-100 -117.5t-150.5 -84t-204 -39.5v-193q0 -79 6 -153 q136 -7 246 -37q0 -81 -12 -119q-226 4 -348 4q-72 0 -181 -2t-155 -2q-17 49 -17 119q125 10 224 35q8 60 8 114v232q-192 6 -291 57q-233 117 -233 430zM311 524q0 -72 17 -137.5t50 -119.5t89 -87.5t127 -36.5v695q-56 0 -109 -10t-71 -27q-103 -100 -103 -277zM823 141 h2q55 0 110 11t73 28q102 95 102 275q0 72 -17.5 137.5t-51 120t-90 88t-128.5 37.5v-697z" />
<glyph unicode="&#x445;" horiz-adv-x="1185" d="M20 117q84 11 148 35l272 362l-250 313q-50 21 -145 35q0 68 14 119q25 0 105 -2t125 -2q29 0 64 0.5t96 1.5t116 2q17 -51 10 -119l-98 -31l170 -213l150 209l-109 35q0 70 17 119q28 0 108.5 -2t140.5 -2t162 4q18 -56 12 -119q-53 -25 -131 -35l-252 -331l275 -344 q85 -10 141 -35q6 -63 -12 -119q-126 4 -201 4q-82 0 -185 -2t-130 -2q-17 49 -17 119l113 35l-188 235l-170 -235l127 -35q3 -71 -11 -119q-208 4 -231 4q-42 0 -118.5 -2t-102.5 -2q-15 54 -15 119z" />
<glyph unicode="&#x446;" horiz-adv-x="1325" d="M61 117q80 9 162 37q10 39 10 112v447q0 63 -8 112q-88 29 -164 37q0 66 15 119q36 0 123.5 -2t142.5 -2q128 0 254 4q10 -44 10 -119q-54 -28 -121 -37q-6 -71 -6 -153v-522h363v563q0 63 -8 112q-67 28 -134 37q0 66 15 119q33 0 115 -2t133 -2q130 0 274 4 q10 -44 10 -119q-67 -28 -153 -37q-7 -82 -7 -153v-522l189 4l22 -21q3 -237 -18 -430q-71 -17 -147 0q-5 87 -33 299h-746q-56 0 -149 -2t-129 -2q-15 49 -15 119z" />
<glyph unicode="&#x447;" horiz-adv-x="1236" d="M10 862q0 60 15 119q34 0 122.5 -2t145.5 -2q125 0 235 4q13 -46 13 -119q-60 -29 -125 -37v-135q0 -80 46.5 -117.5t125.5 -37.5q87 0 172 40v138q0 63 -8 112q-57 28 -117 37q0 66 12 119q31 0 108.5 -2t125.5 -2q130 0 274 4q10 -44 10 -119q-68 -28 -153 -37 q-6 -71 -6 -153v-363q0 -81 6 -155q92 -10 151 -37q0 -85 -12 -119q-110 4 -270 4q-63 0 -168.5 -2t-145.5 -2q-16 45 -16 119q95 9 199 37q10 39 10 112v172q-127 -65 -279 -65q-148 0 -229.5 73.5t-81.5 217.5v159q-87 30 -160 39z" />
<glyph unicode="&#x448;" horiz-adv-x="1890" d="M61 117q80 9 162 37q10 39 10 112v447q0 63 -8 112q-88 29 -164 37q0 66 15 119q36 0 126 -2t146 -2q118 0 240 4q10 -44 10 -119q-60 -29 -113 -37q-6 -71 -6 -153v-522h344v563q0 63 -8 112q-65 29 -123 37q0 62 13 119q31 0 108 -2t125 -2q120 0 242 4q8 -47 8 -119 q-56 -29 -113 -37q-6 -71 -6 -153v-522h346v563q0 63 -8 112q-64 28 -125 37q0 66 12 119q32 0 109.5 -2t126.5 -2q134 0 278 4q13 -46 13 -119q-71 -28 -154 -37q-6 -70 -6 -153v-363q0 -81 6 -155q92 -10 150 -37q0 -82 -13 -119q-110 4 -268 4h-1182q-56 0 -149 -2 t-129 -2q-15 49 -15 119z" />
<glyph unicode="&#x449;" horiz-adv-x="1898" d="M61 117q80 9 162 37q10 39 10 112v447q0 63 -8 112q-88 29 -164 37q0 66 15 119q36 0 126 -2t146 -2q118 0 240 4q10 -44 10 -119q-60 -29 -113 -37q-6 -71 -6 -153v-522h344v563q0 63 -8 112q-65 29 -123 37q0 62 13 119q31 0 108 -2t125 -2q120 0 242 4q8 -47 8 -119 q-56 -29 -113 -37q-6 -71 -6 -153v-522h346v563q0 63 -8 112q-64 28 -125 37q0 70 14 119q31 0 108 -2t126 -2q134 0 278 4q13 -46 13 -119q-71 -28 -154 -37q-6 -70 -6 -153v-522l188 4l21 -21q3 -218 -17 -430q-74 -17 -149 0q-7 115 -35 299h-1315q-56 0 -149 -2t-129 -2 q-15 49 -15 119z" />
<glyph unicode="&#x44a;" horiz-adv-x="1284" d="M27 961l20 20q234 -4 492 -4q155 0 319 4q12 -42 12 -119q-86 -28 -194 -37q-6 -71 -6 -153v-41q88 16 174 16q182 0 295.5 -82.5t113.5 -210.5q0 -156 -125.5 -259t-326.5 -103q-38 0 -121 5t-139 5q-57 0 -148 -2t-127 -2q-14 45 -14 119q80 9 162 37q10 39 10 112v565 h-205q-25 -108 -31 -210q-79 -18 -145 0q-21 190 -16 340zM670 145h84q169 0 192 23q58 51 58 149q0 80 -63.5 123t-166.5 43q-38 0 -104 -4v-334z" />
<glyph unicode="&#x44b;" horiz-adv-x="1720" d="M61 117q80 9 162 37q10 39 10 112v447q0 63 -8 112q-88 29 -164 37q0 66 15 119q36 0 126 -2t146 -2q156 0 320 4q14 -41 14 -119q-90 -28 -197 -37q-6 -71 -6 -153v-39q82 14 148 14q173 0 285 -82.5t112 -210.5q0 -153 -123 -257.5t-313 -104.5q-34 0 -110 5t-128 5 q-56 0 -147 -2t-127 -2q-15 49 -15 119zM479 145h74q69 0 114 7t54 16q53 57 53 149q0 81 -57.5 123.5t-153.5 42.5q-57 0 -84 -2v-336zM1071 117q81 9 164 37q8 41 8 112v447q0 63 -8 112q-83 28 -164 37q0 70 14 119q37 0 127 -2t146 -2q136 0 280 4q11 -48 11 -119 q-66 -28 -154 -37q-6 -70 -6 -153v-363q0 -81 6 -155q93 -10 152 -37q0 -82 -13 -119q-110 4 -270 4q-56 0 -149 -2t-130 -2q-14 55 -14 119z" />
<glyph unicode="&#x44c;" horiz-adv-x="1093" d="M61 117q80 9 162 37q10 39 10 112v447q0 63 -8 112q-88 29 -164 37q0 66 15 119q36 0 126 -2t146 -2q156 0 320 4q14 -41 14 -119q-90 -28 -197 -37q-6 -71 -6 -153v-41q91 16 174 16q182 0 296 -82.5t114 -210.5q0 -156 -126 -259t-327 -103q-38 0 -121 5t-139 5 t-147 -2t-127 -2q-15 49 -15 119zM479 145h84q168 0 195 23q55 51 55 149q0 80 -63.5 123t-165.5 43q-39 0 -105 -4v-334z" />
<glyph unicode="&#x44d;" horiz-adv-x="993" d="M59 39q0 123 82 205l27 10q67 -45 146.5 -71.5t138.5 -26.5q44 0 84 7.5t53 20.5q34 34 56.5 103.5t27.5 148.5l-301 -22l-23 20q-17 90 25 154l289 -10q-10 55 -27.5 100.5t-46 84.5t-71.5 61t-97 22q-61 0 -127 -12q-16 -82 -16 -152q-75 -37 -156 -20q-60 99 -60 229 q182 110 416 110q114 0 200.5 -38t139 -106.5t79 -158.5t26.5 -198q0 -94 -36 -187t-99 -168t-159.5 -121.5t-207.5 -46.5q-233 0 -363 62z" />
<glyph unicode="&#x44e;" horiz-adv-x="1699" d="M61 117q80 9 162 37q10 39 10 112v447q0 63 -8 112q-88 29 -164 37q0 66 15 119q36 0 126 -2t146 -2q135 0 279 4q12 -42 12 -119q-71 -28 -154 -37q-6 -71 -6 -153v-90h242q16 83 54 158.5t95.5 136t139 96t174.5 35.5q148 0 250 -66.5t149 -177.5t47 -258 q0 -96 -32.5 -190t-91 -171.5t-150 -125.5t-199.5 -48q-208 0 -322.5 127.5t-123.5 339.5h-232v-129q0 -81 6 -155q90 -10 152 -37q0 -85 -12 -119q-110 4 -271 4q-56 0 -149 -2t-129 -2q-15 49 -15 119zM961 526q0 -64 12.5 -127.5t38 -122t71.5 -95t107 -36.5q31 0 64 9 t44 26q37 44 59.5 116.5t22.5 156.5q0 64 -12.5 127.5t-38 122t-71.5 95t-107 36.5q-31 0 -64.5 -8.5t-44.5 -24.5q-37 -46 -59 -118.5t-22 -156.5z" />
<glyph unicode="&#x44f;" horiz-adv-x="1191" d="M25 35q-6 33 5.5 70t32.5 61h39q196 0 291 246q-111 29 -174 96t-63 170q0 114 103.5 210.5t240.5 96.5q46 0 159 -4t175 -4q132 0 276 4q12 -42 12 -119q-71 -28 -153 -37q-6 -71 -6 -153v-363q0 -81 6 -155q90 -10 149 -37q0 -85 -12 -119q-110 4 -268 4 q-54 0 -144.5 -2t-126.5 -2q-14 55 -14 119q78 9 154 37q10 39 10 112v137q-78 -10 -156 -10q-69 -193 -146.5 -300t-172.5 -107q-141 0 -217 49zM408 709q0 -80 56.5 -120t141.5 -40q76 0 111 2v278q-127 5 -154 5q-92 0 -112 -17q-43 -37 -43 -108z" />
<glyph unicode="&#x450;" horiz-adv-x="999" d="M70 467q0 132 59 255.5t168.5 204.5t241.5 81q87 0 155 -24.5t110 -63.5t69.5 -92t38 -105t10.5 -107q0 -74 -15 -118l-22 -21q-238 4 -428 4h-140q5 -60 21.5 -114t46 -102t80.5 -76.5t117 -28.5q119 0 297 71q39 -33 45 -104q-81 -63 -195.5 -109.5t-214.5 -46.5 q-113 0 -200 38.5t-139.5 106.5t-78.5 156.5t-26 194.5zM221 1452l15 45q97 54 225 51l217 -381q-29 -67 -109 -80zM322 614h106q157 0 246 7q0 48 -7 84.5t-24.5 69t-52.5 50t-86 17.5q-25 0 -57.5 -10.5t-45.5 -24.5q-63 -80 -79 -193z" />
<glyph unicode="&#x451;" horiz-adv-x="999" d="M70 467q0 132 59 255.5t168.5 204.5t241.5 81q87 0 155 -24.5t110 -63.5t69.5 -92t38 -105t10.5 -107q0 -74 -15 -118l-22 -21q-238 4 -428 4h-140q5 -60 21.5 -114t46 -102t80.5 -76.5t117 -28.5q119 0 297 71q39 -33 45 -104q-81 -63 -195.5 -109.5t-214.5 -46.5 q-113 0 -200 38.5t-139.5 106.5t-78.5 156.5t-26 194.5zM184 1249q0 64 44 117t108 53q48 0 88.5 -35t40.5 -84q0 -64 -45 -115t-107 -52q-51 0 -90 34t-39 82zM322 614h106q157 0 246 7q0 48 -7 84.5t-24.5 69t-52.5 50t-86 17.5q-25 0 -57.5 -10.5t-45.5 -24.5 q-63 -80 -79 -193zM592 1249q0 63 45 116.5t106 53.5q52 0 90.5 -34.5t38.5 -84.5q0 -65 -43 -115.5t-108 -51.5q-47 0 -88 34.5t-41 81.5z" />
<glyph unicode="&#x452;" horiz-adv-x="1189" d="M31 117q89 9 164 35q8 60 8 114v830h-166q-23 76 0 143h166v117q-97 26 -162 33q-19 55 -8 106q181 64 401 74l23 -21q-4 -118 -8 -309h294q18 -73 0 -143h-294v-142v-90q139 109 266 109q78 0 146 -31t122.5 -91.5t86.5 -162t32 -231.5q0 -152 -25.5 -284t-71.5 -235.5 t-115 -192.5t-149 -156.5t-180 -125.5q-55 29 -61 88q180 174 265 373t85 451q0 203 -59.5 310.5t-165.5 107.5q-79 0 -176 -64v-422q0 -79 6 -153q84 -10 143 -37q0 -85 -12 -119q-106 4 -256 4q-65 0 -158 -2t-127 -2q-14 35 -14 119z" />
<glyph unicode="&#x453;" horiz-adv-x="974" d="M61 117q80 9 162 37q10 39 10 112v447q0 63 -8 112q-88 29 -164 37q0 66 15 119q36 0 124.5 -2t141.5 -2h186q186 0 404 4l18 -20q6 -170 -22 -320q-82 -18 -144 0q-7 110 -26 190h-285l6 -522q0 -81 6 -155q117 -10 193 -37q0 -87 -14 -119q-122 4 -310 4q-56 0 -149 -2 t-129 -2q-15 49 -15 119zM379 1155l207 342q113 27 256 27l20 -56l-387 -389q-68 9 -96 76z" />
<glyph unicode="&#x454;" horiz-adv-x="964" d="M70 473q0 95 34 188.5t95 169.5t154 123t202 47q199 0 348 -69q-7 -166 -53 -270q-98 -26 -158 8q-4 97 -12 147q-52 10 -133 10q-41 0 -83 -8t-58 -24q-35 -39 -59 -103.5t-28 -136.5l308 25l20 -21q20 -89 -22 -153l-295 10q23 -111 85 -183.5t171 -72.5q118 0 291 69 q39 -36 45 -106q-78 -61 -191.5 -106.5t-212.5 -45.5q-115 0 -202.5 38.5t-140.5 107.5t-79 158.5t-26 197.5z" />
<glyph unicode="&#x455;" horiz-adv-x="899" d="M70 35q0 160 39 307q68 24 145 0q2 -70 18 -186q55 -25 160 -25q90 0 122 26t32 91q0 47 -32.5 77t-98.5 58q-21 9 -61 24.5t-63 25t-58 26.5t-56 31.5t-45.5 37t-38 46.5t-22.5 56.5t-9 69.5q0 65 23 117.5t60.5 86t87.5 56t102.5 32t107.5 9.5q208 0 332 -38 q0 -152 -39 -277q-79 -19 -145 4q-10 86 -33 156q-43 16 -104 16q-54 0 -87.5 -7.5t-47.5 -24t-17.5 -30t-3.5 -36.5q0 -37 27 -66t70.5 -49.5t96 -40.5t105.5 -46t96.5 -58t70.5 -83t27 -116q0 -158 -114 -243t-297 -85q-212 0 -350 58z" />
<glyph unicode="&#x456;" horiz-adv-x="684" d="M61 117q80 8 164 37q8 55 8 112v529q-91 24 -161 32q-17 59 -9 107q181 64 402 74l22 -21q-8 -273 -8 -590v-90q0 -79 6 -153q92 -10 154 -37q0 -85 -12 -119q-110 4 -267 4q-65 0 -157.5 -2t-126.5 -2q-15 38 -15 119zM180 1276q0 68 52 130t118 62q58 0 104 -38.5 t46 -96.5q0 -70 -51 -130t-121 -60q-54 0 -101 39t-47 94z" />
<glyph unicode="&#x457;" horiz-adv-x="684" d="M27 1249q0 62 42 115t103 53q44 0 82.5 -35.5t38.5 -81.5q0 -63 -43 -112.5t-103 -50.5q-46 0 -83 33t-37 79zM61 117q80 8 164 37q8 55 8 112v529q-91 24 -161 32q-17 59 -9 107q181 64 402 74l22 -21q-8 -273 -8 -590v-90q0 -79 6 -153q92 -10 154 -37q0 -85 -12 -119 q-110 4 -267 4q-65 0 -157.5 -2t-126.5 -2q-15 38 -15 119zM383 1249q0 61 43 114.5t102 53.5q48 0 85.5 -35t37.5 -82q0 -64 -41 -113t-104 -50q-45 0 -84 33.5t-39 78.5z" />
<glyph unicode="&#x458;" horiz-adv-x="618" d="M-12 -449q105 78 161 199t56 305v740q-90 24 -162 32q-16 57 -8 107q181 64 403 74l21 -21q-8 -320 -8 -606v-354q0 -129 -35 -230t-96 -166t-129.5 -105t-151.5 -63q-51 26 -51 88zM152 1276q0 68 52 130t120 62q57 0 102 -38.5t45 -96.5q0 -70 -51 -130t-121 -60 q-54 0 -100.5 39t-46.5 94z" />
<glyph unicode="&#x459;" horiz-adv-x="1548" d="M4 158q7 35 33 69t61 56q75 -47 144 -70q120 217 147 608q-88 30 -164 41q0 66 15 119q37 0 127 -2t145 -2h328q155 0 319 4q15 -44 15 -119q-90 -28 -197 -37q-6 -71 -6 -153v-39q82 14 149 14q172 0 284 -83t112 -210q0 -153 -123 -257.5t-312 -104.5q-35 0 -111 5 t-128 5q-56 0 -148 -2t-127 -2q-14 45 -14 119q80 9 162 37q10 39 10 112v561h-164q-10 -159 -46.5 -318.5t-83 -275.5t-98.5 -189t-95 -73q-59 0 -124.5 56.5t-109.5 130.5zM971 145h73q142 0 170 23q52 60 52 149q0 81 -57.5 123.5t-153.5 42.5q-30 0 -84 -4v-334z" />
<glyph unicode="&#x45a;" horiz-adv-x="1720" d="M61 117q80 9 162 37q10 39 10 112v447q0 63 -8 112q-88 29 -164 37q0 66 15 119q36 0 126 -2t146 -2q135 0 279 4q12 -42 12 -119q-71 -28 -154 -37q-6 -71 -6 -153v-90h418v131q0 63 -8 112q-83 28 -164 37q0 70 14 119q37 0 127 -2t146 -2q153 0 321 4q13 -46 13 -119 q-90 -28 -197 -37q-6 -70 -6 -153v-39q82 14 149 14q172 0 284 -83t112 -210q0 -153 -123 -257.5t-312 -104.5q-35 0 -111 5t-128 5q-56 0 -147 -2t-128 -2q-14 55 -14 119q81 9 164 37q8 41 8 112v158q-139 8 -305 8h-113v-123q0 -81 6 -155q90 -10 152 -37q0 -85 -12 -119 q-110 4 -271 4q-56 0 -149 -2t-129 -2q-15 49 -15 119zM1143 145h74q146 0 169 23q54 58 54 149q0 81 -58.5 123.5t-154.5 42.5q-30 0 -84 -4v-334z" />
<glyph unicode="&#x45b;" horiz-adv-x="1249" d="M31 117q89 9 164 35q8 60 8 114v830h-166q-23 76 0 143h166v117q-97 26 -162 33q-19 55 -8 106q181 64 401 74l23 -21q-4 -118 -8 -309h294q18 -73 0 -143h-294v-142v-63q157 82 309 82q132 0 218.5 -78t86.5 -231v-357q0 -79 6 -153q93 -10 154 -37q0 -85 -15 -119 q-106 4 -262 4q-56 0 -138.5 -2t-113.5 -2q-12 30 -12 119q79 15 127 35q8 60 8 114v295q0 56 -6 94t-23.5 71.5t-53 50t-89.5 16.5q-98 0 -196 -37v-449q0 -79 6 -153q84 -10 143 -37q0 -85 -12 -119q-106 4 -256 4q-65 0 -158 -2t-127 -2q-14 35 -14 119z" />
<glyph unicode="&#x45c;" horiz-adv-x="1261" d="M61 117q80 9 162 37q10 39 10 112v447q0 63 -8 112q-88 29 -164 37q0 66 15 119q36 0 126 -2t146 -2q135 0 279 4q12 -42 12 -119q-71 -28 -154 -37q-6 -71 -6 -153v-103h31q140 0 162 31q24 35 48.5 93t43.5 107.5t44 97t62 75.5t86 28q111 0 215 -73q5 -38 -7 -80 t-38 -70q-88 12 -165 6l-134 -262q105 -196 201 -311q38 -42 72 -58t82 -16q27 0 57 6q29 -53 21 -104q-37 -21 -123.5 -41.5t-167.5 -20.5q-82 0 -168.5 122t-161.5 321h-160v-111q0 -81 6 -155q90 -10 152 -37q0 -85 -12 -119q-110 4 -271 4q-56 0 -149 -2t-129 -2 q-15 49 -15 119zM524 1155l207 342q113 27 256 27l21 -56l-387 -389q-69 9 -97 76z" />
<glyph unicode="&#x45d;" horiz-adv-x="1390" d="M61 117q80 9 162 37q8 41 8 112v447q0 63 -8 112q-84 28 -162 37q0 66 15 119q36 0 124.5 -2t143.5 -2q124 0 260 4q10 -44 10 -119q-61 -28 -135 -37q-6 -71 -6 -153v-211l-18 -180h4l418 694q43 2 143 2q136 0 280 4q13 -46 13 -119q-71 -28 -154 -37q-6 -70 -6 -153 v-363q0 -81 6 -155q91 -10 150 -37q0 -82 -13 -119q-106 4 -266 4q-50 0 -137 -2t-123 -2q-12 47 -12 119q70 9 143 37q10 39 10 112v328l23 178h-6l-461 -768q-37 -2 -113 -2q-55 0 -148.5 -2t-129.5 -2q-15 49 -15 119zM399 1452l15 45q97 54 225 51l217 -381 q-29 -68 -108 -80z" />
<glyph unicode="&#x45e;" horiz-adv-x="1159" d="M25 862q0 68 14 119q24 0 96 -2t119 -2q25 0 121.5 2t171.5 2q17 -51 10 -119l-137 -37l166 -471l2 -170h6l219 643l-143 35q0 73 16 119q34 0 121.5 -2t144.5 -2q50 0 172 4q17 -61 11 -119q-51 -25 -125 -35l-295 -809q-44 -124 -87.5 -217.5t-94.5 -170t-109.5 -116.5 t-122.5 -40q-146 0 -231 47q-6 78 41 131h28q265 0 367 270l31 78h-80l-305 827q-47 23 -127 35zM270 1399q29 34 88 46t115 -5v-25q0 -68 34.5 -116t94.5 -48q68 0 94 33q11 14 20 58t9 83v15q52 18 113.5 5.5t93.5 -48.5q-3 -122 -98 -194.5t-252 -72.5 q-146 0 -227.5 70.5t-84.5 198.5z" />
<glyph unicode="&#x45f;" horiz-adv-x="1318" d="M61 117q80 9 162 37q10 39 10 112v447q0 63 -8 112q-88 29 -164 37q0 66 15 119q36 0 126 -2t146 -2q122 0 248 4q10 -44 10 -119q-54 -28 -121 -37q-6 -71 -6 -153v-522h363v563q0 57 -6 112q-71 28 -136 37q0 66 15 119q32 0 111.5 -2t129.5 -2q133 0 281 4 q10 -44 10 -119q-67 -28 -153 -37q-7 -82 -7 -153v-363q0 -69 7 -155q89 -10 151 -37q0 -85 -12 -119q-110 4 -270 4h-189q-29 -206 -33 -319q-79 -19 -161 0q-3 87 -31 319h-195q-56 0 -149 -2t-129 -2q-15 49 -15 119z" />
<glyph unicode="&#x462;" horiz-adv-x="1529" d="M27 1253l20 23q125 -4 473 -4v125q-98 30 -188 39q0 65 16 120q41 0 138.5 -2t158.5 -2q217 0 291 4q15 -58 12 -120q-82 -30 -174 -39v-125h68q354 0 481 4l20 -23q7 -162 -22 -331q-86 -17 -154 -2q-6 89 -30 188h-363v-344q117 18 236 18q207 0 338 -103.5t131 -248.5 q0 -79 -38 -157t-104.5 -140.5t-167 -101.5t-215.5 -39q-47 0 -146.5 5t-162.5 5q-71 0 -186.5 -2t-163.5 -2q-21 54 -21 125q94 7 236 39q10 61 10 160v786h-287q-25 -149 -30 -264q-74 -19 -154 0q-29 205 -22 409zM774 166h129q66 0 120.5 6.5t80.5 14t33 14.5 q77 70 77 188q0 100 -82 159.5t-223 59.5q-67 0 -135 -6v-436z" />
<glyph unicode="&#x463;" horiz-adv-x="1316" d="M27 967l20 20q180 -4 377 -4v287q-97 26 -162 33q-19 55 -8 106q181 64 401 74l23 -21q-8 -224 -8 -479h35q189 0 401 4l20 -20q6 -123 -24 -248q-80 -18 -141 0q-5 55 -25 119h-266v-240q77 12 159 12q179 0 292.5 -77.5t113.5 -198.5q0 -140 -122 -241t-314 -101 q-43 0 -125 5t-133 5q-57 0 -148 -2t-127 -2q-14 45 -14 119q80 9 162 37q10 39 10 112v572h-205q-25 -108 -31 -211q-79 -18 -145 0q-21 190 -16 340zM670 145h78q165 0 186 21q55 51 55 139q0 75 -61.5 116.5t-161.5 41.5q-34 0 -96 -4v-314z" />
<glyph unicode="&#x472;" horiz-adv-x="1417" d="M70 662q0 107 29 213.5t86 202.5t135 170t184 117.5t225 43.5q194 0 336 -93t212.5 -249.5t70.5 -355.5q0 -107 -29 -214.5t-86.5 -203t-135 -169.5t-183.5 -117.5t-224 -43.5q-149 0 -268 54t-195 149t-116.5 221.5t-40.5 274.5zM336 780q136 70 237 70q67 0 132.5 -22 t137 -44t154.5 -22q47 0 76 2q-12 97 -41.5 177t-77.5 142t-120 96.5t-162 34.5q-54 0 -116 -20t-85 -43q-52 -58 -91 -153t-44 -218zM340 651q9 -105 37 -191.5t76 -155.5t123.5 -107.5t171.5 -38.5q53 0 115 20.5t83 42.5q56 62 95.5 166t39.5 240v8q-136 -70 -235 -70 q-54 0 -107 14t-91 31t-98.5 31t-127.5 14q-24 0 -82 -4z" />
<glyph unicode="&#x473;" horiz-adv-x="1087" d="M70 473q0 96 33.5 190t93.5 171.5t154.5 125.5t205.5 48q153 0 258.5 -66.5t154 -177.5t48.5 -258q0 -96 -33.5 -190t-94 -171.5t-155 -125.5t-205.5 -48q-224 0 -342 137.5t-118 364.5zM322 477q5 -62 20.5 -117.5t43.5 -105.5t74 -79.5t105 -29.5q33 0 69 9t48 26 q36 42 59.5 109t26.5 145q-71 -41 -141 -41q-37 0 -72 12.5t-60.5 28t-71.5 29t-101 14.5zM322 578q89 47 157 47q35 0 67 -12t55 -26.5t65 -27.5t94 -14q-8 56 -25.5 105t-45.5 91.5t-71 67.5t-96 25q-33 0 -68.5 -8.5t-47.5 -24.5q-72 -82 -84 -223z" />
<glyph unicode="&#x474;" horiz-adv-x="1454" d="M8 1249q0 67 17 125q41 0 138.5 -2t158.5 -2q240 0 342 4q17 -56 14 -125l-234 -37l283 -796l10 -197h6l312 975q46 142 114 205q168 -25 273 -103q9 -43 -5 -92t-42 -84l-172 19l-375 -1116q-104 -33 -238 -33l-438 1220q-97 32 -164 39z" />
<glyph unicode="&#x475;" horiz-adv-x="1208" d="M25 862q0 68 14 119q27 0 104 -2t127 -2q55 0 301 4q17 -54 11 -119l-162 -37l166 -471l2 -170h6l207 629q63 188 184 188q115 0 215 -73q6 -37 -6 -79t-37 -71q-91 12 -174 6l-270 -761q-125 -33 -252 -33l-309 837q-47 23 -127 35z" />
<glyph unicode="&#x490;" horiz-adv-x="1118" d="M45 123q75 8 178 39q10 49 10 160v606q0 155 -10 282q-103 31 -178 39q0 70 16 125q38 0 143 -2t177 -2h502q42 136 73 291q72 11 154 -12q0 -197 -23 -430l-22 -23q-127 4 -481 4h-97v-868q0 -90 9 -170q109 -8 223 -39q3 -69 -14 -125q-86 4 -343 4q-61 0 -160 -2 t-141 -2q-16 55 -16 125z" />
<glyph unicode="&#x491;" horiz-adv-x="974" d="M61 117q80 9 162 37q10 39 10 112v447q0 63 -8 112q-88 29 -164 37q0 66 15 119q36 0 124.5 -2t141.5 -2h397q42 105 66 229q62 12 141 -10q0 -203 -18 -346l-21 -23q-106 4 -389 4h-45l6 -522q0 -81 6 -155q117 -10 193 -37q0 -87 -14 -119q-122 4 -310 4q-56 0 -149 -2 t-129 -2q-15 49 -15 119z" />
<glyph unicode="&#x492;" horiz-adv-x="1093" d="M49 123q75 8 178 39q11 54 11 160v299h-168q-23 80 0 155h168v152q0 143 -11 282q-103 31 -178 39q0 67 17 125q41 0 140 -2t159 -2h210q355 0 482 4l20 -22q6 -230 -22 -402q-84 -18 -154 0q-6 125 -31 250h-378v-424h256q20 -78 0 -155h-256v-289q0 -99 8 -170 q109 -8 223 -39q3 -69 -14 -125q-86 4 -342 4q-61 0 -160 -2t-141 -2q-17 58 -17 125z" />
<glyph unicode="&#x493;" horiz-adv-x="978" d="M66 117q78 9 161 37q11 43 11 112v166h-156q-20 80 0 146h156v135q0 57 -9 112q-88 29 -163 37q0 70 14 119q36 0 124.5 -2t141.5 -2h186q186 0 404 4l18 -20q6 -170 -22 -320q-82 -18 -144 0q-7 110 -26 190h-285l2 -253h195q18 -73 0 -146h-193l2 -123q0 -81 6 -155 q117 -10 193 -37q0 -87 -14 -119q-122 4 -310 4q-56 0 -149 -2t-129 -2q-14 46 -14 119z" />
<glyph unicode="&#x496;" horiz-adv-x="1957" d="M12 123q69 26 162 39l328 563l-199 414l-203 -19q-29 34 -43 83t-6 93q114 78 293 103q56 -53 121 -191l203 -415h168v135q0 143 -11 282q-92 31 -163 39q0 70 16 125q40 0 132.5 -2t145.5 -2q205 0 275 4q15 -58 12 -125q-82 -32 -153 -39q-9 -123 -9 -311v-106h170 l201 415q70 140 123 191q181 -25 291 -103q9 -44 -4.5 -93t-42.5 -83l-203 19l-195 -408l326 -557l180 2l23 -20q5 -263 -25 -490q-92 -17 -160 0q-6 161 -32 336h-193l-352 625h-107v-295q0 -90 9 -170q71 -7 153 -39q3 -67 -12 -125q-70 4 -275 4q-53 0 -145.5 -2 t-132.5 -2q-16 55 -16 125q71 8 163 39q11 54 11 153v312h-109l-348 -627h-100q-174 0 -254 -4q-16 59 -13 127z" />
<glyph unicode="&#x497;" horiz-adv-x="1769" d="M2 39q-8 48 23 104q30 -6 55 -6q48 0 82.5 16t70.5 58q104 129 203 313l-135 260q-78 6 -166 -6q-25 29 -37 71t-6 79q100 73 213 73q49 0 86.5 -28t62.5 -75.5t44.5 -97t43.5 -107.5t48 -93q22 -31 162 -31h6v144q0 63 -8 112q-73 28 -144 37q0 66 12 119q34 0 116.5 -2 t133.5 -2q122 0 254 4q11 -48 11 -119q-58 -28 -134 -37q-4 -94 -4 -153v-103h4q140 0 162 31q24 35 48 93t43.5 107.5t44.5 97t62.5 75.5t86.5 28q111 0 215 -73q5 -37 -7.5 -79t-37.5 -71q-88 12 -166 6l-133 -260q108 -195 203 -305q75 -83 209 -67l22 -23 q3 -233 -18 -426q-74 -17 -150 0q-6 99 -35 285h-43q-58 0 -111.5 33t-99 95t-83.5 135t-76 169h-140v-111q0 -57 4 -155q79 -10 131 -37q0 -81 -10 -119q-102 4 -246 4q-52 0 -137 -2t-119 -2q-12 47 -12 119q71 9 144 37q8 41 8 112v154h-142q-49 -129 -100 -225 t-109.5 -157t-111.5 -61q-82 0 -168 20t-125 42z" />
<glyph unicode="&#x498;" horiz-adv-x="1114" d="M66 35q3 225 30 377q65 20 150 10q19 -152 49 -240q60 -18 186 -18q69 0 136.5 16.5t89.5 32.5q84 68 84 193q0 81 -61.5 141.5t-162.5 75.5l-200 -19l-21 23q-9 102 35 198l194 -6q76 28 118 87.5t42 123.5q0 73 -72.5 125.5t-181.5 52.5q-92 0 -170 -16 q-29 -95 -35 -209q-81 -20 -149 -2q-40 143 -43 311q201 111 471 111q122 0 224 -41.5t161 -115t59 -161.5q0 -97 -54.5 -176t-158.5 -135q136 -39 205.5 -127t69.5 -207q0 -158 -145 -293t-349 -167q-8 -19 -8 -41q0 -19 66 -39q147 -51 147 -168q0 -96 -111 -179.5 t-266 -111.5q-41 41 -35 98q78 32 136.5 73t58.5 83q0 50 -113 84q-24 6 -33.5 16.5t-9.5 30.5q0 66 52 143q-206 3 -385 66z" />
<glyph unicode="&#x499;" horiz-adv-x="978" d="M57 39q3 131 80 205l27 10q71 -44 151 -71t146 -27q119 0 153 24q41 30 41 107q0 45 -26 84.5t-72 62.5l-184 -20l-21 20q-20 89 23 154l184 -10q78 44 78 133q0 58 -50 96.5t-138 38.5q-92 0 -158 -12q-15 -68 -15 -152q-82 -40 -155 -20q-59 93 -62 229 q189 110 449 110q169 0 264.5 -67t95.5 -189q0 -124 -112 -206q141 -79 141 -209q0 -145 -117.5 -240t-298.5 -110q-8 -16 -8 -41q0 -19 66 -39q147 -51 147 -168q0 -96 -111 -179.5t-266 -111.5q-41 41 -35 98q78 32 136.5 73t58.5 83q0 50 -113 84q-24 6 -33.5 16.5 t-9.5 30.5q0 71 58 154q-203 6 -314 59z" />
<glyph unicode="&#x49a;" horiz-adv-x="1421" d="M45 123q75 8 178 39q10 49 10 153v613q0 155 -10 282q-103 31 -178 39q0 70 16 125q41 0 139 -2t158 -2q219 0 291 4q16 -62 13 -125q-84 -31 -166 -39q-9 -123 -9 -311v-106h228l200 415q70 140 123 191q181 -25 291 -103q9 -44 -4.5 -93t-42.5 -83l-203 19l-194 -408 l325 -557l181 2l22 -20q5 -269 -24 -490q-92 -17 -160 0q-5 153 -33 336h-192l-353 625h-164v-295q0 -90 9 -170q82 -8 166 -39q3 -63 -13 -125q-72 4 -291 4q-60 0 -158 -2t-139 -2q-16 55 -16 125z" />
<glyph unicode="&#x49b;" horiz-adv-x="1280" d="M61 117q80 9 162 37q10 39 10 112v447q0 63 -8 112q-88 29 -164 37q0 66 15 119q36 0 126 -2t146 -2q135 0 279 4q12 -42 12 -119q-71 -28 -154 -37q-6 -71 -6 -153v-103h31q140 0 162 31q24 35 48.5 93t43.5 107.5t44 97t62 75.5t86 28q111 0 215 -73q5 -38 -7 -80 t-38 -70q-88 12 -165 6l-132 -262q116 -209 201 -303q77 -83 211 -67l21 -23q3 -214 -17 -426q-75 -16 -151 0q-3 81 -35 285h-41q-208 0 -377 432h-162v-111q0 -81 6 -155q90 -10 152 -37q0 -85 -12 -119q-110 4 -271 4q-56 0 -149 -2t-129 -2q-15 49 -15 119z" />
<glyph unicode="&#x4a0;" horiz-adv-x="1615" d="M27 1354l20 20q127 -4 481 -4h56q260 0 346 4q15 -58 12 -125q-108 -31 -221 -39q-8 -101 -8 -311v-106h227l201 415q64 134 123 191q176 -24 290 -103q9 -43 -5 -92t-42 -84l-204 19l-193 -406l332 -571q93 -13 162 -39q3 -68 -13 -127q-80 4 -254 4h-110l-350 627h-164 v-295q0 -99 8 -170q82 -8 166 -39q3 -63 -13 -125q-72 4 -290 4q-60 0 -158 -2t-139 -2q-17 58 -17 125q77 8 179 39q10 61 10 153v885h-226q-25 -148 -30 -264q-74 -19 -154 0q-30 205 -22 418z" />
<glyph unicode="&#x4a1;" horiz-adv-x="1452" d="M27 961l20 20q234 -4 492 -4q155 0 319 4q12 -42 12 -119q-86 -28 -194 -37q-6 -71 -6 -153v-103h30q140 0 162 31q28 40 59.5 117.5t54 135t67 103t104.5 45.5q111 0 215 -73q5 -37 -7.5 -79t-37.5 -71q-88 12 -168 6l-131 -260q108 -202 201 -313q36 -42 70.5 -58 t82.5 -16q28 0 58 6q28 -52 20 -104q-39 -22 -124.5 -42t-166.5 -20q-82 0 -168.5 122t-161.5 321h-159v-111q0 -81 6 -155q90 -10 149 -37q0 -85 -12 -119q-110 4 -268 4q-56 0 -149.5 -2t-129.5 -2q-14 45 -14 119q80 9 162 37q10 39 10 112v565h-205q-25 -108 -31 -210 q-79 -18 -145 0q-21 190 -16 340z" />
<glyph unicode="&#x4a2;" horiz-adv-x="1628" d="M45 123q75 8 178 39q10 49 10 153v613q0 155 -10 282q-103 31 -178 39q0 70 16 125q41 0 139 -2t158 -2q219 0 291 4q16 -62 13 -125q-84 -31 -166 -39q-9 -123 -9 -311v-100h603v129q0 143 -11 282q-103 31 -178 39q0 67 17 125q41 0 138.5 -2t157.5 -2q219 0 291 4 q16 -62 13 -125q-84 -31 -166 -39q-9 -123 -9 -311v-727l254 4l21 -20q8 -255 -23 -490q-93 -18 -159 0q-10 187 -35 336h-187q-60 0 -157.5 -2t-138.5 -2q-17 58 -17 125q75 8 178 39q11 67 11 153v303q-253 15 -402 15h-201v-301q0 -90 9 -170q82 -8 166 -39 q3 -63 -13 -125q-72 4 -291 4q-60 0 -158 -2t-139 -2q-16 55 -16 125z" />
<glyph unicode="&#x4a3;" horiz-adv-x="1384" d="M61 117q80 9 162 37q10 39 10 112v447q0 63 -8 112q-88 29 -164 37q0 66 15 119q36 0 126 -2t146 -2q133 0 273 4q12 -42 12 -119q-67 -28 -148 -37q-6 -71 -6 -153v-90h422v131q0 63 -8 112q-80 28 -158 37q0 66 15 119q36 0 124 -2t142 -2q136 0 280 4q11 -48 11 -119 q-66 -28 -154 -37q-6 -70 -6 -153v-522l190 4l21 -21q3 -218 -17 -430q-75 -16 -151 0q-3 67 -33 299h-135q-54 0 -145 -2t-127 -2q-15 58 -15 119q80 9 158 37q8 41 8 112v158q-139 8 -305 8h-117v-123q0 -81 6 -155q88 -10 146 -37q0 -82 -13 -119q-110 4 -264 4 q-56 0 -149 -2t-129 -2q-15 49 -15 119z" />
<glyph unicode="&#x4aa;" horiz-adv-x="1232" d="M70 662q0 107 27.5 212t85.5 200.5t138.5 169t194.5 116.5t246 43q221 0 389 -60q0 -220 -47 -385q-78 -12 -148 13q-5 95 -26 225q-73 12 -207 12q-69 0 -140.5 -16.5t-97.5 -38.5q-29 -25 -60 -74t-60 -141t-29 -193q0 -123 25.5 -226t76.5 -183.5t137.5 -126 t200.5 -45.5q103 0 180 18q20 127 29 250q73 24 152 12q30 -158 30 -399q-214 -76 -440 -76h-4q-4 -10 -4 -30q0 -19 65 -39q148 -51 148 -168q0 -96 -111 -179.5t-266 -111.5q-41 41 -35 98q78 32 136.5 73t58.5 83q0 50 -113 84q-24 6 -33.5 16.5t-9.5 30.5q0 68 55 151 q-134 17 -239 77t-171 152t-100 207.5t-34 248.5z" />
<glyph unicode="&#x4ab;" horiz-adv-x="952" d="M70 473q0 75 21 150.5t62.5 143.5t98 120t133 83t162.5 31q195 0 344 -69q-6 -191 -53 -299q-98 -26 -158 8q-4 117 -12 176q-48 10 -129 10q-40 0 -80 -8t-56 -24q-37 -42 -60.5 -114.5t-23.5 -150.5q0 -64 13 -124.5t41.5 -118t81.5 -92.5t125 -35q114 0 284 69 q39 -36 45 -106q-71 -56 -172 -99.5t-194 -50.5q-4 -12 -4 -34q0 -19 65 -39q148 -51 148 -168q0 -96 -111 -179.5t-266 -111.5q-41 41 -35 98q78 32 136.5 73t58.5 83q0 50 -113 84q-24 6 -33.5 16.5t-9.5 30.5q0 68 55 151q-124 16 -207.5 86.5t-120 173.5t-36.5 236z" />
<glyph unicode="&#x4ae;" horiz-adv-x="1359" d="M8 1247q0 66 17 127q42 0 145 -2t168 -2q225 0 299 4q15 -58 12 -125l-176 -37l264 -487l256 487l-186 37q0 68 14 125q38 0 125 -2t137 -2q189 0 250 4q16 -62 13 -125q-77 -31 -152 -39l-383 -704v-174q0 -99 8 -170q107 -8 221 -39q3 -69 -14 -125q-84 4 -344 4 q-71 0 -186.5 -2t-163.5 -2q-19 56 -19 125q92 7 234 39q10 49 10 125v211l-385 710q-97 32 -164 39z" />
<glyph unicode="&#x4af;" horiz-adv-x="1159" d="M25 862q0 68 14 119q24 0 96 -2t119 -2q25 0 121.5 2t171.5 2q17 -51 10 -119l-137 -37l166 -471l2 -170h6l219 643l-143 35q0 73 16 119q34 0 121.5 -2t144.5 -2q50 0 172 4q17 -61 11 -119q-51 -25 -125 -35l-308 -845v-185q0 -67 7 -153q116 -10 196 -37 q0 -86 -14 -121q-126 4 -303 4q-74 0 -182.5 -2t-147.5 -2q-16 46 -16 121q114 10 207 35q8 57 8 114v246l-305 825q-47 23 -127 35z" />
<glyph unicode="&#x4b0;" horiz-adv-x="1359" d="M8 1247q0 66 17 127q42 0 145 -2t168 -2q225 0 299 4q15 -58 12 -125l-176 -37l264 -487l256 487l-186 37q0 68 14 125q38 0 125 -2t137 -2q189 0 250 4q16 -62 13 -125q-77 -31 -152 -39l-352 -647h237q20 -77 0 -155h-268v-76q0 -99 8 -170q107 -8 221 -39 q3 -69 -14 -125q-84 4 -344 4q-71 0 -186.5 -2t-163.5 -2q-19 56 -19 125q92 7 234 39q10 49 10 125v121h-270q-23 80 0 155h233l-348 645q-97 32 -164 39z" />
<glyph unicode="&#x4b1;" horiz-adv-x="1159" d="M25 862q0 68 14 119q24 0 96 -2t119 -2q25 0 121.5 2t171.5 2q17 -51 10 -119l-137 -37l166 -471l2 -170h6l219 643l-143 35q0 73 16 119q34 0 121.5 -2t144.5 -2q50 0 172 4q17 -61 11 -119q-51 -25 -125 -35l-260 -712h237q18 -73 0 -144h-285v-174q0 -67 7 -153 q116 -10 196 -37q0 -86 -14 -121q-126 4 -303 4q-74 0 -182.5 -2t-147.5 -2q-16 46 -16 121q114 10 207 35q8 57 8 114v215h-283q-23 77 0 144h242l-264 712q-47 23 -127 35z" />
<glyph unicode="&#x4b2;" horiz-adv-x="1419" d="M6 123q72 7 176 39l359 530l-359 518q-97 32 -164 39q0 67 17 125q41 0 142 -2t165 -2q231 0 307 4q13 -51 13 -125l-166 -37l247 -358l238 358l-164 35q0 70 14 127q38 0 121.5 -2t128.5 -2q185 0 248 4q13 -62 10 -125q-77 -31 -151 -39l-344 -501l373 -535l172 2 l22 -20q5 -263 -25 -490q-91 -17 -159 0q-5 153 -33 336h-137q-66 0 -169.5 -2t-144.5 -2q-16 55 -16 125l184 37l-268 385l-254 -385l160 -37q3 -67 -12 -125q-72 4 -261 4q-46 0 -129.5 -2t-123.5 -2q-17 58 -17 125z" />
<glyph unicode="&#x4b3;" horiz-adv-x="1226" d="M20 117q84 11 148 35l272 362l-250 313q-50 21 -145 35q0 68 14 119q25 0 105 -2t125 -2q29 0 64 0.5t96 1.5t116 2q17 -51 10 -119l-98 -31l170 -213l150 209l-109 35q0 70 17 119q28 0 108.5 -2t140.5 -2t162 4q18 -56 12 -119q-53 -25 -131 -35l-252 -331l275 -346 l160 4l20 -21q3 -227 -16 -430q-75 -16 -152 0q-3 67 -33 299h-73q-68 0 -165.5 -2t-127.5 -2q-17 49 -17 119l113 35l-188 235l-170 -235l127 -35q3 -71 -11 -119q-208 4 -231 4q-42 0 -118.5 -2t-102.5 -2q-15 54 -15 119z" />
<glyph unicode="&#x4b6;" horiz-adv-x="1484" d="M8 1249q0 67 17 125q41 0 138.5 -2t158.5 -2q207 0 270 4q15 -58 12 -125q-74 -31 -153 -39v-237q0 -139 55.5 -217t157.5 -78q142 0 282 59v191q0 155 -10 282q-99 31 -172 39q0 70 16 125q40 0 136 -2t155 -2q219 0 291 4q15 -58 12 -125q-84 -31 -166 -39 q-8 -82 -8 -311v-727l254 4l21 -20q7 -234 -23 -490q-93 -18 -160 0q-8 159 -35 336h-186q-71 0 -186.5 -2t-163.5 -2q-19 56 -19 125q92 7 234 39q10 61 10 153v269q-176 -90 -371 -90q-178 0 -278 105.5t-100 328.5v280q-118 34 -189 41z" />
<glyph unicode="&#x4b7;" horiz-adv-x="1243" d="M10 862q0 60 15 119q34 0 122.5 -2t145.5 -2q125 0 235 4q13 -46 13 -119q-59 -29 -119 -37q-6 -61 -6 -135q0 -80 46.5 -117.5t125.5 -37.5q87 0 172 40v138q0 63 -8 112q-57 28 -117 37q0 66 12 119q31 0 106 -2t121 -2q137 0 281 4q10 -44 10 -119q-68 -28 -153 -37 q-6 -71 -6 -153v-522l190 4l21 -21q3 -218 -17 -430q-73 -17 -151 0q-3 67 -33 299h-135q-63 0 -168.5 -2t-145.5 -2q-16 45 -16 119q98 9 201 37q8 41 8 112v172q-127 -65 -279 -65q-148 0 -229.5 73.5t-81.5 217.5q0 118 -8 161q-77 28 -152 37z" />
<glyph unicode="&#x4ba;" horiz-adv-x="1427" d="M45 123q75 8 178 39q10 49 10 125v641q0 155 -10 282q-103 31 -178 39q0 70 16 125q41 0 139 -2t158 -2q219 0 291 4q16 -62 13 -125q-84 -31 -166 -39q-9 -114 -9 -282v-148q193 101 377 101q186 0 279.5 -94.5t93.5 -292.5v-332q90 -8 176 -39q3 -67 -12 -125 q-72 4 -291 4q-54 0 -151 -2t-130 -2q-16 55 -16 125q91 11 170 39v278q0 132 -48.5 195t-158.5 63q-140 0 -289 -49v-317q0 -90 9 -170q78 -8 159 -39q3 -67 -12 -125q-70 4 -285 4q-60 0 -158 -2t-139 -2q-16 55 -16 125z" />
<glyph unicode="&#x4bb;" horiz-adv-x="1245" d="M27 117q87 9 163 35q9 67 9 114v1090q-97 26 -162 33q-19 55 -8 106q181 64 401 74l23 -21q-9 -308 -9 -594v-28q157 82 310 82q132 0 218.5 -81.5t86.5 -240.5v-379q0 -79 6 -153q93 -10 154 -37q0 -85 -15 -119q-106 4 -262 4q-56 0 -138.5 -2t-113.5 -2 q-12 30 -12 119q79 15 127 35q8 60 8 114v316q0 60 -6 100t-23.5 75.5t-53 52.5t-89.5 17q-102 0 -197 -39v-481q0 -67 7 -153q84 -10 143 -37q0 -85 -12 -119q-106 4 -256 4q-65 0 -158 -2t-127 -2q-14 35 -14 119z" />
<glyph unicode="&#x4c0;" horiz-adv-x="718" d="M45 123q75 8 178 39q10 49 10 125v641q0 155 -10 282q-103 31 -178 39q0 70 16 125q41 0 139 -2t158 -2q219 0 291 4q16 -62 13 -125q-84 -31 -166 -39q-9 -114 -9 -282v-596q0 -90 9 -170q82 -8 166 -39q3 -63 -13 -125q-72 4 -291 4q-60 0 -158 -2t-139 -2 q-16 55 -16 125z" />
<glyph unicode="&#x4cf;" horiz-adv-x="704" d="M61 117q80 9 162 37q10 39 10 112v447q0 63 -8 112q-88 29 -164 37q0 66 15 119q36 0 126 -2t146 -2q133 0 273 4q12 -42 12 -119q-67 -28 -148 -37q-6 -71 -6 -153v-363q0 -81 6 -155q88 -10 146 -37q0 -82 -13 -119q-110 4 -264 4q-56 0 -149 -2t-129 -2 q-15 49 -15 119z" />
<glyph unicode="&#x4d0;" horiz-adv-x="1435" d="M10 123q67 7 164 39l420 1188q101 32 237 32l441 -1220q74 -8 151 -39q3 -67 -12 -125q-70 4 -287 4q-59 0 -159.5 -2t-143.5 -2q-16 55 -16 125l194 37l-92 256q-182 10 -313 10h-141l-91 -266l181 -37q3 -63 -13 -125q-74 4 -262 4q-46 0 -126 -2t-115 -2 q-17 58 -17 125zM373 1751q29 30 105.5 43t131.5 -2v-23q0 -59 33.5 -100t89.5 -41q65 0 92 31q23 23 23 121v12q57 15 138.5 2t111.5 -43q0 -102 -112.5 -177t-272.5 -75q-155 0 -247.5 68.5t-92.5 183.5zM504 580h346l-137 387l-8 186h-5z" />
<glyph unicode="&#x4d1;" horiz-adv-x="1056" d="M63 223q0 80 52 149t139 117t178 80.5t191 53.5q-3 111 -35 169t-109 58q-85 0 -139 -12q-16 -56 -16 -158q-82 -40 -156 -21q-59 97 -59 236q190 111 415 111q44 0 85 -6.5t90 -28t85 -56t60 -96.5t24 -143v-369q0 -81 9 -149q45 6 131 26q36 -32 36 -82 q-56 -56 -130.5 -93.5t-143.5 -37.5q-35 0 -68 38.5t-55 101.5q-78 -64 -161.5 -102t-153.5 -38q-127 0 -198 65.5t-71 186.5zM156 1399q29 34 87.5 46t114.5 -5v-25q0 -68 34.5 -116t94.5 -48q69 0 95 33q11 14 19.5 57.5t8.5 83.5v15q52 18 113.5 5.5t93.5 -48.5 q-3 -122 -98 -194.5t-252 -72.5q-146 0 -227 70.5t-84 198.5zM317 287q0 -54 36 -90.5t102 -36.5q73 0 168 71v230q-91 -12 -169 -31t-96 -33t-29.5 -47t-11.5 -63z" />
<glyph unicode="&#x4d4;" horiz-adv-x="1849" d="M8 123q67 7 164 39l467 1044l-178 43q0 70 16 125q44 0 129.5 -2t130.5 -2h506q352 0 479 4l23 -22q6 -222 -25 -377q-87 -18 -151 0q-9 119 -33 225h-397v-459l383 9l20 -21q-3 -91 -20 -151l-383 6v-412h424q42 119 73 252q69 11 150 -12q0 -174 -23 -392l-20 -22 q-127 4 -481 4h-246q-60 0 -159 -2t-140 -2q-17 58 -17 125q77 8 179 39q10 49 10 125v299h-338l-191 -426l181 -37q3 -63 -13 -125q-74 4 -262 4q-46 0 -126 -2t-115 -2q-17 58 -17 125zM621 741h268v457h-66z" />
<glyph unicode="&#x4d5;" horiz-adv-x="1554" d="M63 223q0 56 25.5 106.5t70 89.5t99 72t120 58t125 42t120.5 30q-3 111 -35 170t-109 59q-85 0 -139 -12q-16 -56 -16 -158q-82 -40 -156 -21q-59 97 -59 236q190 111 415 111q75 0 148.5 -32t120.5 -104q138 138 301 138q87 0 155 -24.5t110 -63.5t69.5 -92t38 -105 t10.5 -107q0 -74 -15 -118l-22 -21q-204 4 -373 4h-195q5 -60 21.5 -114t46 -102t80.5 -76.5t117 -28.5q119 0 297 71q39 -33 45 -104q-81 -63 -195.5 -109.5t-214.5 -46.5q-257 0 -371 187q-82 -80 -181.5 -133.5t-184.5 -53.5q-127 0 -198 65.5t-71 186.5zM317 287 q0 -53 35.5 -90t102.5 -37q83 0 198 96q-28 95 -28 205q-90 -10 -169 -29.5t-98 -34.5q-18 -17 -29.5 -48.5t-11.5 -61.5zM874 614h168q44 0 187 7q0 48 -7 84.5t-24.5 69t-52.5 50t-86 17.5q-73 0 -122 -62t-63 -166z" />
<glyph unicode="&#x4d6;" horiz-adv-x="1202" d="M45 123q75 8 178 39q10 49 10 125v641q0 152 -10 282q-103 31 -178 39q0 70 16 125q41 0 139 -2t158 -2h236q354 0 481 4l23 -22q6 -222 -25 -377q-83 -18 -151 0q-9 119 -33 225h-402v-416l387 11l23 -21q-4 -101 -23 -160l-387 11v-453h428q45 127 74 252 q70 11 150 -12q0 -174 -23 -392l-20 -22q-127 4 -482 4h-252q-61 0 -160.5 -2t-140.5 -2q-16 55 -16 125zM272 1751q29 30 106 43t132 -2v-23q0 -59 33.5 -100t89.5 -41q65 0 92 31q23 23 23 121v12q57 15 138 2t111 -43q0 -102 -112.5 -177t-272.5 -75q-155 0 -247.5 68.5 t-92.5 183.5z" />
<glyph unicode="&#x4d7;" horiz-adv-x="999" d="M70 467q0 132 59 255.5t168.5 204.5t241.5 81q87 0 155 -24.5t110 -63.5t69.5 -92t38 -105t10.5 -107q0 -74 -15 -118l-22 -21q-238 4 -428 4h-140q5 -60 21.5 -114t46 -102t80.5 -76.5t117 -28.5q119 0 297 71q39 -33 45 -104q-81 -63 -195.5 -109.5t-214.5 -46.5 q-113 0 -200 38.5t-139.5 106.5t-78.5 156.5t-26 194.5zM199 1399q29 34 87.5 46t114.5 -5v-25q0 -68 34.5 -116t94.5 -48q69 0 95 33q11 14 19.5 57.5t8.5 83.5v15q52 18 113.5 5.5t93.5 -48.5q-3 -122 -98 -194.5t-252 -72.5q-146 0 -227 70.5t-84 198.5zM322 614h106 q157 0 246 7q0 48 -7 84.5t-24.5 69t-52.5 50t-86 17.5q-25 0 -57.5 -10.5t-45.5 -24.5q-63 -80 -79 -193z" />
<glyph unicode="&#x4d8;" horiz-adv-x="1265" d="M53 543q0 87 13 141l24 23q357 -5 500 -5h338q-7 109 -35.5 199.5t-79 160t-129.5 108t-180 38.5q-91 0 -166 -16q-26 -83 -33 -209q-75 -21 -149 -2q-42 134 -45 311q217 111 444 111q126 0 231.5 -35t180.5 -97.5t127 -149t77 -189.5t25 -219q0 -109 -28.5 -216.5 t-86.5 -203.5t-137.5 -169.5t-189.5 -117t-234 -43.5q-89 0 -163 26t-123.5 72t-86 103t-56.5 124t-29 129.5t-9 125.5zM330 537q0 -73 15 -139t44.5 -120.5t81 -87t117.5 -32.5q60 0 114 17t80 38q44 35 87 121.5t55 202.5h-594z" />
<glyph unicode="&#x4d9;" horiz-adv-x="1044" d="M86 373q0 86 16 127l23 22q254 -4 450 -4h150q-4 51 -15 97t-31.5 89t-48.5 74.5t-69 50.5t-90 19q-57 0 -125 -10q-12 -44 -16 -129q-80 -39 -162 -21q-53 88 -53 205q188 108 409 108q92 0 167.5 -24.5t127.5 -68t87.5 -105t52 -134.5t16.5 -157q0 -131 -61.5 -254.5 t-176.5 -205t-254 -81.5q-90 0 -160.5 25t-114 65t-72 94t-39.5 107.5t-11 110.5zM334 377q0 -52 8 -91.5t27 -74.5t57 -53.5t94 -18.5q29 0 64.5 9.5t48.5 23.5q76 91 92 213h-125q-160 0 -266 -8z" />
<glyph unicode="&#x4e2;" horiz-adv-x="1572" d="M45 123q75 8 178 39q10 49 10 153v613q0 155 -10 282q-103 31 -178 39q0 70 16 125q41 0 139 -2t158 -2q219 0 291 4q16 -62 13 -125q-84 -31 -166 -39q-9 -123 -9 -311v-373l598 570l-6 114q-103 31 -178 39q0 67 17 125q41 0 138.5 -2t157.5 -2q219 0 291 4 q16 -62 13 -125q-84 -31 -166 -39q-9 -123 -9 -311v-567q0 -90 9 -170q82 -8 166 -39q3 -63 -13 -125q-72 4 -291 4q-60 0 -157.5 -2t-138.5 -2q-17 58 -17 125q75 8 178 39q11 67 11 153v555l-603 -573q0 -71 9 -135q82 -8 166 -39q3 -63 -13 -125q-72 4 -291 4 q-60 0 -158 -2t-139 -2q-16 55 -16 125zM481 1518q-36 89 0 172h602q37 -84 0 -172h-602z" />
<glyph unicode="&#x4e3;" horiz-adv-x="1382" d="M61 117q80 9 162 37q8 41 8 112v447q0 63 -8 112q-84 28 -162 37q0 66 15 119q36 0 124.5 -2t143.5 -2q124 0 260 4q10 -44 10 -119q-61 -28 -135 -37q-6 -71 -6 -153v-211l-18 -180h4l418 694q43 2 143 2q136 0 280 4q13 -46 13 -119q-71 -28 -154 -37q-6 -70 -6 -153 v-363q0 -81 6 -155q91 -10 150 -37q0 -82 -13 -119q-106 4 -266 4q-50 0 -137 -2t-123 -2q-12 47 -12 119q70 9 143 37q10 39 10 112v328l23 178h-6l-461 -768q-37 -2 -113 -2q-55 0 -148.5 -2t-129.5 -2q-15 49 -15 119zM410 1161q-31 93 0 180h583q36 -88 0 -180h-583z " />
<glyph unicode="&#x4e6;" horiz-adv-x="1417" d="M70 662q0 107 29 213.5t86 202.5t135 170t184 117.5t225 43.5q194 0 336 -93t212.5 -249.5t70.5 -355.5q0 -107 -29 -214.5t-86.5 -203t-135 -169.5t-183.5 -117.5t-224 -43.5q-149 0 -268 54t-195 149t-116.5 221.5t-40.5 274.5zM336 745q0 -120 24 -223.5t71.5 -186 t129 -130t187.5 -47.5q53 0 115 20.5t83 42.5q56 62 95.5 166t39.5 240q0 121 -23.5 224t-70.5 185.5t-128 130t-187 47.5q-54 0 -116 -20t-85 -43q-56 -62 -95.5 -166t-39.5 -240zM377 1626q0 62 43 115t106 53q46 0 83.5 -34t37.5 -83q0 -61 -41.5 -109.5t-101.5 -51.5 q-49 0 -88 32.5t-39 77.5zM788 1626q0 61 43.5 114.5t102.5 53.5q51 0 89 -33.5t38 -83.5q0 -62 -43 -110t-107 -51q-45 0 -84 33t-39 77z" />
<glyph unicode="&#x4e7;" horiz-adv-x="1087" d="M70 473q0 96 33.5 190t93.5 171.5t154.5 125.5t205.5 48q153 0 258.5 -66.5t154 -177.5t48.5 -258q0 -96 -33.5 -190t-94 -171.5t-155 -125.5t-205.5 -48q-224 0 -342 137.5t-118 364.5zM205 1249q0 64 43.5 117t107.5 53q48 0 88.5 -35t40.5 -84q0 -64 -44.5 -115 t-106.5 -52q-51 0 -90 34t-39 82zM319 526q0 -64 13.5 -127.5t41 -122t77 -95t114.5 -36.5q33 0 69 9t48 26q38 45 62 117.5t24 155.5q0 64 -13.5 127.5t-41 122t-77 95t-114.5 36.5q-33 0 -68.5 -8.5t-47.5 -24.5q-38 -45 -62.5 -118.5t-24.5 -156.5zM612 1249 q0 62 45.5 116t106.5 54q52 0 90.5 -34.5t38.5 -84.5q0 -65 -43.5 -115.5t-108.5 -51.5q-47 0 -88 34.5t-41 81.5z" />
<glyph unicode="&#x4e8;" horiz-adv-x="1417" d="M70 662q0 107 29 213.5t86 202.5t135 170t184 117.5t225 43.5q194 0 336 -93t212.5 -249.5t70.5 -355.5q0 -107 -29 -214.5t-86.5 -203t-135 -169.5t-183.5 -117.5t-224 -43.5q-149 0 -268 54t-195 149t-116.5 221.5t-40.5 274.5zM336 784h733q-14 93 -43.5 169 t-77 135.5t-118 92.5t-158.5 33q-54 0 -116 -20t-85 -43q-52 -58 -91 -151.5t-44 -215.5zM342 633q10 -102 39 -185.5t77 -149.5t122 -103t168 -37q53 0 115 20.5t83 42.5q56 62 95.5 166t39.5 240v6h-739z" />
<glyph unicode="&#x4e9;" horiz-adv-x="1087" d="M70 473q0 96 33.5 190t93.5 171.5t154.5 125.5t205.5 48q153 0 258.5 -66.5t154 -177.5t48.5 -258q0 -96 -33.5 -190t-94 -171.5t-155 -125.5t-205.5 -48q-224 0 -342 137.5t-118 364.5zM322 575h434q-21 110 -80 184.5t-154 74.5q-33 0 -68.5 -8.5t-47.5 -24.5 q-72 -82 -84 -226zM324 444q10 -79 35.5 -143t79 -110t126.5 -46q33 0 69 9t48 26q37 43 61 112.5t25 151.5h-444z" />
<glyph unicode="&#x4ee;" horiz-adv-x="1368" d="M8 1249q0 67 17 125q44 0 147.5 -2t167.5 -2q215 0 299 4q15 -58 12 -125l-180 -37l299 -579l244 579l-180 37q0 68 14 125q40 0 125 -2t123 -2q182 0 245 4q16 -62 13 -125q-77 -31 -152 -39l-409 -936q-90 -203 -211 -311q-104 25 -186 79t-132 122q6 41 32.5 79.5 t65.5 63.5l211 -84q25 42 68 139l-469 848q-97 32 -164 39zM426 1518q-36 89 0 172h602q37 -84 0 -172h-602z" />
<glyph unicode="&#x4ef;" horiz-adv-x="1159" d="M25 862q0 68 14 119q24 0 96 -2t119 -2q25 0 121.5 2t171.5 2q17 -51 10 -119l-137 -37l166 -471l2 -170h6l219 643l-143 35q0 73 16 119q34 0 121.5 -2t144.5 -2q50 0 172 4q17 -61 11 -119q-51 -25 -125 -35l-295 -809q-44 -124 -87.5 -217.5t-94.5 -170t-109.5 -116.5 t-122.5 -40q-146 0 -231 47q-6 78 41 131h28q265 0 367 270l31 78h-80l-305 827q-47 23 -127 35zM307 1161q-31 93 0 180h584q36 -88 0 -180h-584z" />
<glyph unicode="&#x4f2;" horiz-adv-x="1368" d="M8 1249q0 67 17 125q44 0 147.5 -2t167.5 -2q215 0 299 4q15 -58 12 -125l-180 -37l299 -579l244 579l-180 37q0 68 14 125q40 0 125 -2t123 -2q182 0 245 4q16 -62 13 -125q-77 -31 -152 -39l-409 -936q-90 -203 -211 -311q-104 25 -186 79t-132 122q6 41 32.5 79.5 t65.5 63.5l211 -84q25 42 68 139l-469 848q-97 32 -164 39zM506 1538l133 317q90 33 203 33l14 -47l-254 -358q-67 12 -96 55zM825 1538l146 317q90 33 203 33l14 -47l-266 -358q-68 13 -97 55z" />
<glyph unicode="&#x4f3;" horiz-adv-x="1159" d="M25 862q0 68 14 119q24 0 96 -2t119 -2q25 0 121.5 2t171.5 2q17 -51 10 -119l-137 -37l166 -471l2 -170h6l219 643l-143 35q0 73 16 119q34 0 121.5 -2t144.5 -2q50 0 172 4q17 -61 11 -119q-51 -25 -125 -35l-295 -809q-44 -124 -87.5 -217.5t-94.5 -170t-109.5 -116.5 t-122.5 -40q-146 0 -231 47q-6 78 41 131h28q265 0 367 270l31 78h-80l-305 827q-47 23 -127 35zM369 1159l104 344q86 43 205 43l14 -41l-221 -387q-75 6 -102 41zM670 1159l116 344q89 43 207 43l15 -41l-234 -387q-74 6 -104 41z" />
<glyph unicode="&#x2000;" horiz-adv-x="944" />
<glyph unicode="&#x2001;" horiz-adv-x="1888" />
<glyph unicode="&#x2002;" horiz-adv-x="944" />
<glyph unicode="&#x2003;" horiz-adv-x="1888" />
<glyph unicode="&#x2004;" horiz-adv-x="629" />
<glyph unicode="&#x2005;" horiz-adv-x="472" />
<glyph unicode="&#x2006;" horiz-adv-x="314" />
<glyph unicode="&#x2007;" horiz-adv-x="314" />
<glyph unicode="&#x2008;" horiz-adv-x="236" />
<glyph unicode="&#x2009;" horiz-adv-x="377" />
<glyph unicode="&#x200a;" horiz-adv-x="104" />
<glyph unicode="&#x2010;" horiz-adv-x="780" d="M131 418q-18 88 4 178l510 10q22 -94 2 -180z" />
<glyph unicode="&#x2011;" horiz-adv-x="780" d="M131 418q-18 88 4 178l510 10q22 -94 2 -180z" />
<glyph unicode="&#x2012;" horiz-adv-x="780" d="M131 418q-18 88 4 178l510 10q22 -94 2 -180z" />
<glyph unicode="&#x2013;" horiz-adv-x="999" d="M111 430q-15 82 0 162h778q15 -82 0 -162h-778z" />
<glyph unicode="&#x2014;" horiz-adv-x="2048" d="M203 430q-18 80 0 162h1642q18 -80 0 -162h-1642z" />
<glyph unicode="&#x2018;" horiz-adv-x="489" d="M76 1231q0 106 93.5 223t209.5 172q47 -18 59 -67q-125 -132 -125 -238q0 -85 86 -111q-7 -65 -55 -107t-111 -42q-71 0 -114 47t-43 123z" />
<glyph unicode="&#x2019;" horiz-adv-x="489" d="M51 1126q125 132 125 238q0 85 -86 111q7 65 55 107t111 42q71 0 114.5 -47t43.5 -123q0 -106 -93.5 -223t-209.5 -172q-48 19 -60 67z" />
<glyph unicode="&#x201a;" horiz-adv-x="501" d="M51 -248q125 132 125 238q0 84 -86 110q7 65 55.5 107.5t110.5 42.5q71 0 114.5 -47t43.5 -123q0 -106 -93.5 -223t-209.5 -172q-48 19 -60 67z" />
<glyph unicode="&#x201c;" horiz-adv-x="909" d="M76 1231q0 106 93.5 223t209.5 172q47 -18 59 -67q-125 -132 -125 -238q0 -85 86 -111q-7 -65 -55 -107t-111 -42q-71 0 -114 47t-43 123zM496 1231q0 106 93.5 223t209.5 172q47 -18 59 -67q-125 -132 -125 -238q0 -85 86 -111q-7 -65 -55 -107t-111 -42q-71 0 -114 47 t-43 123z" />
<glyph unicode="&#x201d;" horiz-adv-x="909" d="M51 1126q125 132 125 238q0 85 -86 111q7 65 55 107t111 42q71 0 114.5 -47t43.5 -123q0 -106 -93.5 -223t-209.5 -172q-48 19 -60 67zM471 1126q125 132 125 238q0 85 -86 111q7 65 55 107t111 42q71 0 114.5 -47t43.5 -123q0 -106 -94 -223t-210 -172q-47 18 -59 67z " />
<glyph unicode="&#x201e;" horiz-adv-x="921" d="M51 -248q125 132 125 238q0 84 -86 110q7 65 55.5 107.5t110.5 42.5q71 0 114.5 -47t43.5 -123q0 -106 -93.5 -223t-209.5 -172q-48 19 -60 67zM471 -248q125 132 125 238q0 84 -86 110q7 65 55.5 107.5t110.5 42.5q71 0 114.5 -47t43.5 -123q0 -106 -94 -223t-210 -172 q-47 18 -59 67z" />
<glyph unicode="&#x2020;" horiz-adv-x="815" d="M68 809q-15 85 0 170h229l-10 258q112 27 225 12l20 -22l-10 -248h228q15 -85 0 -170q-100 -17 -236 -23l-47 -1198q-59 -21 -117 0l-47 1198q-135 6 -235 23z" />
<glyph unicode="&#x2021;" horiz-adv-x="815" d="M68 307q-15 85 0 170h247l-12 309q-135 6 -235 23q-15 85 0 170h229l-10 258q112 27 225 12l20 -22l-10 -248h228q15 -85 0 -170q-100 -17 -236 -23l-12 -309h248q15 -85 0 -170q-114 -18 -256 -24l-27 -695q-59 -21 -117 0l-26 695q-141 6 -256 24z" />
<glyph unicode="&#x2022;" horiz-adv-x="1069" d="M309 508q0 89 66 149t160 60q95 0 160 -60t65 -149q0 -91 -65 -155t-160 -64q-94 0 -160 64t-66 155z" />
<glyph unicode="&#x2026;" horiz-adv-x="1783" d="M123 143q0 70 50 117t124 47t124 -47t50 -117q0 -72 -50.5 -122t-123.5 -50t-123.5 50t-50.5 122zM717 143q0 70 50 117t124 47t124 -47t50 -117q0 -72 -50.5 -122t-123.5 -50t-123.5 50t-50.5 122zM1313 143q0 70 50 117t124 47t124 -47t50 -117q0 -72 -50.5 -122 t-123.5 -50t-123.5 50t-50.5 122z" />
<glyph unicode="&#x202f;" horiz-adv-x="377" />
<glyph unicode="&#x2030;" horiz-adv-x="2211" d="M37 1014q0 94 39.5 180.5t118 144.5t176.5 58q75 0 135 -29.5t96.5 -79.5t56 -113.5t19.5 -134.5q0 -93 -39.5 -179t-118 -144t-176.5 -58q-147 0 -227 102.5t-80 252.5zM248 1055q0 -106 31 -176t86 -70q41 0 57 16q47 63 47 176q0 106 -31.5 176t-87.5 70 q-39 0 -57 -18q-45 -61 -45 -174zM254 45l870 1378q72 -18 125 -84l-872 -1374q-83 26 -123 80zM821 332q0 70 23 137.5t64.5 122.5t105.5 89t139 34q146 0 226.5 -104t80.5 -253q0 -69 -23.5 -136.5t-65.5 -122t-106 -88.5t-139 -34q-146 0 -225.5 103t-79.5 252zM1030 373 q0 -106 31.5 -176t87.5 -70q39 0 55 16q47 63 47 176q0 106 -31 176t-87 70q-18 0 -34.5 -6t-21.5 -12q-47 -63 -47 -174zM1534 332q0 94 39 180.5t117 144.5t176 58q147 0 228 -104t81 -253q0 -93 -39.5 -179t-118 -144t-176.5 -58q-147 0 -227 102.5t-80 252.5zM1737 373 q0 -106 31 -176t87 -70q40 0 56 16q47 63 47 176q0 106 -31.5 176t-87.5 70q-41 0 -55 -18q-47 -63 -47 -174z" />
<glyph unicode="&#x2039;" horiz-adv-x="735" d="M98 453q-6 57 15 122l415 404q63 -20 103 -82l-271 -381l281 -373q-36 -68 -117 -100z" />
<glyph unicode="&#x203a;" horiz-adv-x="737" d="M94 879q39 71 119 98l424 -410q6 -61 -14 -123l-416 -403q-67 24 -101 84l269 381z" />
<glyph unicode="&#x2044;" horiz-adv-x="368" d="M-322 45l871 1378q72 -18 125 -84l-873 -1374q-83 26 -123 80z" />
<glyph unicode="&#x205f;" horiz-adv-x="472" />
<glyph unicode="&#x20ac;" horiz-adv-x="1015" d="M80 352q-15 58 0 119h84v27q0 44 4 69h-88q-15 61 0 121h113q51 157 168 261t278 104q164 0 285 -45q-3 -189 -41 -297q-69 -12 -133 10q-5 61 -19 149q-43 9 -113 9q-52 0 -94 -9.5t-55 -21.5q-16 -13 -38 -56.5t-36 -103.5h226q16 -51 0 -121h-240v-10q0 -59 4 -86h236 q16 -50 0 -119h-213q60 -200 237 -200q62 0 109 14q14 84 20 166q65 21 139 12q25 -119 25 -307q-167 -60 -317 -60q-184 0 -297.5 102.5t-147.5 272.5h-96z" />
<glyph unicode="&#x2122;" horiz-adv-x="1511" d="M49 1364l17 16h804l119 -313l6 -100h9l124 407h283q13 -41 8 -82l-78 -20l25 -383l82 -19q9 -45 -6 -82h-295q-15 37 -6 82l76 19l-17 244v102h-6l-129 -436q-73 -15 -139 -15l-113 340l-16 115h-6l-25 -348l63 -21q6 -41 -6 -82h-241q-13 36 -7 82l70 21l25 381h-232 v-381l88 -21q0 -52 -6 -82h-319q-12 40 -6 84l94 19v381h-121l-12 -133q-49 -18 -90 0z" />
<glyph unicode="&#x2202;" horiz-adv-x="1132" d="M66 1395q87 63 205.5 102t217.5 39q111 0 203.5 -40t155.5 -108t106.5 -160t63.5 -193t20 -210q0 -140 -20.5 -264.5t-67 -235t-115 -190.5t-169.5 -126t-226 -46q-154 0 -258 111.5t-104 265.5q0 115 60 227t171.5 188t243.5 76q128 0 223 -63v8q0 146 -48 275 t-136 209.5t-195 80.5q-141 0 -278 -67q-50 47 -53 121zM332 403q0 -98 54 -171.5t130 -73.5q114 0 180 88q38 52 62 266q-102 119 -244 119q-40 0 -78 -11t-49 -22q-55 -61 -55 -195z" />
<glyph unicode="&#x2206;" horiz-adv-x="1302" d="M53 139l469 1213q105 30 240 30l489 -1243q0 -92 -20 -139h-1159q-22 66 -19 139zM262 205h686l-307 772l-6 182h-6z" />
<glyph unicode="&#x220f;" horiz-adv-x="1488" d="M20 -303q77 8 179 39q10 49 10 125v1067q0 152 -10 282q-102 31 -179 39q0 67 17 125q41 0 139 -2t158 -2h821q219 0 291 4q15 -58 12 -125q-84 -31 -166 -39q-8 -101 -8 -282v-1022q0 -99 8 -170q82 -8 166 -39q3 -67 -12 -125q-72 4 -291 4q-60 0 -158 -2t-139 -2 q-16 55 -16 125q75 8 178 39q10 49 10 125v1339h-567v-1294q0 -99 8 -170q82 -8 166 -39q3 -67 -12 -125q-72 4 -291 4q-60 0 -158 -2t-139 -2q-17 58 -17 125z" />
<glyph unicode="&#x2211;" horiz-adv-x="1175" d="M59 -238l496 715l-492 750q9 86 66 143h483q355 0 482 4l22 -22q3 -225 -24 -404q-76 -18 -152 0q-5 110 -33 252h-499l419 -637v-31l-526 -759h629q53 143 78 245q67 11 149 -12q0 -215 -22 -412l-21 -22q-127 4 -481 4h-539q-35 77 -35 186z" />
<glyph unicode="&#x221a;" horiz-adv-x="1150" d="M0 555q263 140 406 223l30 -6l228 -725l323 1694h166l-379 -1927q-119 -29 -248 -29l-268 739l-205 -80q-50 44 -53 111z" />
<glyph unicode="&#x221e;" horiz-adv-x="1486" d="M49 492q0 90 33.5 164.5t87 120t117 70.5t127.5 25q73 0 157.5 -48t202.5 -165q201 215 391 215q116 0 194.5 -88.5t78.5 -218.5q0 -89 -33.5 -163.5t-87.5 -120.5t-118 -71.5t-128 -25.5q-75 0 -161.5 44.5t-200.5 156.5q-82 -89 -183.5 -146t-203.5 -57 q-115 0 -194 89.5t-79 218.5zM231 530q0 -75 33.5 -123.5t89.5 -48.5q116 0 252 152q-65 78 -136 131t-122 53q-25 0 -49 -8t-31 -16q-37 -49 -37 -140zM879 549q69 -79 139 -133t119 -54q25 0 49 9t33 18q34 45 34 137q0 76 -33.5 124t-89.5 48q-118 0 -251 -149z" />
<glyph unicode="&#x222b;" horiz-adv-x="993" d="M0 -666q0 153 111 250h30q105 -114 221 -114q30 0 56.5 7t32.5 17q22 41 8 176l-170 1626q-10 106 24 198.5t97.5 153t144 94.5t164.5 34q145 0 274 -76q0 -154 -110 -250h-31q-109 115 -219 115q-30 0 -57 -7.5t-33 -17.5q-22 -41 -8 -176l167 -1626q9 -86 -11.5 -163 t-62.5 -133.5t-99 -98.5t-122.5 -63t-132.5 -21q-147 0 -274 75z" />
<glyph unicode="&#x2248;" d="M100 360q63 61 148.5 103.5t150.5 42.5q47 0 100 -16.5t91.5 -36t84 -36t79.5 -16.5q13 0 27.5 1.5t29 5t27.5 7.5t28.5 9.5t25.5 9.5t24.5 11t21 10t19 9t14.5 7q56 -38 65 -100q-62 -62 -148 -105t-151 -43q-47 0 -100 16t-91 35.5t-83.5 35.5t-79.5 16q-89 0 -219 -70 q-56 46 -64 104zM100 705q62 61 148 103t151 42q60 0 126.5 -25.5t126.5 -51t102 -25.5q75 0 217 69q55 -38 65 -102q-63 -61 -148.5 -103.5t-150.5 -42.5q-47 0 -100 16t-91 35.5t-83.5 35.5t-79.5 16q-89 0 -219 -70q-55 46 -64 103z" />
<glyph unicode="&#x2260;" d="M143 270q-31 81 0 174h279l94 185h-373q-30 80 0 176h461l127 248q83 -16 150 -74l-88 -174h194q26 -89 0 -176h-285l-94 -185h379q26 -87 0 -174h-469l-125 -247q-96 20 -147 73l88 174h-191z" />
<glyph unicode="&#x2264;" d="M135 573q-23 77 0 144l828 325q54 -46 71 -151l-643 -246l639 -250q-12 -94 -65 -153zM154 0q-27 82 0 174h843q29 -87 0 -174h-843z" />
<glyph unicode="&#x2265;" d="M119 393l641 246l-637 250q12 98 65 153l830 -331q23 -77 0 -144l-828 -325q-54 46 -71 151zM154 0q-27 82 0 174h843q29 -87 0 -174h-843z" />
<glyph unicode="&#x25ca;" horiz-adv-x="1136" d="M86 686l383 668q86 28 180 28l404 -696l-381 -668q-86 -28 -180 -28zM293 707l291 -500l260 457l-293 499z" />
<glyph unicode="&#x25fc;" horiz-adv-x="983" d="M0 0v983h983v-983h-983z" />
</font>
</defs>
</svg>
